<?xml version="1.0" encoding="utf-8"?>
<!-- Generator: Adobe Illustrator 21.0.0, SVG Export Plug-In . SVG Version: 6.00 Build 0)  -->
<svg version="1.1" id="Layer_1" xmlns="http://www.w3.org/2000/svg" xmlns:xlink="http://www.w3.org/1999/xlink" x="0px" y="0px"
	 viewBox="0 0 512 512" style="enable-background:new 0 0 512 512;" xml:space="preserve">
<style type="text/css">
	.st0{fill:url(#SVGID_1_);}
	.st1{fill:url(#SVGID_2_);}
</style>
<g>
	<g>
		
			<linearGradient id="SVGID_1_" gradientUnits="userSpaceOnUse" x1="122.6869" y1="96.2375" x2="338.7476" y2="470.4656" gradientTransform="matrix(1 0 0 -1 0 514)">
			<stop  offset="0" style="stop-color:#8DCED2"/>
			<stop  offset="1" style="stop-color:#4CB8EA"/>
		</linearGradient>
		<path class="st0" d="M376,195.5c-1.8-2.8-4.6-4.6-8.4-4.6h-68.9l58.7-126.8c1-2.8,1-6.5-1-9.3c-1.8-2.8-4.6-3.8-7.4-3.8H246.5
			c-5.6,0-9.3,3.8-9.3,9.3s3.8,9.3,9.3,9.3h87.6l-58.7,126.8c-1,2.8-1,6.5,1,9.3c1.8,2.8,4.6,3.8,7.4,3.8h66.1L218.5,406l27.9-129.5
			c1-2.8,0-5.6-1.8-7.4c-1.8-2.8-4.6-3.8-7.4-3.8h-81.1l62.5-202.2c1.8-4.6-1-10.3-6.5-11.2c-4.6-1.8-10.3,1-11.2,6.5l-65.3,214.3
			c-1,1.8-1,4.6,1,7.4c1.8,1.8,4.6,3.8,7.4,3.8h82l-35.4,165.9c-1,4.6,1,8.4,5.6,10.3c1,1,2.8,1,3.8,1c2.8,0,5.6-1.8,7.4-3.8
			l167.8-251.6C376.9,201.9,377.9,199.1,376,195.5z"/>
	</g>
</g>
<g>
	<g>
		
			<linearGradient id="SVGID_2_" gradientUnits="userSpaceOnUse" x1="178.3068" y1="282.0095" x2="230.7594" y2="372.8601" gradientTransform="matrix(1 0 0 -1 0 514)">
			<stop  offset="0" style="stop-color:#8DCED2"/>
			<stop  offset="1" style="stop-color:#4CB8EA"/>
		</linearGradient>
		<path class="st1" d="M221.3,135.8c-4.6-1.8-10.3,1-11.2,5.6l-27.9,83.8c-1.8,4.6,1,10.3,5.6,12.1c1,0,1.8,1,2.8,1
			c3.8,0,7.4-2.8,8.4-6.5l27.9-83.9C228.8,143.3,226,137.6,221.3,135.8z"/>
	</g>
</g>
</svg>
