<?xml version="1.0" encoding="utf-8"?>
<!-- Generator: Adobe Illustrator 21.0.0, SVG Export Plug-In . SVG Version: 6.00 Build 0)  -->
<svg version="1.1" id="Capa_1" xmlns="http://www.w3.org/2000/svg" xmlns:xlink="http://www.w3.org/1999/xlink" x="0px" y="0px"
	 viewBox="0 0 512 512" style="enable-background:new 0 0 512 512;" xml:space="preserve">
<style type="text/css">
	.st0{fill:url(#SVGID_1_);}
	.st1{fill:url(#SVGID_2_);}
	.st2{fill:url(#SVGID_3_);}
	.st3{fill:url(#SVGID_4_);}
	.st4{fill:url(#SVGID_5_);}
	.st5{fill:url(#SVGID_6_);}
	.st6{fill:url(#SVGID_7_);}
</style>
<g>
	<g>
		<linearGradient id="SVGID_1_" gradientUnits="userSpaceOnUse" x1="108.6154" y1="511.2776" x2="403.3846" y2="0.7224">
			<stop  offset="0" style="stop-color:#8DCED2"/>
			<stop  offset="1" style="stop-color:#4CB8EA"/>
		</linearGradient>
		<path class="st0" d="M362,0H150C67.3,0,0,67.3,0,150v212c0,82.7,67.3,150,150,150h212c82.7,0,150-67.3,150-150V150
			C512,67.3,444.7,0,362,0z M492,362c0,71.7-58.3,130-130,130H150c-71.7,0-130-58.3-130-130V150C20,78.3,78.3,20,150,20h212
			c71.7,0,130,58.3,130,130V362z"/>
	</g>
</g>
<g>
	<g>
		<linearGradient id="SVGID_2_" gradientUnits="userSpaceOnUse" x1="130.6109" y1="473.1802" x2="381.389" y2="38.8198">
			<stop  offset="0" style="stop-color:#8DCED2"/>
			<stop  offset="1" style="stop-color:#4CB8EA"/>
		</linearGradient>
		<path class="st1" d="M362,44H150C91.6,44,44,91.6,44,150v212c0,58.4,47.6,106,106,106h61c5.5,0,10-4.5,10-10s-4.5-10-10-10h-61
			c-47.4,0-86-38.6-86-86V150c0-47.4,38.6-86,86-86h212c47.4,0,86,38.6,86,86v212c0,47.4-38.6,86-86,86h-60.3c-5.5,0-10,4.5-10,10
			s4.5,10,10,10H362c58.4,0,106-47.6,106-106V150C468,91.6,420.4,44,362,44z"/>
	</g>
</g>
<g>
	<g>
		<linearGradient id="SVGID_3_" gradientUnits="userSpaceOnUse" x1="251.003" y1="466.6551" x2="260.997" y2="449.3449">
			<stop  offset="0" style="stop-color:#8DCED2"/>
			<stop  offset="1" style="stop-color:#4CB8EA"/>
		</linearGradient>
		<path class="st2" d="M263.1,450.9c-1.9-1.9-4.4-2.9-7.1-2.9s-5.2,1.1-7.1,2.9s-2.9,4.4-2.9,7.1s1.1,5.2,2.9,7.1s4.4,2.9,7.1,2.9
			s5.2-1.1,7.1-2.9c1.9-1.9,2.9-4.4,2.9-7.1S264.9,452.8,263.1,450.9z"/>
	</g>
</g>
<g>
	<g>
		<linearGradient id="SVGID_4_" gradientUnits="userSpaceOnUse" x1="163.1852" y1="171.6429" x2="173.4618" y2="153.8433">
			<stop  offset="0" style="stop-color:#8DCED2"/>
			<stop  offset="1" style="stop-color:#4CB8EA"/>
		</linearGradient>
		<path class="st3" d="M175.8,155.7c-3.8-4-10.1-4.2-14.1-0.5l-0.4,0.4c-4,3.8-4.2,10.1-0.4,14.1c2,2.1,4.6,3.1,7.3,3.1
			c2.5,0,4.9-0.9,6.9-2.7l0.4-0.4C179.4,166.1,179.6,159.7,175.8,155.7z"/>
	</g>
</g>
<g>
	<g>
		<linearGradient id="SVGID_5_" gradientUnits="userSpaceOnUse" x1="186.9937" y1="375.4764" x2="324.9665" y2="136.5006">
			<stop  offset="0" style="stop-color:#8DCED2"/>
			<stop  offset="1" style="stop-color:#4CB8EA"/>
		</linearGradient>
		<path class="st4" d="M256,118c-22,0-43.8,5.3-63.2,15.3c-4.9,2.5-6.8,8.6-4.3,13.5c2.5,4.9,8.6,6.8,13.5,4.3
			c16.8-8.7,35-13.1,54-13.1c65.1,0,118,52.9,118,118s-52.9,118-118,118s-118-52.9-118-118c0-20.4,5.3-40.5,15.3-58.2
			c2.7-4.8,1-10.9-3.8-13.6c-4.8-2.7-10.9-1-13.6,3.8C124.2,208.6,118,232.1,118,256c0,76.1,61.9,138,138,138s138-61.9,138-138
			S332.1,118,256,118z"/>
	</g>
</g>
<g>
	<g>
		<linearGradient id="SVGID_6_" gradientUnits="userSpaceOnUse" x1="211.0089" y1="333.927" x2="300.9911" y2="178.073">
			<stop  offset="0" style="stop-color:#8DCED2"/>
			<stop  offset="1" style="stop-color:#4CB8EA"/>
		</linearGradient>
		<path class="st5" d="M256,166c-49.6,0-90,40.4-90,90s40.4,90,90,90s90-40.4,90-90S305.6,166,256,166z M256,326
			c-38.6,0-70-31.4-70-70s31.4-70,70-70s70,31.4,70,70S294.6,326,256,326z"/>
	</g>
</g>
<g>
	<g>
		<linearGradient id="SVGID_7_" gradientUnits="userSpaceOnUse" x1="368.2538" y1="157.6524" x2="406.2462" y2="91.8476">
			<stop  offset="0" style="stop-color:#8DCED2"/>
			<stop  offset="1" style="stop-color:#4CB8EA"/>
		</linearGradient>
		<path class="st6" d="M387.3,86.8c-21,0-38,17-38,38s17,38,38,38s38-17,38-38S408.2,86.8,387.3,86.8z M387.3,142.8
			c-9.9,0-18-8.1-18-18s8.1-18,18-18s18,8.1,18,18S397.2,142.8,387.3,142.8z"/>
	</g>
</g>
</svg>
