<?xml version="1.0" encoding="utf-8"?>
<!-- Generator: Adobe Illustrator 21.0.0, SVG Export Plug-In . SVG Version: 6.00 Build 0)  -->
<svg version="1.1" id="Layer_1" xmlns="http://www.w3.org/2000/svg" xmlns:xlink="http://www.w3.org/1999/xlink" x="0px" y="0px"
	 viewBox="0 0 512 512" style="enable-background:new 0 0 512 512;" xml:space="preserve">
<style type="text/css">
	.st0{fill:url(#SVGID_1_);}
	.st1{fill:url(#SVGID_2_);}
	.st2{fill:url(#SVGID_3_);}
	.st3{fill:url(#SVGID_4_);}
	.st4{fill:url(#SVGID_5_);}
	.st5{fill:url(#SVGID_6_);}
	.st6{fill:url(#SVGID_7_);}
	.st7{fill:url(#SVGID_8_);}
	.st8{fill:url(#SVGID_9_);}
	.st9{fill:url(#SVGID_10_);}
	.st10{fill:url(#SVGID_11_);}
	.st11{fill:url(#SVGID_12_);}
	.st12{fill:url(#SVGID_13_);}
	.st13{fill:url(#SVGID_14_);}
	.st14{fill:url(#SVGID_15_);}
	.st15{fill:url(#SVGID_16_);}
</style>
<g>
	<g>
		<g>
			<linearGradient id="SVGID_1_" gradientUnits="userSpaceOnUse" x1="330.6515" y1="334.2083" x2="351.9848" y2="297.2579">
				<stop  offset="0" style="stop-color:#8DCED2"/>
				<stop  offset="1" style="stop-color:#4CB8EA"/>
			</linearGradient>
			<path class="st0" d="M375.5,315.7c0-4.7-3.8-8.5-8.5-8.5h-51.2c-4.7,0-8.5,3.8-8.5,8.5s3.8,8.5,8.5,8.5h51.2
				C371.6,324.3,375.5,320.4,375.5,315.7z"/>
			<linearGradient id="SVGID_2_" gradientUnits="userSpaceOnUse" x1="349.606" y1="249.2583" x2="435.429" y2="100.6087">
				<stop  offset="0" style="stop-color:#8DCED2"/>
				<stop  offset="1" style="stop-color:#4CB8EA"/>
			</linearGradient>
			<path class="st1" d="M341.3,93.9V51.2c0-4.7-3.8-8.5-8.5-8.5s-8.5,3.8-8.5,8.5v42.7c0,23.5,19.1,42.7,42.7,42.7h76.8v162.1
				c0,4.7,3.8,8.5,8.5,8.5s8.5-3.8,8.5-8.5V128c0-4.7-3.8-8.5-8.5-8.5h-85.3C352.8,119.5,341.3,108,341.3,93.9z"/>
			<linearGradient id="SVGID_3_" gradientUnits="userSpaceOnUse" x1="319.9835" y1="235.5033" x2="345.5837" y2="191.1624">
				<stop  offset="0" style="stop-color:#8DCED2"/>
				<stop  offset="1" style="stop-color:#4CB8EA"/>
			</linearGradient>
			<path class="st2" d="M366.9,204.8h-68.3c-4.7,0-8.5,3.8-8.5,8.5s3.8,8.5,8.5,8.5h68.3c4.7,0,8.5-3.8,8.5-8.5
				C375.5,208.6,371.6,204.8,366.9,204.8z"/>
			<linearGradient id="SVGID_4_" gradientUnits="userSpaceOnUse" x1="228.2515" y1="231.8083" x2="249.5848" y2="194.8579">
				<stop  offset="0" style="stop-color:#8DCED2"/>
				<stop  offset="1" style="stop-color:#4CB8EA"/>
			</linearGradient>
			<path class="st3" d="M273.1,213.3c0-4.7-3.8-8.5-8.5-8.5h-51.2c-4.7,0-8.5,3.8-8.5,8.5s3.8,8.5,8.5,8.5h51.2
				C269.2,221.9,273.1,218,273.1,213.3z"/>
			<linearGradient id="SVGID_5_" gradientUnits="userSpaceOnUse" x1="215.4505" y1="275.6182" x2="228.2505" y2="253.4478">
				<stop  offset="0" style="stop-color:#8DCED2"/>
				<stop  offset="1" style="stop-color:#4CB8EA"/>
			</linearGradient>
			<path class="st4" d="M213.3,256c-4.7,0-8.5,3.8-8.5,8.5s3.8,8.5,8.5,8.5h17.1c4.7,0,8.5-3.8,8.5-8.5s-3.8-8.5-8.5-8.5L213.3,256
				L213.3,256z"/>
			<linearGradient id="SVGID_6_" gradientUnits="userSpaceOnUse" x1="241.0502" y1="187.9992" x2="270.9168" y2="136.2688">
				<stop  offset="0" style="stop-color:#8DCED2"/>
				<stop  offset="1" style="stop-color:#4CB8EA"/>
			</linearGradient>
			<path class="st5" d="M213.3,170.7h85.3c4.7,0,8.5-3.8,8.5-8.5s-3.8-8.5-8.5-8.5h-85.3c-4.7,0-8.5,3.8-8.5,8.5
				C204.8,166.8,208.6,170.7,213.3,170.7z"/>
			<linearGradient id="SVGID_7_" gradientUnits="userSpaceOnUse" x1="292.2502" y1="290.3992" x2="322.1168" y2="238.6688">
				<stop  offset="0" style="stop-color:#8DCED2"/>
				<stop  offset="1" style="stop-color:#4CB8EA"/>
			</linearGradient>
			<path class="st6" d="M264.5,273.1h85.3c4.7,0,8.5-3.8,8.5-8.5s-3.8-8.5-8.5-8.5h-85.3c-4.7,0-8.5,3.8-8.5,8.5
				S259.8,273.1,264.5,273.1z"/>
			<linearGradient id="SVGID_8_" gradientUnits="userSpaceOnUse" x1="317.8505" y1="378.0182" x2="330.6505" y2="355.8478">
				<stop  offset="0" style="stop-color:#8DCED2"/>
				<stop  offset="1" style="stop-color:#4CB8EA"/>
			</linearGradient>
			<path class="st7" d="M315.7,358.4c-4.7,0-8.5,3.8-8.5,8.5s3.8,8.5,8.5,8.5h17.1c4.7,0,8.5-3.8,8.5-8.5s-3.8-8.5-8.5-8.5H315.7z"
				/>
			<linearGradient id="SVGID_9_" gradientUnits="userSpaceOnUse" x1="234.6505" y1="337.9033" x2="260.2505" y2="293.5627">
				<stop  offset="0" style="stop-color:#8DCED2"/>
				<stop  offset="1" style="stop-color:#4CB8EA"/>
			</linearGradient>
			<path class="st8" d="M281.6,307.2h-68.3c-4.7,0-8.5,3.8-8.5,8.5s3.8,8.5,8.5,8.5h68.3c4.7,0,8.5-3.8,8.5-8.5
				S286.3,307.2,281.6,307.2z"/>
			<linearGradient id="SVGID_10_" gradientUnits="userSpaceOnUse" x1="234.6505" y1="389.1033" x2="260.2505" y2="344.7627">
				<stop  offset="0" style="stop-color:#8DCED2"/>
				<stop  offset="1" style="stop-color:#4CB8EA"/>
			</linearGradient>
			<path class="st9" d="M281.6,358.4h-68.3c-4.7,0-8.5,3.8-8.5,8.5s3.8,8.5,8.5,8.5h68.3c4.7,0,8.5-3.8,8.5-8.5
				S286.3,358.4,281.6,358.4z"/>
			<linearGradient id="SVGID_11_" gradientUnits="userSpaceOnUse" x1="337.7277" y1="526.0283" x2="453.781" y2="325.018">
				<stop  offset="0" style="stop-color:#8DCED2"/>
				<stop  offset="1" style="stop-color:#4CB8EA"/>
			</linearGradient>
			<path class="st10" d="M484.8,351.5l-17.1-17.1c-13.1-13.1-33.1-13.1-46.2,0L309.7,446.2c-1.6,1.6-2.5,3.8-2.5,6v51.2
				c0,4.7,3.8,8.5,8.5,8.5h51.2c2.3,0,4.4-0.9,6-2.5l111.8-111.8C498.3,384.1,498.3,365.1,484.8,351.5z M410.5,369.6l13.5,13.5
				l-74.1,74.1l-13.5-13.5L410.5,369.6z M324.3,494.9v-39.1l39.1,39.1H324.3z M375.5,482.9l-13.5-13.5l74.1-74.1l13.5,13.5
				L375.5,482.9z M472.7,385.6l-11,11l-39.1-39.1l11-11c6.7-6.7,15.3-6.8,22.1,0l17.1,17.1C479.6,370.5,479.6,378.7,472.7,385.6z"/>
			<linearGradient id="SVGID_12_" gradientUnits="userSpaceOnUse" x1="21.8262" y1="496.715" x2="315.2219" y2="-11.4612">
				<stop  offset="0" style="stop-color:#8DCED2"/>
				<stop  offset="1" style="stop-color:#4CB8EA"/>
			</linearGradient>
			<path class="st11" d="M281.6,494.9H59.7c-14.1,0-25.6-11.5-25.6-25.6V42.7c0-14.1,11.5-25.6,25.6-25.6h269.5l82.8,82.8
				c3.3,3.3,8.7,3.3,12.1,0c3.3-3.3,3.3-8.7,0-12.1L338.8,2.5c-1.6-1.6-3.8-2.5-6-2.5H59.7C36.2,0,17.1,19.1,17.1,42.7v426.7
				c0,23.5,19.1,42.7,42.7,42.7h221.9c4.7,0,8.5-3.8,8.5-8.5S286.3,494.9,281.6,494.9z"/>
			<linearGradient id="SVGID_13_" gradientUnits="userSpaceOnUse" x1="234.6505" y1="440.3033" x2="260.2505" y2="395.9627">
				<stop  offset="0" style="stop-color:#8DCED2"/>
				<stop  offset="1" style="stop-color:#4CB8EA"/>
			</linearGradient>
			<path class="st12" d="M281.6,409.6h-68.3c-4.7,0-8.5,3.8-8.5,8.5s3.8,8.5,8.5,8.5h68.3c4.7,0,8.5-3.8,8.5-8.5
				S286.3,409.6,281.6,409.6z"/>
			<linearGradient id="SVGID_14_" gradientUnits="userSpaceOnUse" x1="114.7662" y1="225.4082" x2="158.2698" y2="150.0578">
				<stop  offset="0" style="stop-color:#8DCED2"/>
				<stop  offset="1" style="stop-color:#4CB8EA"/>
			</linearGradient>
			<path class="st13" d="M170.7,162.1c0-4.7-3.8-8.5-8.5-8.5h-51.2c-4.7,0-8.5,3.8-8.5,8.5v51.2c0,4.7,3.8,8.5,8.5,8.5h51.2
				c4.7,0,8.5-3.8,8.5-8.5V162.1z M153.6,204.8h-34.1v-34.1h34.1V204.8z"/>
			<linearGradient id="SVGID_15_" gradientUnits="userSpaceOnUse" x1="114.7652" y1="430.2092" x2="158.2688" y2="354.8588">
				<stop  offset="0" style="stop-color:#8DCED2"/>
				<stop  offset="1" style="stop-color:#4CB8EA"/>
			</linearGradient>
			<path class="st14" d="M110.9,426.7h51.2c4.7,0,8.5-3.8,8.5-8.5v-51.2c0-4.7-3.8-8.5-8.5-8.5h-51.2c-4.7,0-8.5,3.8-8.5,8.5v51.2
				C102.4,422.8,106.2,426.7,110.9,426.7z M119.5,375.5h34.1v34.1h-34.1C119.5,409.6,119.5,375.5,119.5,375.5z"/>
			<linearGradient id="SVGID_16_" gradientUnits="userSpaceOnUse" x1="115.3372" y1="318.283" x2="154.5743" y2="250.3223">
				<stop  offset="0" style="stop-color:#8DCED2"/>
				<stop  offset="1" style="stop-color:#4CB8EA"/>
			</linearGradient>
			<path class="st15" d="M122,321.8c1.6,1.6,3.8,2.5,6,2.5c0.3,0,0.6,0,0.8,0c2.5-0.2,4.8-1.6,6.3-3.8l34.1-51.2
				c2.6-3.9,1.6-9.2-2.4-11.8c-3.9-2.6-9.2-1.6-11.8,2.4l-28.4,42.5l-9.7-9.7c-3.3-3.3-8.7-3.3-12.1,0s-3.3,8.7,0,12.1L122,321.8z"
				/>
		</g>
	</g>
</g>
</svg>
