<?xml version="1.0" encoding="utf-8"?>
<!-- Generator: Adobe Illustrator 21.0.0, SVG Export Plug-In . SVG Version: 6.00 Build 0)  -->
<svg version="1.1" id="Layer_1" xmlns="http://www.w3.org/2000/svg" xmlns:xlink="http://www.w3.org/1999/xlink" x="0px" y="0px"
	 viewBox="0 0 512 512" style="enable-background:new 0 0 512 512;" xml:space="preserve">
<style type="text/css">
	.st0{fill:url(#SVGID_1_);}
	.st1{fill:url(#SVGID_2_);}
	.st2{fill:url(#SVGID_3_);}
	.st3{fill:url(#SVGID_4_);}
	.st4{fill:url(#SVGID_5_);}
	.st5{fill:url(#SVGID_6_);}
	.st6{fill:url(#SVGID_7_);}
	.st7{fill:url(#SVGID_8_);}
	.st8{fill:url(#SVGID_9_);}
	.st9{fill:url(#SVGID_10_);}
	.st10{fill:url(#SVGID_11_);}
	.st11{fill:url(#SVGID_12_);}
	.st12{fill:url(#SVGID_13_);}
	.st13{fill:url(#SVGID_14_);}
	.st14{fill:url(#SVGID_15_);}
	.st15{fill:url(#SVGID_16_);}
</style>
<g>
	<g>
		<g>
			
				<linearGradient id="SVGID_1_" gradientUnits="userSpaceOnUse" x1="318.9981" y1="192.0108" x2="336.9904" y2="223.1744" gradientTransform="matrix(1 0 0 -1 0 514)">
				<stop  offset="0" style="stop-color:#8DCED2"/>
				<stop  offset="1" style="stop-color:#4CB8EA"/>
			</linearGradient>
			<path class="st0" d="M356.8,306.4c0-4-3.2-7.2-7.2-7.2h-43.2c-4,0-7.2,3.2-7.2,7.2c0,4,3.2,7.2,7.2,7.2h43.2
				C353.5,313.6,356.8,310.3,356.8,306.4z"/>
			
				<linearGradient id="SVGID_2_" gradientUnits="userSpaceOnUse" x1="334.9847" y1="263.6814" x2="407.347" y2="389.0164" gradientTransform="matrix(1 0 0 -1 0 514)">
				<stop  offset="0" style="stop-color:#8DCED2"/>
				<stop  offset="1" style="stop-color:#4CB8EA"/>
			</linearGradient>
			<path class="st1" d="M327.9,119.3v-36c0-4-3.2-7.2-7.2-7.2c-4,0-7.2,3.2-7.2,7.2v36c0,19.8,16.1,36,36,36h64.8V292
				c0,4,3.2,7.2,7.2,7.2c4,0,7.2-3.2,7.2-7.2v-144c0-4-3.2-7.2-7.2-7.2h-71.9C337.6,140.9,327.9,131.2,327.9,119.3z"/>
			
				<linearGradient id="SVGID_3_" gradientUnits="userSpaceOnUse" x1="309.9447" y1="275.3223" x2="331.5222" y2="312.6956" gradientTransform="matrix(1 0 0 -1 0 514)">
				<stop  offset="0" style="stop-color:#8DCED2"/>
				<stop  offset="1" style="stop-color:#4CB8EA"/>
			</linearGradient>
			<path class="st2" d="M349.5,212.8h-57.6c-4,0-7.2,3.2-7.2,7.2s3.2,7.2,7.2,7.2h57.6c4,0,7.2-3.2,7.2-7.2
				C356.8,216,353.5,212.8,349.5,212.8z"/>
			
				<linearGradient id="SVGID_4_" gradientUnits="userSpaceOnUse" x1="232.635" y1="278.374" x2="250.6272" y2="309.5376" gradientTransform="matrix(1 0 0 -1 0 514)">
				<stop  offset="0" style="stop-color:#8DCED2"/>
				<stop  offset="1" style="stop-color:#4CB8EA"/>
			</linearGradient>
			<path class="st3" d="M270.4,220c0-4-3.2-7.2-7.2-7.2h-43.2c-4,0-7.2,3.2-7.2,7.2s3.2,7.2,7.2,7.2h43.2
				C267.1,227.2,270.4,224,270.4,220z"/>
			
				<linearGradient id="SVGID_5_" gradientUnits="userSpaceOnUse" x1="221.7896" y1="241.4535" x2="232.585" y2="260.1518" gradientTransform="matrix(1 0 0 -1 0 514)">
				<stop  offset="0" style="stop-color:#8DCED2"/>
				<stop  offset="1" style="stop-color:#4CB8EA"/>
			</linearGradient>
			<path class="st4" d="M220,256c-4,0-7.2,3.2-7.2,7.2c0,4,3.2,7.2,7.2,7.2h14.4c4,0,7.2-3.2,7.2-7.2c0-4-3.2-7.2-7.2-7.2H220
				L220,256z"/>
			
				<linearGradient id="SVGID_6_" gradientUnits="userSpaceOnUse" x1="243.3881" y1="315.329" x2="268.5773" y2="358.9579" gradientTransform="matrix(1 0 0 -1 0 514)">
				<stop  offset="0" style="stop-color:#8DCED2"/>
				<stop  offset="1" style="stop-color:#4CB8EA"/>
			</linearGradient>
			<path class="st5" d="M220,184.1h71.9c4,0,7.2-3.2,7.2-7.2c0-4-3.2-7.2-7.2-7.2H220c-4,0-7.2,3.2-7.2,7.2
				C212.8,180.8,216,184.1,220,184.1z"/>
			
				<linearGradient id="SVGID_7_" gradientUnits="userSpaceOnUse" x1="286.5617" y1="228.9522" x2="311.7509" y2="272.5811" gradientTransform="matrix(1 0 0 -1 0 514)">
				<stop  offset="0" style="stop-color:#8DCED2"/>
				<stop  offset="1" style="stop-color:#4CB8EA"/>
			</linearGradient>
			<path class="st6" d="M263.2,270.4h71.9c4,0,7.2-3.2,7.2-7.2c0-4-3.2-7.2-7.2-7.2h-71.9c-4,0-7.2,3.2-7.2,7.2
				C256,267.2,259.2,270.4,263.2,270.4z"/>
			
				<linearGradient id="SVGID_8_" gradientUnits="userSpaceOnUse" x1="308.1527" y1="155.0904" x2="318.9481" y2="173.7887" gradientTransform="matrix(1 0 0 -1 0 514)">
				<stop  offset="0" style="stop-color:#8DCED2"/>
				<stop  offset="1" style="stop-color:#4CB8EA"/>
			</linearGradient>
			<path class="st7" d="M306.4,342.4c-4,0-7.2,3.2-7.2,7.2c0,4,3.2,7.2,7.2,7.2h14.4c4,0,7.2-3.2,7.2-7.2c0-4-3.2-7.2-7.2-7.2H306.4
				z"/>
			
				<linearGradient id="SVGID_9_" gradientUnits="userSpaceOnUse" x1="238.0036" y1="188.9592" x2="259.5764" y2="226.3244" gradientTransform="matrix(1 0 0 -1 0 514)">
				<stop  offset="0" style="stop-color:#8DCED2"/>
				<stop  offset="1" style="stop-color:#4CB8EA"/>
			</linearGradient>
			<path class="st8" d="M277.6,299.2H220c-4,0-7.2,3.2-7.2,7.2c0,4,3.2,7.2,7.2,7.2h57.6c4,0,7.2-3.2,7.2-7.2
				C284.8,302.4,281.6,299.2,277.6,299.2z"/>
			
				<linearGradient id="SVGID_10_" gradientUnits="userSpaceOnUse" x1="238.0036" y1="145.7776" x2="259.5764" y2="183.1428" gradientTransform="matrix(1 0 0 -1 0 514)">
				<stop  offset="0" style="stop-color:#8DCED2"/>
				<stop  offset="1" style="stop-color:#4CB8EA"/>
			</linearGradient>
			<path class="st9" d="M277.6,342.4H220c-4,0-7.2,3.2-7.2,7.2c0,4,3.2,7.2,7.2,7.2h57.6c4,0,7.2-3.2,7.2-7.2
				C284.8,345.6,281.6,342.4,277.6,342.4z"/>
			
				<linearGradient id="SVGID_11_" gradientUnits="userSpaceOnUse" x1="324.9363" y1="30.326" x2="422.7942" y2="199.821" gradientTransform="matrix(1 0 0 -1 0 514)">
				<stop  offset="0" style="stop-color:#8DCED2"/>
				<stop  offset="1" style="stop-color:#4CB8EA"/>
			</linearGradient>
			<path class="st10" d="M449,336.6l-14.4-14.4c-11-11-27.9-11-39,0l-94.3,94.3c-1.3,1.3-2.1,3.2-2.1,5.1v43.2c0,4,3.2,7.2,7.2,7.2
				h43.2c1.9,0,3.7-0.8,5.1-2.1l94.3-94.3C460.4,364,460.4,348,449,336.6z M386.3,351.8l11.4,11.4l-62.5,62.5l-11.4-11.4
				L386.3,351.8z M313.6,457.5v-33l33,33H313.6z M356.8,447.4L345.4,436l62.5-62.5l11.4,11.4L356.8,447.4z M438.8,365.3l-9.3,9.3
				l-33-33l9.3-9.3c5.7-5.7,12.9-5.7,18.6,0l14.4,14.4C444.6,352.6,444.6,359.5,438.8,365.3z"/>
			
				<linearGradient id="SVGID_12_" gradientUnits="userSpaceOnUse" x1="58.539" y1="54.902" x2="306.0027" y2="483.5216" gradientTransform="matrix(1 0 0 -1 0 514)">
				<stop  offset="0" style="stop-color:#8DCED2"/>
				<stop  offset="1" style="stop-color:#4CB8EA"/>
			</linearGradient>
			<path class="st11" d="M277.6,457.5H90.4c-11.9,0-21.6-9.7-21.6-21.6V76.1c0-11.9,9.7-21.6,21.6-21.6h227.3l69.8,69.8
				c2.8,2.8,7.3,2.8,10.2,0c2.8-2.8,2.8-7.3,0-10.2l-71.9-71.9c-1.3-1.3-3.2-2.1-5.1-2.1H90.4c-19.8,0-35.9,16.1-35.9,36V436
				c0,19.8,16.1,36,36,36h187.1c4,0,7.2-3.2,7.2-7.2C284.8,460.9,281.6,457.5,277.6,457.5z"/>
			
				<linearGradient id="SVGID_13_" gradientUnits="userSpaceOnUse" x1="238.0036" y1="102.5961" x2="259.5764" y2="139.9613" gradientTransform="matrix(1 0 0 -1 0 514)">
				<stop  offset="0" style="stop-color:#8DCED2"/>
				<stop  offset="1" style="stop-color:#4CB8EA"/>
			</linearGradient>
			<path class="st12" d="M277.6,385.6H220c-4,0-7.2,3.2-7.2,7.2c0,4,3.2,7.2,7.2,7.2h57.6c4,0,7.2-3.2,7.2-7.2
				C284.8,388.8,281.6,385.6,277.6,385.6z"/>
			
				<linearGradient id="SVGID_14_" gradientUnits="userSpaceOnUse" x1="136.9256" y1="283.77" x2="173.5912" y2="347.2765" gradientTransform="matrix(1 0 0 -1 0 514)">
				<stop  offset="0" style="stop-color:#8DCED2"/>
				<stop  offset="1" style="stop-color:#4CB8EA"/>
			</linearGradient>
			<path class="st13" d="M184.1,176.8c0-4-3.2-7.2-7.2-7.2h-43.2c-4,0-7.2,3.2-7.2,7.2V220c0,4,3.2,7.2,7.2,7.2h43.2
				c4,0,7.2-3.2,7.2-7.2V176.8z M169.6,212.8h-28.8v-28.8h28.8V212.8z"/>
			
				<linearGradient id="SVGID_15_" gradientUnits="userSpaceOnUse" x1="136.891" y1="111.0455" x2="173.5487" y2="174.5384" gradientTransform="matrix(1 0 0 -1 0 514)">
				<stop  offset="0" style="stop-color:#8DCED2"/>
				<stop  offset="1" style="stop-color:#4CB8EA"/>
			</linearGradient>
			<path class="st14" d="M133.6,400h43.2c4,0,7.2-3.2,7.2-7.2v-43.2c0-4-3.2-7.2-7.2-7.2h-43.2c-4,0-7.2,3.2-7.2,7.2v43.2
				C126.5,396.7,129.7,400,133.6,400z M140.9,356.8h28.8v28.8h-28.8C140.9,385.6,140.9,356.8,140.9,356.8z"/>
			
				<linearGradient id="SVGID_16_" gradientUnits="userSpaceOnUse" x1="137.3437" y1="205.4744" x2="170.4359" y2="262.7917" gradientTransform="matrix(1 0 0 -1 0 514)">
				<stop  offset="0" style="stop-color:#8DCED2"/>
				<stop  offset="1" style="stop-color:#4CB8EA"/>
			</linearGradient>
			<path class="st15" d="M143,311.5c1.3,1.3,3.2,2.1,5.1,2.1c0.3,0,0.5,0,0.7,0c2.1-0.2,4-1.3,5.3-3.2l28.8-43.2
				c2.2-3.3,1.3-7.8-2-10c-3.3-2.2-7.8-1.3-10,2l-24,35.8l-8.2-8.2c-2.8-2.8-7.3-2.8-10.2,0s-2.8,7.3,0,10.2L143,311.5z"/>
		</g>
	</g>
</g>
</svg>
