<?xml version="1.0" encoding="utf-8"?>
<!-- Generator: Adobe Illustrator 21.0.0, SVG Export Plug-In . SVG Version: 6.00 Build 0)  -->
<svg version="1.1" id="Capa_1" xmlns="http://www.w3.org/2000/svg" xmlns:xlink="http://www.w3.org/1999/xlink" x="0px" y="0px"
	 viewBox="0 0 54 54" style="enable-background:new 0 0 54 54;" xml:space="preserve">
<style type="text/css">
	.st0{fill:url(#SVGID_1_);}
	.st1{fill:url(#SVGID_2_);}
</style>
<g>
	<linearGradient id="SVGID_1_" gradientUnits="userSpaceOnUse" x1="17.0531" y1="50.6634" x2="40.1022" y2="10.7411">
		<stop  offset="0" style="stop-color:#8DCED2"/>
		<stop  offset="1" style="stop-color:#4CB8EA"/>
	</linearGradient>
	<path class="st0" d="M39.8,21.5V17c0-6.4-5.8-11.6-12.8-11.6S14.2,10.6,14.2,17v4.5c-2.7,0.5-4.8,2.8-4.8,5.7v15.7
		c0,3.2,2.6,5.8,5.8,5.8h23.7c3.2,0,5.8-2.6,5.8-5.8V27.2C44.7,24.3,42.6,21.9,39.8,21.5z M15.8,17c0-5.5,5-10,11.2-10
		s11.2,4.5,11.2,10v4.4H15.8V17z M43,42.9c0,2.3-1.9,4.2-4.2,4.2H15.1c-2.3,0-4.2-1.9-4.2-4.2V27.2c0-2.3,1.9-4.2,4.2-4.2h23.7
		c2.3,0,4.2,1.9,4.2,4.2V42.9z"/>
	<linearGradient id="SVGID_2_" gradientUnits="userSpaceOnUse" x1="24.3529" y1="38.0047" x2="29.6471" y2="28.8348">
		<stop  offset="0" style="stop-color:#8DCED2"/>
		<stop  offset="1" style="stop-color:#4CB8EA"/>
	</linearGradient>
	<path class="st1" d="M27,27.8c-1.8,0-3.2,1.4-3.2,3.2v4.8c0,1.8,1.4,3.2,3.2,3.2s3.2-1.4,3.2-3.2V31C30.2,29.2,28.8,27.8,27,27.8z
		 M28.6,35.8c0,0.9-0.7,1.6-1.6,1.6s-1.6-0.7-1.6-1.6V31c0-0.9,0.7-1.6,1.6-1.6s1.6,0.7,1.6,1.6V35.8z"/>
</g>
</svg>
