<?xml version="1.0" encoding="utf-8"?>
<!-- Generator: Adobe Illustrator 21.0.0, SVG Export Plug-In . SVG Version: 6.00 Build 0)  -->
<svg version="1.1" id="Capa_1" xmlns="http://www.w3.org/2000/svg" xmlns:xlink="http://www.w3.org/1999/xlink" x="0px" y="0px"
	 viewBox="0 0 512 512" style="enable-background:new 0 0 512 512;" xml:space="preserve">
<style type="text/css">
	.st0{fill:url(#SVGID_1_);}
	.st1{fill:url(#SVGID_2_);}
	.st2{fill:url(#SVGID_3_);}
	.st3{fill:url(#SVGID_4_);}
	.st4{fill:url(#SVGID_5_);}
	.st5{fill:url(#SVGID_6_);}
	.st6{fill:url(#SVGID_7_);}
	.st7{fill:url(#SVGID_8_);}
	.st8{fill:url(#SVGID_9_);}
	.st9{fill:url(#SVGID_10_);}
	.st10{fill:url(#SVGID_11_);}
	.st11{fill:url(#SVGID_12_);}
</style>
<g>
	<g>
		<linearGradient id="SVGID_1_" gradientUnits="userSpaceOnUse" x1="31.1563" y1="520.9954" x2="191.7163" y2="242.8974">
			<stop  offset="0" style="stop-color:#8DCED2"/>
			<stop  offset="1" style="stop-color:#4CB8EA"/>
		</linearGradient>
		<path class="st0" d="M186.8,422.8l-23.8-5.6c-7.3-1.7-12.4-8.1-12.4-15.6v-7.4c18-11.6,29.9-31.8,29.9-54.8v-47c0,0,0,0,0,0v-0.1
			c0-0.1,0-0.1,0-0.1c0-1.4-0.4-2.8-1.2-4c-2.3-3.5-7-4.5-10.5-2.2c-6.3,4.2-21.6,6.7-29.7,6.7c-20,0-39.2-7.1-55.6-20.2l-18.6-20
			c3.5-5.1,7.4-9.4,11.6-13.1c18.8-16,41-15.2,41.2-15.2c14,0.7,27.2,7.1,39.5,18.9c10.9,10.6,19.1,25.6,24.3,44.8
			c1.1,4,5.2,6.4,9.3,5.3c4-1.1,6.4-5.2,5.3-9.3c-5.9-21.9-15.4-39.3-28.3-51.8c-18.6-18-37-22.5-49.2-23.1
			c-0.8,0-16.1-0.7-33.6,7.3c-8-3.8-16.8-5.9-25.7-5.9C26.5,210.6,0,237.2,0,269.8c0,15.5,6,30.2,16.8,41.3
			c9.1,9.3,20.7,15.3,33.4,17.2v11.2c0,23.9,12.9,44.8,32.1,56.1v6c0,7.5-5.1,13.9-12.4,15.6l-23.8,5.6C23.1,428.2,7,448.5,7,472.1
			v30.5c0,4.2,3.4,7.6,7.6,7.6h203.8c4.2,0,7.6-3.4,7.6-7.6v-30.5C225.9,448.5,209.8,428.2,186.8,422.8z M50.2,312.9
			c-20.2-4.1-35-21.8-35-43.1c0-24.3,19.8-44.1,44.1-44.1c3.1,0,6.2,0.3,9.2,1c-0.5,0.4-1.1,0.8-1.6,1.3C60,233.8,54.1,241,49,249.4
			c0,0,0,0,0,0c0,0,0,0,0,0.1c0,0,0,0.1-0.1,0.1c0,0,0,0,0,0c-4.7,7.6-8,15.8-9.8,24.4c-1.6,7.7-2,15.7-1.1,23.5
			c0.2,2.2,1.4,4.1,3.2,5.4c1.3,0.9,2.8,1.4,4.3,1.4c0.6,0,1.2-0.1,1.8-0.2c0.9-0.2,1.9-0.5,2.8-0.8
			C50.2,303.4,50.2,312.9,50.2,312.9z M55.8,285.1c-0.8,0.2-1.6,0.6-2.4,1.1c-0.2,0.1-0.5,0.2-0.7,0.3c0.2-3.1,0.5-6.2,1.2-9.3
			c0.7-3.3,1.6-6.5,2.8-9.6c3.2,3.8,6.6,7.3,10.1,10.6c-4.1,3.1-7.4,5-8.6,5.7C57.4,284.3,56.6,284.7,55.8,285.1z M65.3,339.5v-42.3
			c0,0,0.1,0,0.1,0c2.3-1.2,7.5-4.3,13.4-9.2c18,12.9,38.8,19.9,60.3,19.9c5.4,0,16.5-1.1,26.3-4v35.6c0,27.6-22.5,50-50.1,50
			S65.3,367.1,65.3,339.5z M210.8,495.1L210.8,495.1H22.1v-23c0-16.6,11.3-30.8,27.4-34.6l2.1-0.5c7.5,12.1,18.3,22.1,31.1,28.4
			c1.1,0.5,2.2,0.8,3.4,0.8c2.8,0,5.5-1.5,6.8-4.2c1.9-3.7,0.3-8.3-3.4-10.1c-8.7-4.3-16.3-10.7-22.1-18.6l5.9-1.4
			c14-3.3,23.8-15.5,24.1-29.9c5.7,1.6,11.7,2.5,18,2.5c7,0,13.8-1.1,20.1-3.2v0.2c0,14.6,9.9,27,24.1,30.3l5.9,1.4
			c-11.4,15.5-29.4,24.9-49,24.9c-4.2,0-7.6,3.4-7.6,7.6s3.4,7.6,7.6,7.6c26.7,0,51-13.8,64.8-36.3l2.1,0.5
			c16.2,3.8,27.4,18,27.4,34.6L210.8,495.1L210.8,495.1z"/>
	</g>
</g>
<g>
	<g>
		<linearGradient id="SVGID_2_" gradientUnits="userSpaceOnUse" x1="89.2965" y1="320.4013" x2="95.6835" y2="309.3387">
			<stop  offset="0" style="stop-color:#8DCED2"/>
			<stop  offset="1" style="stop-color:#4CB8EA"/>
		</linearGradient>
		<circle class="st1" cx="92.5" cy="314.9" r="6.4"/>
	</g>
</g>
<g>
	<g>
		<linearGradient id="SVGID_3_" gradientUnits="userSpaceOnUse" x1="132.7165" y1="320.4013" x2="139.1035" y2="309.3387">
			<stop  offset="0" style="stop-color:#8DCED2"/>
			<stop  offset="1" style="stop-color:#4CB8EA"/>
		</linearGradient>
		<circle class="st2" cx="135.9" cy="314.9" r="6.4"/>
	</g>
</g>
<g>
	<g>
		<g>
			<linearGradient id="SVGID_4_" gradientUnits="userSpaceOnUse" x1="107.9918" y1="372.843" x2="121.82" y2="348.8918">
				<stop  offset="0" style="stop-color:#8DCED2"/>
				<stop  offset="1" style="stop-color:#4CB8EA"/>
			</linearGradient>
			<path class="st3" d="M121.8,355.3c-3.7,3.7-9.8,3.7-13.5,0c-2.9-2.9-7.7-2.9-10.6,0c-2.9,2.9-2.9,7.7,0,10.6
				c4.8,4.8,11.1,7.2,17.4,7.2s12.6-2.4,17.4-7.2c2.9-2.9,2.9-7.7,0-10.6C129.5,352.4,124.7,352.4,121.8,355.3z"/>
			<linearGradient id="SVGID_5_" gradientUnits="userSpaceOnUse" x1="375.3533" y1="372.8437" x2="389.1819" y2="348.892">
				<stop  offset="0" style="stop-color:#8DCED2"/>
				<stop  offset="1" style="stop-color:#4CB8EA"/>
			</linearGradient>
			<path class="st4" d="M382.4,373.1c6.3,0,12.6-2.4,17.4-7.2c2.9-2.9,2.9-7.7,0-10.6s-7.7-2.9-10.6,0c-3.7,3.7-9.8,3.7-13.5,0
				c-2.9-2.9-7.7-2.9-10.6,0c-2.9,2.9-2.9,7.7,0,10.6C369.8,370.7,376.1,373.1,382.4,373.1z"/>
			<linearGradient id="SVGID_6_" gradientUnits="userSpaceOnUse" x1="317.2673" y1="543.9318" x2="482.7925" y2="257.2338">
				<stop  offset="0" style="stop-color:#8DCED2"/>
				<stop  offset="1" style="stop-color:#4CB8EA"/>
			</linearGradient>
			<path class="st5" d="M484.7,429.4c-3.7-2-8.3-0.6-10.3,3s-0.6,8.3,3,10.3c12.2,6.6,19.5,17.7,19.5,29.5v23h-31v-9
				c0-4.2-3.4-7.6-7.6-7.6s-7.6,3.4-7.6,7.6v9H314.6v-9c0-4.2-3.4-7.6-7.6-7.6c-4.2,0-7.6,3.4-7.6,7.6v9h-31v-23
				c0-16.5,13.8-30.7,33.7-34.5l28.4-5.6c3.4-0.7,6.6-1.7,9.6-3.2c12.3,9.1,27.2,14.1,42.6,14.1s30.3-5,42.6-14.1
				c2.9,1.4,6.1,2.5,9.6,3.2l19.3,3.8c0.5,0.1,1,0.1,1.5,0.1c3.5,0,6.7-2.5,7.4-6.1c0.8-4.1-1.9-8.1-6-8.9l-19.3-3.8
				c-9.1-1.8-15.7-8.3-15.7-15.6v-11.1c15-11.9,24.7-30.4,24.7-51v-47c0,0,0,0,0,0v-0.1c0-0.1,0-0.1,0-0.1c0-1.4-0.4-2.8-1.2-4
				c-2.3-3.5-7-4.5-10.5-2.2c-6.3,4.2-21.6,6.7-29.7,6.7c-20,0-39.2-7.1-55.6-20.2l-18.6-20c3.5-5.1,7.4-9.4,11.6-13.1
				c18.8-16,41-15.2,41.2-15.2c14,0.7,27.2,7.1,39.5,18.9c10.9,10.6,19.1,25.6,24.3,44.8c1.1,4,5.2,6.4,9.3,5.3
				c4-1.1,6.4-5.2,5.3-9.3c-5.9-21.9-15.4-39.3-28.3-51.8c-18.6-18-37-22.5-49.2-23.1c-1.1-0.1-28.2-1.2-51.7,18.8
				c-6.8,5.7-12.7,12.9-17.8,21.4c0,0,0,0,0,0c0,0,0,0,0,0.1c0,0,0,0.1-0.1,0.1c0,0,0,0,0,0c-4.7,7.5-8,15.8-9.8,24.4
				c-1.6,7.7-2,15.7-1.1,23.5c0.2,2.2,1.4,4.1,3.2,5.4c1.3,0.9,2.8,1.4,4.3,1.4c0.6,0,1.2-0.1,1.8-0.2c0.9-0.2,1.9-0.5,2.8-0.8v36.1
				c0,21.6,10.6,40.9,26.9,52.7v9.4c0,7.2-6.6,13.8-15.7,15.6l-28.4,5.6c-27,5.3-45.9,25.6-45.9,49.4v30.5c0,4.2,3.4,7.6,7.6,7.6
				h243.5c4.2,0,7.6-3.4,7.6-7.6v-30.5C512,454.7,501.8,438.7,484.7,429.4z M382.7,427.9c-10.8,0-21.3-3.1-30.2-8.9
				c3.8-5,6-11,6-17.4v-1.2c7.2,2.7,15,4.3,23.1,4.3c9,0,17.5-1.8,25.3-5.1v2.1c0,6.4,2.2,12.4,6,17.4
				C404,424.8,393.5,427.9,382.7,427.9z M322.1,285.1c-0.9,0.2-1.6,0.6-2.4,1.1c-0.2,0.1-0.5,0.2-0.7,0.3c0.2-3.1,0.5-6.2,1.2-9.3
				c0.7-3.3,1.6-6.5,2.8-9.6c3.2,3.8,6.6,7.3,10.1,10.6c-4.1,3.1-7.4,5-8.6,5.7C323.7,284.3,322.9,284.7,322.1,285.1z M331.5,339.5
				v-42.3c0,0,0.1,0,0.1,0c2.3-1.2,7.5-4.3,13.4-9.2c18,12.9,38.8,19.9,60.3,19.9c5.4,0,16.5-1.1,26.3-4v35.6c0,27.6-22.5,50-50,50
				S331.5,367.1,331.5,339.5z"/>
		</g>
	</g>
</g>
<g>
	<g>
		<linearGradient id="SVGID_7_" gradientUnits="userSpaceOnUse" x1="355.5465" y1="320.4013" x2="361.9335" y2="309.3387">
			<stop  offset="0" style="stop-color:#8DCED2"/>
			<stop  offset="1" style="stop-color:#4CB8EA"/>
		</linearGradient>
		<circle class="st6" cx="358.7" cy="314.9" r="6.4"/>
	</g>
</g>
<g>
	<g>
		<linearGradient id="SVGID_8_" gradientUnits="userSpaceOnUse" x1="398.9665" y1="320.4013" x2="405.3535" y2="309.3387">
			<stop  offset="0" style="stop-color:#8DCED2"/>
			<stop  offset="1" style="stop-color:#4CB8EA"/>
		</linearGradient>
		<circle class="st7" cx="402.2" cy="314.9" r="6.4"/>
	</g>
</g>
<g>
	<g>
		<linearGradient id="SVGID_9_" gradientUnits="userSpaceOnUse" x1="177.9063" y1="232.3296" x2="311.9359" y2="0.1837">
			<stop  offset="0" style="stop-color:#8DCED2"/>
			<stop  offset="1" style="stop-color:#4CB8EA"/>
		</linearGradient>
		<path class="st8" d="M351.6,163.8c20-17.8,31.2-43,31-69.9C382.3,43,340.7,1.8,289.8,1.8c-0.2,0-0.4,0-0.6,0
			c-25,0.2-48.4,10.1-65.8,28c-8.5,8.8-15.1,18.9-19.6,29.9h-40.5c-4.2,0-7.6,3.4-7.6,7.6c0,4.2,3.4,7.6,7.6,7.6h35.9
			c-1.1,4.9-1.7,10-2,15.1h-36.8c-4.2,0-7.6,3.4-7.6,7.6c0,4.2,3.4,7.6,7.6,7.6h37.2c0.6,5.1,1.6,10.2,3,15.1h-37.3
			c-4.2,0-7.6,3.4-7.6,7.6s3.4,7.6,7.6,7.6h43.1c4.4,9,10.3,17.4,17.6,24.7c1.9,1.9,3.9,3.7,5.9,5.4c-9.4,4.3-19.6,6.7-30,6.9
			c-6.7,0.2-13.3-0.5-19.7-2c-2.5-0.6-5.1,0.2-7,2c-10.6,10.3-23.5,14.2-27.8,15.5c-1,0.3-2.1,0.6-3.1,0.9
			c4.4-7.4,7.6-16.1,9.6-26.1c0.5-2.8-0.5-5.6-2.7-7.4c-18.6-15-29.2-37.3-29-61.1c0.3-42.6,35.1-77.1,77.7-77.1c0.2,0,0.4,0,0.5,0
			c4.6,0,9.1,0.5,13.6,1.3c4.1,0.8,8-2,8.8-6.1c0.8-4.1-2-8-6.1-8.8c-5.3-1-10.8-1.5-16.2-1.5c-0.2,0-0.4,0-0.6,0
			c-50.9,0-92.5,41.2-92.8,92.2c-0.2,26.9,11.1,52.1,31,69.9c-1.8,7.1-5,15.7-10.7,22.7c-3,3.7-3.5,8.7-1.2,12.8
			c2,3.7,5.9,5.9,10,5.9c0.5,0,1,0,1.4-0.1c4.8-0.6,9.6-1.6,14.3-3c4.8-1.4,18.5-5.6,31-16.4c6.4,1.2,13,1.7,19.5,1.5
			c15.3-0.4,30.2-4.6,43.5-12.2c13.2,7.6,28.1,11.8,43.5,12.2c6.6,0.2,13.1-0.3,19.5-1.5c12.5,10.8,26.2,14.9,31,16.4
			c4.6,1.4,9.4,2.4,14.3,3c0.5,0.1,1,0.1,1.4,0.1c4.1,0,8-2.2,10-5.9c2.3-4.1,1.8-9.2-1.2-12.8C356.7,179.6,353.4,170.9,351.6,163.8
			z M342.3,187.7c-4.3-1.3-17.3-5.2-27.8-15.5c-1.4-1.4-3.3-2.1-5.3-2.1c-0.6,0-1.1,0.1-1.7,0.2c-6.4,1.5-13,2.2-19.7,2
			c-14-0.4-27.5-4.5-39.2-11.9c-0.4-0.3-0.8-0.5-1.2-0.8c-4.5-3-8.8-6.4-12.7-10.3c-7.1-7.1-12.6-15.4-16.4-24.3
			c-0.1-0.1-0.1-0.3-0.2-0.4c-3.8-8.9-5.8-18.6-6-28.5c-0.4-20.9,7.5-40.7,22.1-55.7c14.6-15,34.2-23.3,55.1-23.5c0.2,0,0.4,0,0.5,0
			c42.6,0,77.4,34.5,77.7,77.1c0.2,23.9-10.4,46.1-29,61.1c-2.2,1.8-3.2,4.6-2.7,7.4c2,10,5.2,18.7,9.6,26.1
			C344.4,188.3,343.3,188,342.3,187.7z"/>
	</g>
</g>
<g>
	<g>
		<linearGradient id="SVGID_10_" gradientUnits="userSpaceOnUse" x1="277.0214" y1="91.0027" x2="305.9785" y2="40.8474">
			<stop  offset="0" style="stop-color:#8DCED2"/>
			<stop  offset="1" style="stop-color:#4CB8EA"/>
		</linearGradient>
		<path class="st9" d="M334.3,58.4h-85.6c-4.2,0-7.6,3.4-7.6,7.6c0,4.2,3.4,7.6,7.6,7.6h85.6c4.2,0,7.6-3.4,7.6-7.6
			S338.5,58.4,334.3,58.4z"/>
	</g>
</g>
<g>
	<g>
		<linearGradient id="SVGID_11_" gradientUnits="userSpaceOnUse" x1="277.0215" y1="121.1985" x2="305.9785" y2="71.0434">
			<stop  offset="0" style="stop-color:#8DCED2"/>
			<stop  offset="1" style="stop-color:#4CB8EA"/>
		</linearGradient>
		<path class="st10" d="M334.3,88.6h-85.6c-4.2,0-7.6,3.4-7.6,7.6c0,4.2,3.4,7.6,7.6,7.6h85.6c4.2,0,7.6-3.4,7.6-7.6
			S338.5,88.6,334.3,88.6z"/>
	</g>
</g>
<g>
	<g>
		<linearGradient id="SVGID_12_" gradientUnits="userSpaceOnUse" x1="261.496" y1="142.4301" x2="280.1029" y2="110.202">
			<stop  offset="0" style="stop-color:#8DCED2"/>
			<stop  offset="1" style="stop-color:#4CB8EA"/>
		</linearGradient>
		<path class="st11" d="M292.9,118.8h-44.2c-4.2,0-7.6,3.4-7.6,7.6c0,4.2,3.4,7.6,7.6,7.6h44.2c4.2,0,7.6-3.4,7.6-7.6
			S297.1,118.8,292.9,118.8z"/>
	</g>
</g>
</svg>
