<?xml version="1.0" encoding="utf-8"?>
<!-- Generator: Adobe Illustrator 21.0.0, SVG Export Plug-In . SVG Version: 6.00 Build 0)  -->
<svg version="1.1" id="Capa_1" xmlns="http://www.w3.org/2000/svg" xmlns:xlink="http://www.w3.org/1999/xlink" x="0px" y="0px"
	 viewBox="0 0 512 512" style="enable-background:new 0 0 512 512;" xml:space="preserve">
<style type="text/css">
	.st0{fill:url(#SVGID_1_);}
	.st1{fill:url(#SVGID_2_);}
	.st2{fill:url(#SVGID_3_);}
	.st3{fill:url(#SVGID_4_);}
	.st4{fill:url(#SVGID_5_);}
	.st5{fill:url(#SVGID_6_);}
	.st6{fill:url(#SVGID_7_);}
	.st7{fill:url(#SVGID_8_);}
	.st8{fill:url(#SVGID_9_);}
	.st9{fill:url(#SVGID_10_);}
</style>
<g>
	<g>
		
			<linearGradient id="SVGID_1_" gradientUnits="userSpaceOnUse" x1="220.0445" y1="162.1282" x2="372.8906" y2="426.8654" gradientTransform="matrix(1 0 0 -1 0 514)">
			<stop  offset="0" style="stop-color:#8DCED2"/>
			<stop  offset="1" style="stop-color:#4CB8EA"/>
		</linearGradient>
		<path class="st0" d="M347.4,77.1c-16.8,0-30.4,13.7-30.4,30.4v5.5L139,184.3c-2.9,1.2-4.8,3.9-4.8,7v106.6c0,3.1,1.9,5.9,4.8,7
			l177.9,71.2v5.5c0,16.8,13.7,30.4,30.4,30.4s30.4-13.7,30.4-30.4V107.5C377.8,90.8,364.1,77.1,347.4,77.1z M362.6,381.6
			c0,8.4-6.9,15.3-15.3,15.3s-15.3-6.9-15.3-15.3V371c0-3.1-1.9-5.9-4.8-7l-177.9-71.2v-96.4l178-71.1c2.9-1.2,4.8-3.9,4.8-7v-10.7
			c0-8.4,6.9-15.3,15.3-15.3s15.3,6.9,15.3,15.3L362.6,381.6L362.6,381.6z"/>
	</g>
</g>
<g>
	<g>
		
			<linearGradient id="SVGID_2_" gradientUnits="userSpaceOnUse" x1="66.4839" y1="211.781" x2="137.1556" y2="334.188" gradientTransform="matrix(1 0 0 -1 0 514)">
			<stop  offset="0" style="stop-color:#8DCED2"/>
			<stop  offset="1" style="stop-color:#4CB8EA"/>
		</linearGradient>
		<path class="st1" d="M141.8,183.6H88.5c-33.6,0-60.9,27.4-60.9,60.9s27.3,60.9,60.9,60.9h53.3c4.2,0,7.6-3.4,7.6-7.6V191.3
			C149.4,187.1,146,183.6,141.8,183.6z M134.2,290.3H88.5c-25.2,0-45.7-20.5-45.7-45.7s20.4-45.7,45.7-45.7h45.7V290.3z"/>
	</g>
</g>
<g>
	<g>
		
			<linearGradient id="SVGID_3_" gradientUnits="userSpaceOnUse" x1="363.7659" y1="226.3424" x2="409.1478" y2="304.946" gradientTransform="matrix(1 0 0 -1 0 514)">
			<stop  offset="0" style="stop-color:#8DCED2"/>
			<stop  offset="1" style="stop-color:#4CB8EA"/>
		</linearGradient>
		<path class="st2" d="M418.3,214.5l-45.7-15.3c-2.3-0.8-4.9-0.4-6.9,1.1c-2,1.4-3.1,3.7-3.1,6.2v76.1c0,2.4,1.2,4.7,3.1,6.2
			c1.3,1,2.9,1.4,4.5,1.4c0.8,0,1.6-0.1,2.4-0.4l45.7-15.3c3.1-1.1,5.2-3.9,5.2-7.2v-45.7C423.5,218.4,421.4,215.6,418.3,214.5z
			 M408.3,261.9l-30.5,10.2V217l30.4,10.2L408.3,261.9L408.3,261.9z"/>
	</g>
</g>
<g>
	<g>
		
			<linearGradient id="SVGID_4_" gradientUnits="userSpaceOnUse" x1="88.5889" y1="90.9767" x2="159.9196" y2="214.5251" gradientTransform="matrix(1 0 0 -1 0 514)">
			<stop  offset="0" style="stop-color:#8DCED2"/>
			<stop  offset="1" style="stop-color:#4CB8EA"/>
		</linearGradient>
		<path class="st3" d="M179.2,393l-7.7-7.7L149.2,296c-0.8-3.4-3.9-5.8-7.4-5.8H80.8c-2.3,0-4.6,1.1-6,2.9c-1.4,1.8-2,4.2-1.4,6.5
			L104,429.1c0.8,3.5,3.9,5.9,7.4,5.9c0.4,0,1-0.1,1.4-0.2l57.2-11.1c0.1,0,0.2,0,0.3-0.1c3.4-0.7,6.4-2.4,8.8-4.8
			c3.5-3.4,5.4-8,5.4-12.8C184.5,401.1,182.7,396.5,179.2,393z M168.3,408.1c-0.4,0.4-0.9,0.6-1.4,0.8l-49.9,9.6l-26.5-113h45.3
			l21.4,85.6c0.4,1.3,1.1,2.6,2,3.6l9.1,9.1c0.8,0.8,0.9,1.7,0.9,2.1C169.3,406.4,169.1,407.2,168.3,408.1z"/>
	</g>
</g>
<g>
	<g>
		
			<linearGradient id="SVGID_5_" gradientUnits="userSpaceOnUse" x1="452.5963" y1="253.8025" x2="470.6247" y2="285.0286" gradientTransform="matrix(1 0 0 -1 0 514)">
			<stop  offset="0" style="stop-color:#8DCED2"/>
			<stop  offset="1" style="stop-color:#4CB8EA"/>
		</linearGradient>
		<rect x="438.7" y="237" class="st4" width="45.7" height="15.3"/>
	</g>
</g>
<g>
	<g>
		
			<linearGradient id="SVGID_6_" gradientUnits="userSpaceOnUse" x1="446.212" y1="329.3846" x2="469.3066" y2="369.3855" gradientTransform="matrix(1 0 0 -1 0 514)">
			<stop  offset="0" style="stop-color:#8DCED2"/>
			<stop  offset="1" style="stop-color:#4CB8EA"/>
		</linearGradient>
		<polygon class="st5" points="434.8,169.5 472.9,146.7 480.7,159.7 442.7,182.6 		"/>
	</g>
</g>
<g>
	<g>
		
			<linearGradient id="SVGID_7_" gradientUnits="userSpaceOnUse" x1="453.8412" y1="182.5447" x2="461.8336" y2="196.3878" gradientTransform="matrix(1 0 0 -1 0 514)">
			<stop  offset="0" style="stop-color:#8DCED2"/>
			<stop  offset="1" style="stop-color:#4CB8EA"/>
		</linearGradient>
		<polygon class="st6" points="434.9,319.6 442.8,306.6 480.8,329.4 472.9,342.5 		"/>
	</g>
</g>
<g>
	<g>
		
			<linearGradient id="SVGID_8_" gradientUnits="userSpaceOnUse" x1="266.6219" y1="169.0864" x2="382.524" y2="369.8348" gradientTransform="matrix(1 0 0 -1 0 514)">
			<stop  offset="0" style="stop-color:#8DCED2"/>
			<stop  offset="1" style="stop-color:#4CB8EA"/>
		</linearGradient>
		<rect x="316.9" y="115.1" class="st7" width="15.3" height="258.9"/>
	</g>
</g>
<g>
	<g>
		
			<linearGradient id="SVGID_9_" gradientUnits="userSpaceOnUse" x1="102.8192" y1="269.9159" x2="119.8092" y2="299.3434" gradientTransform="matrix(1 0 0 -1 0 514)">
			<stop  offset="0" style="stop-color:#8DCED2"/>
			<stop  offset="1" style="stop-color:#4CB8EA"/>
		</linearGradient>
		<rect x="103.7" y="214.2" class="st8" width="15.3" height="30.4"/>
	</g>
</g>
<g>
	<g>
		
			<linearGradient id="SVGID_10_" gradientUnits="userSpaceOnUse" x1="72.3919" y1="269.9159" x2="89.3819" y2="299.3434" gradientTransform="matrix(1 0 0 -1 0 514)">
			<stop  offset="0" style="stop-color:#8DCED2"/>
			<stop  offset="1" style="stop-color:#4CB8EA"/>
		</linearGradient>
		<rect x="73.3" y="214.2" class="st9" width="15.3" height="30.4"/>
	</g>
</g>
</svg>
