<?xml version="1.0" encoding="utf-8"?>
<!-- Generator: Adobe Illustrator 21.0.0, SVG Export Plug-In . SVG Version: 6.00 Build 0)  -->
<svg version="1.1" id="Capa_1" xmlns="http://www.w3.org/2000/svg" xmlns:xlink="http://www.w3.org/1999/xlink" x="0px" y="0px"
	 viewBox="0 0 512 512" style="enable-background:new 0 0 512 512;" xml:space="preserve">
<style type="text/css">
	.st0{fill:url(#SVGID_1_);}
	.st1{fill:url(#SVGID_2_);}
	.st2{fill:url(#SVGID_3_);}
	.st3{fill:url(#SVGID_4_);}
	.st4{fill:url(#SVGID_5_);}
	.st5{fill:url(#SVGID_6_);}
	.st6{fill:url(#SVGID_7_);}
	.st7{fill:url(#SVGID_8_);}
	.st8{fill:url(#SVGID_9_);}
	.st9{fill:url(#SVGID_10_);}
</style>
<g>
	<g>
		<linearGradient id="SVGID_1_" gradientUnits="userSpaceOnUse" x1="215.6746" y1="363.4044" x2="386.9807" y2="66.6935">
			<stop  offset="0" style="stop-color:#8DCED2"/>
			<stop  offset="1" style="stop-color:#4CB8EA"/>
		</linearGradient>
		<path class="st0" d="M358.4,55.5c-18.8,0-34.1,15.3-34.1,34.1v6.2l-199.4,79.8c-3.2,1.3-5.4,4.4-5.4,7.9v119.5
			c0,3.5,2.1,6.6,5.4,7.9l199.4,79.8v6.2c0,18.8,15.3,34.1,34.1,34.1s34.1-15.3,34.1-34.1V89.6C392.5,70.8,377.2,55.5,358.4,55.5z
			 M375.5,396.8c0,9.4-7.7,17.1-17.1,17.1s-17.1-7.7-17.1-17.1v-11.9c0-3.5-2.1-6.6-5.4-7.9l-199.4-79.8V189.2L336,109.5
			c3.2-1.3,5.4-4.4,5.4-7.9V89.6c0-9.4,7.7-17.1,17.1-17.1s17.1,7.7,17.1,17.1V396.8z"/>
	</g>
</g>
<g>
	<g>
		<linearGradient id="SVGID_2_" gradientUnits="userSpaceOnUse" x1="43.6147" y1="307.7787" x2="122.8066" y2="170.6142">
			<stop  offset="0" style="stop-color:#8DCED2"/>
			<stop  offset="1" style="stop-color:#4CB8EA"/>
		</linearGradient>
		<path class="st1" d="M128,174.9H68.3C30.6,174.9,0,205.6,0,243.2s30.6,68.3,68.3,68.3H128c4.7,0,8.5-3.8,8.5-8.5V183.5
			C136.5,178.8,132.7,174.9,128,174.9z M119.5,294.4H68.3c-28.2,0-51.2-23-51.2-51.2S40,192,68.3,192h51.2
			C119.5,192,119.5,294.4,119.5,294.4z"/>
	</g>
</g>
<g>
	<g>
		<linearGradient id="SVGID_3_" gradientUnits="userSpaceOnUse" x1="376.7614" y1="291.5468" x2="427.6581" y2="203.3912">
			<stop  offset="0" style="stop-color:#8DCED2"/>
			<stop  offset="1" style="stop-color:#4CB8EA"/>
		</linearGradient>
		<path class="st2" d="M437.9,209.5l-51.2-17.1c-2.6-0.9-5.5-0.4-7.7,1.2c-2.2,1.6-3.5,4.2-3.5,6.9v85.3c0,2.7,1.3,5.3,3.5,6.9
			c1.5,1.1,3.2,1.6,5,1.6c0.9,0,1.8-0.1,2.7-0.4l51.2-17.1c3.5-1.2,5.8-4.4,5.8-8.1v-51.2C443.7,213.9,441.4,210.7,437.9,209.5z
			 M426.7,262.6L392.5,274v-61.7l34.1,11.4V262.6z"/>
	</g>
</g>
<g>
	<g>
		<linearGradient id="SVGID_4_" gradientUnits="userSpaceOnUse" x1="68.4169" y1="443.1596" x2="148.2987" y2="304.8003">
			<stop  offset="0" style="stop-color:#8DCED2"/>
			<stop  offset="1" style="stop-color:#4CB8EA"/>
		</linearGradient>
		<path class="st3" d="M169.9,409.5l-8.6-8.6l-25-100.1c-0.9-3.8-4.4-6.5-8.3-6.5H59.7c-2.6,0-5.1,1.2-6.7,3.2
			c-1.6,2-2.2,4.7-1.6,7.3L85.6,450c0.9,3.9,4.4,6.6,8.3,6.6c0.5,0,1.1-0.1,1.6-0.2l64.1-12.4c0.1,0,0.2,0,0.3-0.1
			c3.8-0.8,7.2-2.7,9.9-5.4c3.9-3.8,6.1-9,6.1-14.4C175.9,418.6,173.8,413.5,169.9,409.5z M157.7,426.4c-0.4,0.4-1,0.7-1.6,0.9
			l-55.9,10.8L70.5,311.5h50.8l24,95.9c0.4,1.5,1.2,2.9,2.2,4l10.2,10.2c0.9,0.9,1,1.9,1,2.4C158.8,424.5,158.6,425.5,157.7,426.4z"
			/>
	</g>
</g>
<g>
	<g>
		<linearGradient id="SVGID_5_" gradientUnits="userSpaceOnUse" x1="476.3049" y1="260.6858" x2="496.4951" y2="225.7153">
			<stop  offset="0" style="stop-color:#8DCED2"/>
			<stop  offset="1" style="stop-color:#4CB8EA"/>
		</linearGradient>
		<rect x="460.8" y="234.7" class="st4" width="51.2" height="17.1"/>
	</g>
</g>
<g>
	<g>
		<linearGradient id="SVGID_6_" gradientUnits="userSpaceOnUse" x1="469.1679" y1="176.0442" x2="495.0611" y2="131.196">
			<stop  offset="0" style="stop-color:#8DCED2"/>
			<stop  offset="1" style="stop-color:#4CB8EA"/>
		</linearGradient>
		<polygon class="st5" points="456.4,159.1 499.1,133.5 507.8,148.1 465.2,173.7 		"/>
	</g>
</g>
<g>
	<g>
		<linearGradient id="SVGID_7_" gradientUnits="userSpaceOnUse" x1="477.718" y1="340.5475" x2="486.6688" y2="325.0443">
			<stop  offset="0" style="stop-color:#8DCED2"/>
			<stop  offset="1" style="stop-color:#4CB8EA"/>
		</linearGradient>
		<polygon class="st6" points="456.5,327.3 465.3,312.7 507.9,338.3 499.1,352.9 		"/>
	</g>
</g>
<g>
	<g>
		<linearGradient id="SVGID_8_" gradientUnits="userSpaceOnUse" x1="267.8515" y1="355.6945" x2="397.7495" y2="130.7045">
			<stop  offset="0" style="stop-color:#8DCED2"/>
			<stop  offset="1" style="stop-color:#4CB8EA"/>
		</linearGradient>
		<rect x="324.3" y="98.1" class="st7" width="17.1" height="290.1"/>
	</g>
</g>
<g>
	<g>
		<linearGradient id="SVGID_9_" gradientUnits="userSpaceOnUse" x1="84.3431" y1="242.6285" x2="103.3899" y2="209.6385">
			<stop  offset="0" style="stop-color:#8DCED2"/>
			<stop  offset="1" style="stop-color:#4CB8EA"/>
		</linearGradient>
		<rect x="85.3" y="209.1" class="st8" width="17.1" height="34.1"/>
	</g>
</g>
<g>
	<g>
		<linearGradient id="SVGID_10_" gradientUnits="userSpaceOnUse" x1="50.2101" y1="242.6285" x2="69.2569" y2="209.6385">
			<stop  offset="0" style="stop-color:#8DCED2"/>
			<stop  offset="1" style="stop-color:#4CB8EA"/>
		</linearGradient>
		<rect x="51.2" y="209.1" class="st9" width="17.1" height="34.1"/>
	</g>
</g>
</svg>
