<?xml version="1.0" encoding="utf-8"?>
<!-- Generator: Adobe Illustrator 22.0.1, SVG Export Plug-In . SVG Version: 6.00 Build 0)  -->
<svg version="1.1" id="Capa_1" xmlns="http://www.w3.org/2000/svg" xmlns:xlink="http://www.w3.org/1999/xlink" x="0px" y="0px"
	 viewBox="0 0 496 496" style="enable-background:new 0 0 496 496;" xml:space="preserve">
<style type="text/css">
	.st0{fill:#111339;}
</style>
<g>
	<g>
		<g>
			<path class="st0" d="M435,272c0-39.7-32.3-72-72-72s-72,32.3-72,72s32.3,72,72,72S435,311.7,435,272z M363,328
				c-30.9,0-56-25.1-56-56s25.1-56,56-56s56,25.1,56,56S393.9,328,363,328z"/>
			<path class="st0" d="M445.5,349.7c9.1-3.2,16.7-9.4,21.5-17.7c4.9-8.5,6.5-18.5,4.5-28.1c-0.4-1.8,0.2-4,1.4-5.4
				c6.5-7.3,10.1-16.8,10.1-26.6c0-9.8-3.6-19.2-10.1-26.6c-1.3-1.4-1.8-3.5-1.4-5.4c2-9.6,0.4-19.6-4.5-28.1s-12.7-14.9-22.1-17.9
				c-1.8-0.6-3.3-2.1-3.9-3.9c-3.1-9.3-9.4-17.2-17.9-22.1c-8.5-4.9-18.5-6.5-28.1-4.5c-1.8,0.4-4-0.2-5.4-1.4
				c-14.6-13.1-38.5-13.1-53.1,0c-1.4,1.3-3.5,1.8-5.4,1.4c-9.6-2-19.6-0.4-28.1,4.5c-8.5,4.9-14.9,12.7-17.9,22.1
				c-0.6,1.8-2.1,3.3-3.9,3.9c-9.3,3.1-17.2,9.4-22.1,17.9c-4.9,8.5-6.5,18.5-4.5,28.1c0.4,1.8-0.2,4-1.4,5.4
				c-6.5,7.3-10.1,16.8-10.1,26.6c0,9.8,3.6,19.2,10.1,26.6c1.3,1.4,1.8,3.5,1.4,5.4c-2,9.6-0.4,19.6,4.5,28.1
				c4.8,8.3,12.4,14.5,21.5,17.7L239.7,464h20.9l33.6-13.4l15.1,45.4h19.7L361,391.8c0.7,0,1.4,0.2,2,0.2s1.4-0.2,2-0.2l32,104.2
				h19.7l15.1-45.4l33.6,13.4h20.9L445.5,349.7z M318.9,474.3l-15-44.8l-40.7,16.3l28.5-79.6c3.1,3.9,6.9,7.3,11.3,9.8
				c8.5,4.9,18.5,6.5,28.1,4.5c1.8-0.4,4,0.2,5.4,1.4c2.7,2.4,5.8,4.3,9,5.9L318.9,474.3z M347.1,369.9c-4.1-3.6-9.4-5.6-14.8-5.6
				c-1.5,0-3,0.2-4.5,0.5c-5.8,1.2-11.7,0.2-16.8-2.7c-5.1-2.9-8.9-7.6-10.7-13.2c-2.2-6.6-7.5-11.9-14.1-14.1
				c-5.6-1.8-10.3-5.7-13.2-10.7c-2.9-5.1-3.9-11.1-2.7-16.8c1.4-6.8-0.5-14-5.2-19.3c-3.9-4.4-6.1-10-6.1-15.9s2.2-11.5,6.1-15.9
				c4.7-5.2,6.6-12.4,5.2-19.3c-1.2-5.8-0.2-11.7,2.7-16.8s7.6-8.9,13.2-10.7c6.6-2.2,11.9-7.5,14.1-14.1
				c1.8-5.6,5.7-10.3,10.7-13.2c5.1-2.9,11.1-3.9,16.8-2.7c6.9,1.4,14-0.5,19.3-5.2c8.8-7.8,23.1-7.8,31.8,0
				c5.2,4.7,12.4,6.6,19.3,5.2c5.8-1.2,11.7-0.2,16.8,2.7s8.9,7.6,10.7,13.2c2.2,6.6,7.5,11.9,14.1,14.1c5.6,1.8,10.3,5.7,13.2,10.7
				c2.9,5.1,3.9,11.1,2.7,16.8c-1.4,6.8,0.5,14,5.2,19.3c3.9,4.4,6.1,10,6.1,15.9s-2.2,11.5-6.1,15.9c-4.7,5.2-6.6,12.4-5.2,19.3
				c1.2,5.8,0.2,11.7-2.7,16.8s-7.6,8.9-13.2,10.7c-6.6,2.2-11.9,7.5-14.1,14.1c-1.8,5.6-5.7,10.3-10.7,13.2
				c-5.1,2.9-11.1,3.9-16.8,2.7c-6.8-1.4-14,0.5-19.3,5.2C370.2,377.8,355.9,377.8,347.1,369.9z M422.1,429.4l-15,44.8l-26.6-86.5
				c3.2-1.6,6.3-3.5,9-5.9c1.4-1.3,3.5-1.8,5.4-1.4c9.6,2,19.6,0.4,28.1-4.5c4.4-2.6,8.2-5.9,11.3-9.8l28.5,79.6L422.1,429.4z"/>
			<polygon class="st0" points="339,256 355,256 355,312 371,312 371,240 339,240 			"/>
			<path class="st0" d="M243,344h-33.4l-14.2-70.9l1.8-3.6l8,8l21.8-43.6V216h-16v14.1l-10.2,20.4L182.4,232h-22.6l-18.5,18.5
				L131,230.1V216h-16v9.9l-42.6,11.6c-27,7.4-47.5,30-52.1,57.6L9.6,360H243L243,344L243,344z M132.5,344H84.3l6.7-46.9l-15.8-2.3
				l-7,49.1H28.5l7.7-46.2c3.6-21.5,19.5-39.1,40.5-44.8l42.1-11.5l18,36.1l8-8l1.8,3.6L132.5,344z M148.8,344l14.6-73.1l-6.6-13.3
				l9.6-9.6h9.4l9.6,9.6l-6.6,13.3l14.6,73.1H148.8z"/>
			<path class="st0" d="M93.1,158.7c1.9,6.1,5.1,11.7,9.7,16.3l33.9,33.9c4.5,4.5,10.6,7,17,7h34.7c6.4,0,12.4-2.5,17-7l33.9-33.9
				c4.4-4.4,7.6-9.8,9.5-15.6c14.9-2.7,26.2-15.8,26.2-31.4c0-11.8-6.5-22-16-27.6V64c0-16-11.7-29.2-27-31.6
				C220.2,12.3,198.8,0,175.3,0H171c-48.5,0-88,39.5-88,88v14.2c-8.8,5.5-14.7,15.1-14.7,26.2C68.4,143.3,79,155.8,93.1,158.7z
				 M251,114.2c4.8,2.8,8,7.9,8,13.8c0,5.9-3.2,11-8,13.8V114.2z M235.1,146.8c0,6.3-2.6,12.5-7,17l-33.9,33.9
				c-1.5,1.5-3.5,2.3-5.7,2.3h-34.7c-2.1,0-4.2-0.8-5.7-2.3l-33.9-33.9c-4.5-4.5-7-10.6-7-17V112h29.5c19.2,0,37.3-7.5,50.9-21.1
				l6.7-6.7c10.2,13.2,24.8,22.3,40.9,26V146.8z M99,88c0-39.7,32.3-72,72-72h4.2c19,0,36.1,10.6,44.6,27.6l2.2,4.4h4.9
				c8.8,0,16,7.2,16,16v31.4c-14.5-2.1-27.9-9.9-36.8-21.8l-10.3-13.8l-19.8,19.8C165.6,90.2,151.5,96,136.5,96H99V88z M91,116v24.8
				c-4-2.7-6.7-7.2-6.7-12.4C84.4,123.2,87,118.7,91,116z"/>
		</g>
	</g>
</g>
</svg>
