<?xml version="1.0" encoding="utf-8"?>
<!-- Generator: Adobe Illustrator 21.0.0, SVG Export Plug-In . SVG Version: 6.00 Build 0)  -->
<svg version="1.1" id="Capa_1" xmlns="http://www.w3.org/2000/svg" xmlns:xlink="http://www.w3.org/1999/xlink" x="0px" y="0px"
	 viewBox="0 0 512 512" style="enable-background:new 0 0 512 512;" xml:space="preserve">
<style type="text/css">
	.st0{fill:url(#SVGID_1_);}
	.st1{fill:url(#SVGID_2_);}
	.st2{fill:url(#SVGID_3_);}
	.st3{fill:url(#SVGID_4_);}
	.st4{fill:url(#SVGID_5_);}
</style>
<g>
	<g>
		
			<linearGradient id="SVGID_1_" gradientUnits="userSpaceOnUse" x1="223.5105" y1="361.8209" x2="231.7401" y2="376.0751" gradientTransform="matrix(1 0 0 -1 0 514)">
			<stop  offset="0" style="stop-color:#8DCED2"/>
			<stop  offset="1" style="stop-color:#4CB8EA"/>
		</linearGradient>
		<circle class="st0" cx="227.6" cy="145.1" r="8.2"/>
	</g>
</g>
<g>
	<g>
		
			<linearGradient id="SVGID_2_" gradientUnits="userSpaceOnUse" x1="279.4918" y1="361.7964" x2="287.7214" y2="376.0506" gradientTransform="matrix(1 0 0 -1 0 514)">
			<stop  offset="0" style="stop-color:#8DCED2"/>
			<stop  offset="1" style="stop-color:#4CB8EA"/>
		</linearGradient>
		<circle class="st1" cx="283.6" cy="145.1" r="8.2"/>
	</g>
</g>
<g>
	<g>
		
			<linearGradient id="SVGID_3_" gradientUnits="userSpaceOnUse" x1="245.3239" y1="76.6639" x2="270.1168" y2="119.6063" gradientTransform="matrix(1 0 0 -1 0 514)">
			<stop  offset="0" style="stop-color:#8DCED2"/>
			<stop  offset="1" style="stop-color:#4CB8EA"/>
		</linearGradient>
		<path class="st2" d="M257.7,391c-13.7,0-24.8,11.1-24.8,24.8c0,13.8,11.1,24.8,24.8,24.8c13.7,0,24.8-11.1,24.8-24.8
			C282.5,402.2,271.4,391,257.7,391z M257.7,426.2c-5.7,0-10.3-4.7-10.3-10.3c0-5.7,4.7-10.3,10.3-10.3c5.7,0,10.3,4.7,10.3,10.3
			C268,421.6,263.4,426.2,257.7,426.2z"/>
	</g>
</g>
<g>
	<g>
		
			<linearGradient id="SVGID_4_" gradientUnits="userSpaceOnUse" x1="129.4649" y1="-9.8057" x2="388.89" y2="439.5317" gradientTransform="matrix(1 0 0 -1 0 514)">
			<stop  offset="0" style="stop-color:#8DCED2"/>
			<stop  offset="1" style="stop-color:#4CB8EA"/>
		</linearGradient>
		<path class="st3" d="M420.7,486.2H397v-16.5c0-4-3.2-7.3-7.3-7.3c-4,0-7.3,3.2-7.3,7.3v16.5h-15c0.6-1.8,0.9-3.8,0.9-5.8v-126
			c0-12.8-10.4-23.2-23.2-23.2h-34.2c12-7.9,22.3-18.6,29.8-31.4l4.5,1.1c22,5.2,37.3,24.5,37.3,47v87.8c0,4,3.2,7.3,7.3,7.3
			s7.3-3.2,7.3-7.3v-87.8c0-29.3-20-54.5-48.4-61.1l-30.7-7.2c-10.5-2.5-17.9-11.8-17.9-22.6v-10.9c8-5,15.2-11.4,21-18.8
			c17.5-0.2,31.7-14.3,32.1-31.8c8.5-2.6,14.6-10.5,14.6-19.9v-40.2c0-9.7-6.8-18-15.9-20.2c0.5,0,1.1-0.1,1.6-0.2
			c3.8-1.1,6.1-5,5.1-8.9c-7.5-27.7-19.6-49.8-35.8-65.6c-18.7-18.2-39.6-27.9-61.7-29c-1.1-0.1-20.8-0.9-43.2,9.7
			c-10.2-5.2-21.6-7.8-33.2-7.8c-40.7,0-73.8,33.1-73.8,73.8c0,25.9,13.5,49.6,35.4,63v25.5c0,11.5,9.3,20.7,20.7,20.7h10.9
			c5.4,22,19.8,40.4,39,51.4v9.2c0,10.8-7.4,20.1-17.9,22.6l-30.7,7.2c-28.6,6.7-48.4,31.8-48.4,61.1v138.5H91.3
			c-4,0-7.3,3.2-7.3,7.3c0,4,3.2,7.3,7.3,7.3h35.9h40h180.9h41.7h31c4,0,7.3-3.2,7.3-7.3C428,489.3,424.8,486.2,420.7,486.2z
			 M332.1,208.7c1.7-4,3.1-8.1,4.1-12.4h2.5C338.2,201.2,335.7,205.7,332.1,208.7z M353.4,135.3v40.2c0,3.4-2.9,6.3-6.3,6.3h-8.5
			v-5.1V129h8.5C350.5,129,353.4,131.8,353.4,135.3z M146.6,132.4c-13.3-11.1-21.1-27.6-21.1-45.4c0-32.7,26.6-59.2,59.2-59.2
			c5.9,0,11.8,0.9,17.4,2.6c-2,1.4-4,3.1-6,4.8c-3.1,2.6-3.4,7.2-0.9,10.2s7.2,3.4,10.2,0.9C230.5,24.9,260,26,260.2,26
			c18.6,1,36.3,9.4,52.5,25c14.4,14,25.1,33.7,31.9,59c0.6,2.3,2.3,4,4.3,4.8c-0.7-0.1-1.3-0.1-1.9-0.1h-8.7
			c-0.8-3.2-3.6-5.6-7.1-5.6c-1.4,0-2.8,0.4-3.9,1.1c0,0,0,0-0.1,0c-8.5,5.6-28.9,9.1-39.7,9.1c-26.4,0-51.8-9.5-73.4-26.7
			l-25.4-27.4c0.4-0.7,0.9-1.2,1.2-1.9c2.3-3.2,1.4-7.7-1.8-10c-3.2-2.3-7.7-1.4-10,1.8c-1.5,2.3-3.1,4.7-4.6,7.1l0,0l0,0
			c0,0,0,0.1-0.1,0.1l0,0c-5.9,9.5-10,19.9-12.3,30.8c-1.5,7.5-2.2,15.3-1.9,23C152.7,118.7,147.6,124.9,146.6,132.4z M175.6,176.8
			v5.1h-8.5c-3.4,0-6.3-2.9-6.3-6.3v-27.6c0.4-1.2,0.4-2.6,0-3.8v-8.8c0-3.4,2.9-6.3,6.3-6.3h8.5V176.8z M181.3,109
			c-1,0.2-1.9,0.7-2.7,1.2c-1.5,0.7-3.2,1.3-4.8,1.9c0-5.4,0.6-10.9,1.6-16.2c1.1-5.7,3-11.3,5.4-16.6c5.4,6.8,11.4,13,17.6,18.6
			c-6.1,5.1-11.5,8.1-13.9,9.4C183.6,107.9,182.4,108.5,181.3,109z M190.1,176.8v-55v-1c0.5-0.3,1-0.5,1.4-0.8
			c3.1-1.6,10.3-5.8,18.3-12.8c23.1,17,50,26.3,77.9,26.3c9,0,24.3-2,36.4-6.2v49.4c0,13.2-3.8,25.5-10.5,35.9h-48.8
			c-4,0-7.3,3.2-7.3,7.3c0,4,3.2,7.3,7.3,7.3h36.4c-11.8,10.3-27.2,16.6-44.1,16.6C220.2,243.8,190.1,213.8,190.1,176.8z
			 M202.4,293.6c17.1-4,29-19.1,29-36.7v-2.8c8,2.7,16.7,4.1,25.6,4.1c10,0,19.6-1.8,28.5-5.2v3.7c0,17.6,11.9,32.7,29,36.7
			l11.3,2.7c-11.6,17.5-29.4,29.8-50.2,34.3c-0.6,0.1-1.1,0.4-1.7,0.6h-31c-0.6-0.3-1.1-0.5-1.7-0.6c-20.7-4.5-38.6-16.8-50.2-34.3
			L202.4,293.6z M353.9,480.4c0,3.2-2.6,5.8-5.8,5.8H167.2c-3.2,0-5.8-2.6-5.8-5.8v-90.6c0-4-3.2-7.3-7.3-7.3s-7.3,3.2-7.3,7.3v90.6
			c0,2,0.3,4,0.9,5.8h-13.4V347.7c0-22.6,15.3-41.9,37.3-47l4.5-1.1c7.5,12.8,17.7,23.5,29.8,31.4h-35.8
			c-12.8,0-23.2,10.4-23.2,23.2v8.3c0,4,3.2,7.3,7.3,7.3s7.3-3.2,7.3-7.3v-8.3c0-4.9,3.9-8.8,8.8-8.8h174.9c4.9,0,8.8,3.9,8.8,8.8
			L353.9,480.4L353.9,480.4z"/>
	</g>
</g>
<g>
	<g>
		
			<linearGradient id="SVGID_5_" gradientUnits="userSpaceOnUse" x1="248.7071" y1="307.3214" x2="265.5439" y2="336.4835" gradientTransform="matrix(1 0 0 -1 0 514)">
			<stop  offset="0" style="stop-color:#8DCED2"/>
			<stop  offset="1" style="stop-color:#4CB8EA"/>
		</linearGradient>
		<path class="st4" d="M280.8,186.6c-2.8-2.8-7.4-2.8-10.1,0c-3.5,3.5-8.3,5.5-13.4,5.5s-9.8-2-13.4-5.5c-2.8-2.8-7.4-2.8-10.1,0
			c-2.8,2.8-2.8,7.4,0,10.1c6.3,6.3,14.6,9.7,23.5,9.7c8.9,0,17.2-3.4,23.5-9.7C283.7,194,283.7,189.5,280.8,186.6z"/>
	</g>
</g>
</svg>
