<?xml version="1.0" encoding="utf-8"?>
<!-- Generator: Adobe Illustrator 21.0.0, SVG Export Plug-In . SVG Version: 6.00 Build 0)  -->
<svg version="1.1" id="Capa_1" xmlns="http://www.w3.org/2000/svg" xmlns:xlink="http://www.w3.org/1999/xlink" x="0px" y="0px"
	 viewBox="0 0 512 512" style="enable-background:new 0 0 512 512;" xml:space="preserve">
<style type="text/css">
	.st0{fill:url(#SVGID_1_);}
	.st1{fill:url(#SVGID_2_);}
	.st2{fill:url(#SVGID_3_);}
	.st3{fill:url(#SVGID_4_);}
	.st4{fill:url(#SVGID_5_);}
</style>
<g>
	<g>
		<linearGradient id="SVGID_1_" gradientUnits="userSpaceOnUse" x1="222.0238" y1="147.3686" x2="230.6362" y2="132.4514">
			<stop  offset="0" style="stop-color:#8DCED2"/>
			<stop  offset="1" style="stop-color:#4CB8EA"/>
		</linearGradient>
		<circle class="st0" cx="226.3" cy="139.9" r="8.6"/>
	</g>
</g>
<g>
	<g>
		<linearGradient id="SVGID_2_" gradientUnits="userSpaceOnUse" x1="280.5738" y1="147.3686" x2="289.1862" y2="132.4514">
			<stop  offset="0" style="stop-color:#8DCED2"/>
			<stop  offset="1" style="stop-color:#4CB8EA"/>
		</linearGradient>
		<circle class="st1" cx="284.9" cy="139.9" r="8.6"/>
	</g>
</g>
<g>
	<g>
		<linearGradient id="SVGID_3_" gradientUnits="userSpaceOnUse" x1="244.8029" y1="445.755" x2="270.7489" y2="400.8153">
			<stop  offset="0" style="stop-color:#8DCED2"/>
			<stop  offset="1" style="stop-color:#4CB8EA"/>
		</linearGradient>
		<path class="st2" d="M257.8,397.3c-14.3,0-26,11.6-26,26s11.6,26,26,26c14.3,0,26-11.6,26-26C283.7,409,272.1,397.3,257.8,397.3z
			 M257.8,434.1c-6,0-10.8-4.9-10.8-10.8c0-6,4.9-10.8,10.8-10.8c6,0,10.8,4.9,10.8,10.8C268.6,429.3,263.7,434.1,257.8,434.1z"/>
	</g>
</g>
<g>
	<g>
		<linearGradient id="SVGID_4_" gradientUnits="userSpaceOnUse" x1="123.5845" y1="536.2438" x2="395.0849" y2="65.9913">
			<stop  offset="0" style="stop-color:#8DCED2"/>
			<stop  offset="1" style="stop-color:#4CB8EA"/>
		</linearGradient>
		<path class="st3" d="M428.4,496.9h-24.8v-17.3c0-4.2-3.4-7.6-7.6-7.6s-7.6,3.4-7.6,7.6v17.3h-15.7c0.6-1.9,0.9-4,0.9-6.1V358.9
			c0-13.4-10.9-24.3-24.3-24.3h-35.8c12.6-8.3,23.3-19.5,31.2-32.9l4.7,1.1c23,5.4,39,25.6,39,49.2v91.9c0,4.2,3.4,7.6,7.6,7.6
			s7.6-3.4,7.6-7.6V352c0-30.7-20.9-57-50.7-63.9l-32.1-7.5c-11-2.6-18.7-12.3-18.7-23.6v-11.4c8.4-5.2,15.9-11.9,22-19.7
			c18.3-0.2,33.2-15,33.6-33.3c8.9-2.7,15.3-11,15.3-20.8v-42.1c0-10.2-7.1-18.8-16.6-21.1c0.5,0,1.1-0.1,1.7-0.2
			c4-1.1,6.4-5.2,5.3-9.3c-7.8-29-20.5-52.1-37.5-68.6c-19.6-19-41.4-29.2-64.6-30.4c-1.1-0.1-21.8-0.9-45.2,10.1
			C205.4,4.8,193.5,2,181.4,2c-42.6,0-77.2,34.6-77.2,77.2c0,27.1,14.1,51.9,37,65.9v26.7c0,12,9.7,21.7,21.7,21.7h11.4
			c5.7,23,20.7,42.3,40.8,53.8v9.6c0,11.3-7.7,21-18.7,23.6l-32.1,7.5c-29.9,7-50.7,33.3-50.7,63.9v144.9h-30
			c-4.2,0-7.6,3.4-7.6,7.6s3.4,7.6,7.6,7.6h37.6h41.9h189.3H396h32.4c4.2,0,7.6-3.4,7.6-7.6S432.6,496.9,428.4,496.9z M335.6,206.5
			c1.8-4.2,3.2-8.5,4.3-13h2.6C342,198.7,339.4,203.4,335.6,206.5z M357.9,129.7v42.1c0,3.6-3,6.6-6.6,6.6h-8.9v-5.3v-50h8.9
			C354.9,123.1,357.9,126,357.9,129.7z M141.5,126.7c-13.9-11.6-22.1-28.9-22.1-47.5c0-34.2,27.8-62,62-62c6.2,0,12.4,0.9,18.2,2.7
			c-2.1,1.5-4.2,3.2-6.3,5c-3.2,2.7-3.6,7.5-0.9,10.7c2.7,3.2,7.5,3.6,10.7,0.9c26.2-22.3,57.1-21.2,57.3-21.2
			c19.5,1,38,9.8,54.9,26.2c15.1,14.6,26.3,35.3,33.4,61.7c0.6,2.4,2.4,4.2,4.5,5c-0.7-0.1-1.4-0.1-2-0.1h-9.1
			c-0.8-3.4-3.8-5.9-7.4-5.9c-1.5,0-2.9,0.4-4.1,1.2c0,0,0,0-0.1,0c-8.9,5.9-30.2,9.5-41.5,9.5c-27.6,0-54.2-9.9-76.8-27.9
			l-26.6-28.7c0.4-0.7,0.9-1.3,1.3-2c2.4-3.4,1.5-8.1-1.9-10.5s-8.1-1.5-10.5,1.9c-1.6,2.4-3.2,4.9-4.8,7.4c0,0,0,0,0,0c0,0,0,0,0,0
			c0,0,0,0.1-0.1,0.1c0,0,0,0,0,0c-6.2,9.9-10.5,20.8-12.9,32.2c-1.6,7.9-2.3,16-2,24.1C147.9,112.3,142.6,118.8,141.5,126.7z
			 M171.9,173.1v5.3H163c-3.6,0-6.6-3-6.6-6.6v-28.9c0.4-1.3,0.4-2.7,0-4v-9.2c0-3.6,3-6.6,6.6-6.6h8.9V173.1z M177.8,102.2
			c-1,0.2-2,0.7-2.8,1.3c-1.6,0.7-3.3,1.4-5,2c0-5.7,0.6-11.4,1.7-17c1.2-6,3.1-11.8,5.7-17.4c5.7,7.1,11.9,13.6,18.4,19.5
			c-6.4,5.3-12,8.5-14.5,9.8C180.2,101,179,101.6,177.8,102.2z M187,173.1v-57.6v-1c0.5-0.3,1-0.5,1.5-0.8
			c3.2-1.7,10.8-6.1,19.2-13.4c24.2,17.8,52.3,27.5,81.5,27.5c9.4,0,25.4-2.1,38.1-6.5v51.7c0,13.8-4,26.7-11,37.6h-51.1
			c-4.2,0-7.6,3.4-7.6,7.6s3.4,7.6,7.6,7.6h38.1c-12.3,10.8-28.5,17.4-46.2,17.4C218.5,243.2,187,211.8,187,173.1z M199.9,295.3
			c17.9-4.2,30.4-20,30.4-38.4V254c8.4,2.8,17.5,4.3,26.8,4.3c10.5,0,20.5-1.9,29.8-5.4v3.9c0,18.4,12.5,34.2,30.4,38.4l11.8,2.8
			c-12.1,18.3-30.8,31.2-52.5,35.9c-0.6,0.1-1.2,0.4-1.8,0.6h-32.4c-0.6-0.3-1.2-0.5-1.8-0.6c-21.7-4.7-40.4-17.6-52.5-35.9
			L199.9,295.3z M358.5,490.8c0,3.4-2.7,6.1-6.1,6.1H163.1c-3.4,0-6.1-2.7-6.1-6.1v-94.8c0-4.2-3.4-7.6-7.6-7.6s-7.6,3.4-7.6,7.6
			v94.8c0,2.1,0.3,4.2,0.9,6.1h-14V352c0-23.6,16-43.8,39-49.2l4.7-1.1c7.8,13.4,18.5,24.6,31.2,32.9h-37.5
			c-13.4,0-24.3,10.9-24.3,24.3v8.7c0,4.2,3.4,7.6,7.6,7.6s7.6-3.4,7.6-7.6v-8.7c0-5.1,4.1-9.2,9.2-9.2h183c5.1,0,9.2,4.1,9.2,9.2
			V490.8z"/>
	</g>
</g>
<g>
	<g>
		<linearGradient id="SVGID_5_" gradientUnits="userSpaceOnUse" x1="248.3613" y1="204.4061" x2="265.9917" y2="173.8694">
			<stop  offset="0" style="stop-color:#8DCED2"/>
			<stop  offset="1" style="stop-color:#4CB8EA"/>
		</linearGradient>
		<path class="st4" d="M282,183.4c-2.9-2.9-7.7-2.9-10.6,0c-3.7,3.7-8.7,5.8-14,5.8s-10.3-2.1-14-5.8c-2.9-2.9-7.7-2.9-10.6,0
			c-2.9,2.9-2.9,7.7,0,10.6c6.6,6.6,15.3,10.2,24.6,10.2s18-3.6,24.6-10.2C285,191.1,285,186.4,282,183.4z"/>
	</g>
</g>
</svg>
