<?xml version="1.0" encoding="utf-8"?>
<!-- Generator: Adobe Illustrator 21.0.0, SVG Export Plug-In . SVG Version: 6.00 Build 0)  -->
<svg version="1.1" id="Layer_1" xmlns="http://www.w3.org/2000/svg" xmlns:xlink="http://www.w3.org/1999/xlink" x="0px" y="0px"
	 viewBox="0 0 512 512" style="enable-background:new 0 0 512 512;" xml:space="preserve">
<style type="text/css">
	.st0{fill:url(#SVGID_1_);}
	.st1{fill:url(#SVGID_2_);}
	.st2{fill:url(#SVGID_3_);}
</style>
<g transform="translate(1 1)">
	<g>
		<g>
			<linearGradient id="SVGID_1_" gradientUnits="userSpaceOnUse" x1="235.7147" y1="228.671" x2="274.2863" y2="161.863">
				<stop  offset="0" style="stop-color:#8DCED2"/>
				<stop  offset="1" style="stop-color:#4CB8EA"/>
			</linearGradient>
			<path class="st0" d="M195.3,203.8h119.5c5.1,0,8.5-3.4,8.5-8.5s-3.4-8.5-8.5-8.5H195.3c-5.1,0-8.5,3.4-8.5,8.5
				S190.1,203.8,195.3,203.8z"/>
			<linearGradient id="SVGID_2_" gradientUnits="userSpaceOnUse" x1="235.7147" y1="262.804" x2="274.2863" y2="195.996">
				<stop  offset="0" style="stop-color:#8DCED2"/>
				<stop  offset="1" style="stop-color:#4CB8EA"/>
			</linearGradient>
			<path class="st1" d="M195.3,237.9h119.5c5.1,0,8.5-3.4,8.5-8.5s-3.4-8.5-8.5-8.5H195.3c-5.1,0-8.5,3.4-8.5,8.5
				S190.1,237.9,195.3,237.9z"/>
			<linearGradient id="SVGID_3_" gradientUnits="userSpaceOnUse" x1="122.2935" y1="435.8989" x2="367.7793" y2="10.705">
				<stop  offset="0" style="stop-color:#8DCED2"/>
				<stop  offset="1" style="stop-color:#4CB8EA"/>
			</linearGradient>
			<path class="st2" d="M417.1,135.5c0-14.5-11.1-25.6-25.6-25.6h-25.6V24.6c0-14.5-11.1-25.6-25.6-25.6
				c-14.5,0-25.6,11.1-25.6,25.6v85.3H195.3V24.6c0-14.5-11.1-25.6-25.6-25.6s-25.6,11.1-25.6,25.6v85.3h-25.6
				c-14.5,0-25.6,11.1-25.6,25.6c0,11.5,7,20.8,17.1,24.2v155c0,42.7,34.1,76.8,76.8,76.8h25.6v34.1c0,5.1,3.4,8.5,8.5,8.5h8.5v34.1
				c0,5.1,3.4,8.5,8.5,8.5h8.5v25.6c0,5.1,3.4,8.5,8.5,8.5c5.1,0,8.5-3.4,8.5-8.5v-25.6h8.5c5.1,0,8.5-3.4,8.5-8.5v-34.1h8.5
				c5.1,0,8.5-3.4,8.5-8.5v-34.1h25.6c42.7,0,76.8-34.1,76.8-76.8v-155C410.2,156.4,417.1,147,417.1,135.5z M331.8,24.6
				c0-5.1,3.4-8.5,8.5-8.5s8.5,3.4,8.5,8.5v85.3h-17.1V24.6z M161.1,24.6c0-4.3,3.4-8.5,8.5-8.5c5.1,0,8.5,3.4,8.5,8.5v85.3h-17.1
				L161.1,24.6L161.1,24.6z M263.5,459.8h-17.1v-25.6h17.1V459.8z M280.6,417.1h-8.5h-34.1h-8.5v-25.6h51.2V417.1z M383,314.7
				c0,33.3-26.5,59.7-59.7,59.7h-34.1h-68.3h-34.1c-33.3,0-59.7-26.5-59.7-59.7V161.1h256L383,314.7L383,314.7z M391.5,144.1H118.5
				c-5.1,0-8.5-3.4-8.5-8.5s3.4-8.5,8.5-8.5h34.1h34.1h136.5h34.1h34.1c5.1,0,8.5,3.4,8.5,8.5S396.7,144.1,391.5,144.1z"/>
		</g>
	</g>
</g>
</svg>
