<?xml version="1.0" encoding="utf-8"?>
<!-- Generator: Adobe Illustrator 21.0.0, SVG Export Plug-In . SVG Version: 6.00 Build 0)  -->
<svg version="1.1" id="Layer_1" xmlns="http://www.w3.org/2000/svg" xmlns:xlink="http://www.w3.org/1999/xlink" x="0px" y="0px"
	 viewBox="0 0 470 470" style="enable-background:new 0 0 470 470;" xml:space="preserve">
<style type="text/css">
	.st0{fill:url(#SVGID_1_);}
	.st1{fill:url(#SVGID_2_);}
	.st2{fill:url(#SVGID_3_);}
	.st3{fill:url(#SVGID_4_);}
	.st4{fill:url(#SVGID_5_);}
	.st5{fill:url(#SVGID_6_);}
</style>
<g>
	
		<linearGradient id="SVGID_1_" gradientUnits="userSpaceOnUse" x1="152.0063" y1="59.878" x2="225.3208" y2="186.8623" gradientTransform="matrix(1 0 0 -1 0 472)">
		<stop  offset="0" style="stop-color:#8DCED2"/>
		<stop  offset="1" style="stop-color:#4CB8EA"/>
	</linearGradient>
	<path class="st0" d="M207.2,381.2V278.4c0-3.5-2.9-6.4-6.4-6.4H158c-3.5,0-6.4,2.9-6.4,6.4s2.9,6.4,6.4,6.4h36.4v96.4
		c-12.2,2.9-21.4,13.9-21.4,27c0,15.3,12.5,27.8,27.8,27.8s27.8-12.5,27.8-27.8C228.6,395.1,219.4,384.1,207.2,381.2z M200.8,423.2
		c-8.2,0-15-6.8-15-15c0-8.2,6.8-15,15-15c8.2,0,15,6.8,15,15C215.8,416.4,209,423.2,200.8,423.2z"/>
	
		<linearGradient id="SVGID_2_" gradientUnits="userSpaceOnUse" x1="220.4318" y1="59.878" x2="293.7463" y2="186.8623" gradientTransform="matrix(1 0 0 -1 0 472)">
		<stop  offset="0" style="stop-color:#8DCED2"/>
		<stop  offset="1" style="stop-color:#4CB8EA"/>
	</linearGradient>
	<path class="st1" d="M275.6,381.2V278.4c0-3.5-2.9-6.4-6.4-6.4h-42.8c-3.5,0-6.4,2.9-6.4,6.4s2.9,6.4,6.4,6.4h36.4v96.4
		c-12.2,2.9-21.4,13.9-21.4,27c0,15.3,12.5,27.8,27.8,27.8s27.8-12.5,27.8-27.8C297,395.1,287.9,384.1,275.6,381.2z M269.2,423.2
		c-8.2,0-15-6.8-15-15c0-8.2,6.8-15,15-15c8.2,0,15,6.8,15,15C284.2,416.4,277.4,423.2,269.2,423.2z"/>
	
		<linearGradient id="SVGID_3_" gradientUnits="userSpaceOnUse" x1="326.4494" y1="105.6323" x2="370.5537" y2="182.0231" gradientTransform="matrix(1 0 0 -1 0 472)">
		<stop  offset="0" style="stop-color:#8DCED2"/>
		<stop  offset="1" style="stop-color:#4CB8EA"/>
	</linearGradient>
	<path class="st2" d="M384.7,337.6c-13.1,0-24.1,9.2-27,21.4h-13.6v-80.7c0-3.5-2.9-6.4-6.4-6.4h-42.8c-3.5,0-6.4,2.9-6.4,6.4
		s2.9,6.4,6.4,6.4h36.4v80.7c0,3.5,2.9,6.4,6.4,6.4h20c2.9,12.2,13.9,21.4,27,21.4c15.3,0,27.8-12.5,27.8-27.8
		S400,337.6,384.7,337.6z M384.7,380.4c-8.2,0-15-6.8-15-15s6.8-15,15-15c8.2,0,15,6.8,15,15S392.9,380.4,384.7,380.4z"/>
	
		<linearGradient id="SVGID_4_" gradientUnits="userSpaceOnUse" x1="116.6255" y1="56.4055" x2="327.3545" y2="421.3987" gradientTransform="matrix(1 0 0 -1 0 472)">
		<stop  offset="0" style="stop-color:#8DCED2"/>
		<stop  offset="1" style="stop-color:#4CB8EA"/>
	</linearGradient>
	<path class="st3" d="M420.7,172.2c-8.6-10.8-20.4-18.7-33.4-22.8c-1.5-30.4-14.1-58.7-35.8-80.2C328.6,46.5,298.2,34,266,34
		c-42.3,0-81.5,22.1-103.6,58c-5.4-1.7-10.9-2.6-16.6-2.6c-26.2,0-48.8,18.5-54.1,43.7C57.9,141.9,34,172.6,34,207.7
		c0,42.5,34.6,77.1,77.1,77.1h14.9V359h-13.6c-2.9-12.2-13.9-21.4-27-21.4c-15.3,0-27.8,12.5-27.8,27.8s12.5,27.8,27.8,27.8
		c13.1,0,24.1-9.2,27-21.4h20c3.5,0,6.4-2.9,6.4-6.4v-87.1c0-3.5-2.9-6.4-6.4-6.4h-21.3c-35.4,0-64.2-28.8-64.2-64.2
		c0-30.5,21.7-57,51.7-63c2.7-0.5,4.8-2.7,5.1-5.5c2.7-21.1,21-37,42.3-37c5.9,0,11.5,1.2,16.9,3.5c3,1.3,6.6,0.1,8.1-2.8
		c19.1-34.6,55.5-56.1,95-56.1c59.4,0,108,48.2,108.6,107.6c0,3,2.1,5.6,5,6.2c25.7,5.9,43.6,28.6,43.6,54.9
		c0,31-25.3,56.4-56.4,56.4h-3.5c-3.5,0-6.4,2.9-6.4,6.4s2.9,6.4,6.4,6.4h3.5c38.1,0,69.2-31,69.2-69.2
		C436,199.8,430.6,184.5,420.7,172.2z M85.3,380.4c-8.2,0-15-6.8-15-15s6.8-15,15-15s15,6.8,15,15S93.5,380.4,85.3,380.4z"/>
	
		<linearGradient id="SVGID_5_" gradientUnits="userSpaceOnUse" x1="335.3693" y1="316.4982" x2="352.7348" y2="346.5763" gradientTransform="matrix(1 0 0 -1 0 472)">
		<stop  offset="0" style="stop-color:#8DCED2"/>
		<stop  offset="1" style="stop-color:#4CB8EA"/>
	</linearGradient>
	<path class="st4" d="M346.8,161.1L346.8,161.1c3.6,0,6.4-2.9,6.4-6.5c-0.1-10.6-2.1-20.9-5.9-30.7c-1.3-3.3-5-5-8.3-3.7
		c-3.3,1.3-5,5-3.7,8.3c3.3,8.4,5,17.2,5,26.2C340.4,158.3,343.3,161.1,346.8,161.1L346.8,161.1z"/>
	
		<linearGradient id="SVGID_6_" gradientUnits="userSpaceOnUse" x1="292.5518" y1="374.6296" x2="304.3515" y2="395.0674" gradientTransform="matrix(1 0 0 -1 0 472)">
		<stop  offset="0" style="stop-color:#8DCED2"/>
		<stop  offset="1" style="stop-color:#4CB8EA"/>
	</linearGradient>
	<path class="st5" d="M323.4,108.2c1.3,1.5,3.1,2.3,5,2.3c1.5,0,2.9-0.5,4.1-1.5c2.7-2.2,3.1-6.3,0.9-9.1
		C316.5,79.8,292,68.2,266,68.2c-3.5,0-6.4,2.9-6.4,6.4s2.9,6.4,6.4,6.4C288.2,81,309.1,91,323.4,108.2L323.4,108.2z"/>
</g>
</svg>
