<?xml version="1.0" encoding="utf-8"?>
<!-- Generator: Adobe Illustrator 21.0.0, SVG Export Plug-In . SVG Version: 6.00 Build 0)  -->
<svg version="1.1" id="Layer_1" xmlns="http://www.w3.org/2000/svg" xmlns:xlink="http://www.w3.org/1999/xlink" x="0px" y="0px"
	 viewBox="0 0 512 512" style="enable-background:new 0 0 512 512;" xml:space="preserve">
<style type="text/css">
	.st0{fill:url(#SVGID_1_);}
	.st1{fill:url(#SVGID_2_);}
	.st2{fill:url(#SVGID_3_);}
	.st3{fill:url(#SVGID_4_);}
</style>
<g>
	<g>
		<linearGradient id="SVGID_1_" gradientUnits="userSpaceOnUse" x1="174.6056" y1="423.6356" x2="356.6318" y2="108.3568">
			<stop  offset="0" style="stop-color:#8DCED2"/>
			<stop  offset="1" style="stop-color:#4CB8EA"/>
		</linearGradient>
		<path class="st0" d="M478.3,183.8H300.8c-7.9-27.5-23.4-52.6-45.1-72c-32.9-29.5-75.4-43-119.7-38.1C64.9,81.5,8,138.9,0.8,210
			c-4,38.8,6.7,77.3,29.9,108.1c22.3,29.6,54.2,50.1,90.2,57.8l37.8,37.8c3.2,3.2,7.4,4.9,11.7,4.9c2.1,0,4.3-0.4,6.4-1.3
			c6.2-2.6,10.2-8.6,10.2-15.3v-26.5c6.2-1.4,12.3-3.2,18.2-5.3v1c0,18.6,15.1,33.7,33.7,33.7h56.5l30.1,30.1
			c2.7,2.7,6.3,4.1,9.9,4.1c1.8,0,3.6-0.4,5.4-1.1c5.3-2.2,8.7-7.3,8.7-13v-20.2h128.8c18.6,0,33.7-15.1,33.7-33.7V217.5
			C512,198.9,496.9,183.8,478.3,183.8z M177.6,361.2c-3.8,0.7-6.6,4-6.6,7.9v33.1c0,0.2,0,0.4-0.3,0.5c-0.3,0.1-0.4,0-0.6-0.1
			L130.6,363c-1.1-1.1-2.6-1.9-4.1-2.2c-33.1-6.6-62.5-25.1-82.9-52.2c-20.8-27.7-30.3-62.1-26.8-96.9c3.1-30.7,17-59.9,39.1-82.2
			C78,107.1,107,93,137.7,89.6c5.3-0.6,10.6-0.9,15.9-0.9c33.9,0,65.9,12.2,91.4,35c29.1,26,45.8,63.3,45.8,102.4
			C290.7,292.7,243.2,349.5,177.6,361.2z M496,371.4c0,9.7-7.9,17.6-17.6,17.6H341.5c-4.4,0-8,3.6-8,8v23.4l-29.1-29.1
			c-1.5-1.5-3.5-2.3-5.7-2.3h-59.9c-9.7,0-17.6-7.9-17.6-17.6v-7.8c51.3-25.2,85.5-77.9,85.5-137.5c0-8.9-0.8-17.6-2.3-26.2h173.8
			c9.7,0,17.6,7.9,17.6,17.6L496,371.4L496,371.4z"/>
	</g>
</g>
<g>
	<g>
		<linearGradient id="SVGID_2_" gradientUnits="userSpaceOnUse" x1="342.8745" y1="337.3828" x2="409.2998" y2="222.3308">
			<stop  offset="0" style="stop-color:#8DCED2"/>
			<stop  offset="1" style="stop-color:#4CB8EA"/>
		</linearGradient>
		<path class="st1" d="M449.8,246c-3.1-3.1-8.2-3.1-11.3,0l-79.8,79.8l-37.1-37.1c-3.1-3.1-8.2-3.1-11.3,0c-3.1,3.1-3.1,8.2,0,11.3
			l42.7,42.7c1.6,1.6,3.6,2.3,5.7,2.3s4.1-0.8,5.7-2.3l85.5-85.5C452.9,254.2,452.9,249.2,449.8,246z"/>
	</g>
</g>
<g>
	<g>
		<linearGradient id="SVGID_3_" gradientUnits="userSpaceOnUse" x1="149.365" y1="301.4443" x2="157.394" y2="287.5377">
			<stop  offset="0" style="stop-color:#8DCED2"/>
			<stop  offset="1" style="stop-color:#4CB8EA"/>
		</linearGradient>
		<path class="st2" d="M153.4,286.5C153.4,286.5,153.4,286.5,153.4,286.5c-4.4,0-8,3.6-8,8c0,0,0,0,0,0s0,0,0,0c0,4.4,3.6,8,8,8
			c0,0,0,0,0,0c4.4,0,8-3.6,8-8c0,0,0,0,0,0s0,0,0,0C161.4,290.1,157.8,286.5,153.4,286.5z"/>
	</g>
</g>
<g>
	<g>
		<linearGradient id="SVGID_4_" gradientUnits="userSpaceOnUse" x1="123.4269" y1="252.2516" x2="178.6551" y2="156.5936">
			<stop  offset="0" style="stop-color:#8DCED2"/>
			<stop  offset="1" style="stop-color:#4CB8EA"/>
		</linearGradient>
		<path class="st3" d="M189.1,164.7c-9.7-9.7-22.4-15.1-35.7-15.1c-28,0-50.8,22.8-50.8,50.8c0,4.4,3.6,8,8,8c4.4,0,8-3.6,8-8
			c0-19.2,15.6-34.7,34.7-34.7c9,0,17.7,3.7,24.4,10.4s10.4,15.3,10.4,24.4c0,15.2-10.2,28.9-24.7,33.3c-10.8,3.2-18,12.9-18,24v2.6
			c0,4.4,3.6,8,8,8c4.4,0,8-3.6,8-8v-2.6c0-4,2.6-7.5,6.6-8.7c21.3-6.4,36.2-26.4,36.2-48.6C204.2,187.1,198.8,174.4,189.1,164.7z"
			/>
	</g>
</g>
</svg>
