<?xml version="1.0" encoding="utf-8"?>
<!-- Generator: Adobe Illustrator 21.0.0, SVG Export Plug-In . SVG Version: 6.00 Build 0)  -->
<svg version="1.1" id="Capa_1" xmlns="http://www.w3.org/2000/svg" xmlns:xlink="http://www.w3.org/1999/xlink" x="0px" y="0px"
	 viewBox="0 0 512 512" style="enable-background:new 0 0 512 512;" xml:space="preserve">
<style type="text/css">
	.st0{fill:url(#SVGID_1_);}
	.st1{fill:url(#SVGID_2_);}
	.st2{fill:url(#SVGID_3_);}
	.st3{fill:url(#SVGID_4_);}
	.st4{fill:url(#SVGID_5_);}
	.st5{fill:url(#SVGID_6_);}
</style>
<g>
	<g>
		<linearGradient id="SVGID_1_" gradientUnits="userSpaceOnUse" x1="136.3886" y1="524.6979" x2="375.6123" y2="110.3504">
			<stop  offset="0" style="stop-color:#8DCED2"/>
			<stop  offset="1" style="stop-color:#4CB8EA"/>
		</linearGradient>
		<path class="st0" d="M477.9,174.7H320.2l-30.8-91.3c-0.9-17.7-15.5-31.7-33.4-31.7c-17.9,0-32.5,14.1-33.4,31.7l-30.8,91.3H34.1
			C15.3,174.7,0,190,0,208.8v217.5c0,18.8,15.3,34.1,34.1,34.1h36.4c5.1,0,9.3-4.2,9.3-9.3s-4.2-9.3-9.3-9.3H34.1
			c-8.6,0-15.5-7-15.5-15.5V208.8c0-8.6,7-15.5,15.5-15.5h164.4c0,0,0,0,0,0s0,0,0,0h114.9c0,0,0,0,0,0s0,0,0,0h164.4
			c8.6,0,15.5,7,15.5,15.5v217.5c0,8.6-7,15.5-15.5,15.5H100.2c-5.1,0-9.3,4.2-9.3,9.3s4.2,9.3,9.3,9.3h377.7
			c18.8,0,34.1-15.3,34.1-34.1V208.8C512,190,496.7,174.7,477.9,174.7z M256,70.2c8.2,0,14.8,6.7,14.8,14.8s-6.7,14.8-14.8,14.8
			s-14.8-6.7-14.8-14.8S247.8,70.2,256,70.2z M211.4,174.7l22-65.1c6,5.5,13.9,8.8,22.6,8.8s16.7-3.4,22.6-8.8l22,65.1H211.4z"/>
	</g>
</g>
<g>
	<g>
		<linearGradient id="SVGID_2_" gradientUnits="userSpaceOnUse" x1="262.4034" y1="372.0784" x2="325.3985" y2="262.9678">
			<stop  offset="0" style="stop-color:#8DCED2"/>
			<stop  offset="1" style="stop-color:#4CB8EA"/>
		</linearGradient>
		<path class="st1" d="M323.1,263.1c-5.1,0-9.3,4.2-9.3,9.3v58.9l-41.2-63.9c-2.2-3.5-6.5-5-10.4-3.9c-3.9,1.2-6.7,4.8-6.7,8.9v90.4
			c0,5.1,4.2,9.3,9.3,9.3s9.3-4.2,9.3-9.3v-58.9l41.2,63.9c1.7,2.7,4.7,4.2,7.8,4.2c0.9,0,1.8-0.1,2.6-0.4c3.9-1.2,6.7-4.8,6.7-8.9
			v-90.4C332.3,267.2,328.2,263.1,323.1,263.1z"/>
	</g>
</g>
<g>
	<g>
		<linearGradient id="SVGID_3_" gradientUnits="userSpaceOnUse" x1="75.1755" y1="368.7284" x2="130.1139" y2="273.5722">
			<stop  offset="0" style="stop-color:#8DCED2"/>
			<stop  offset="1" style="stop-color:#4CB8EA"/>
		</linearGradient>
		<path class="st2" d="M116.9,326.2c11.3-5.3,19.2-16.8,19.2-30c0-18.3-14.9-33.1-33.1-33.1H83.3c-5.1,0-9.3,4.2-9.3,9.3v90.4
			c0,5.1,4.2,9.3,9.3,9.3s9.3-4.2,9.3-9.3v-33.4h4.9l20.5,37.8c1.7,3.1,4.9,4.9,8.2,4.9c1.5,0,3-0.4,4.4-1.1
			c4.5-2.4,6.2-8.1,3.7-12.6L116.9,326.2z M103.1,310.7C103,310.7,103,310.7,103.1,310.7l-10.5,0v-29.1H103c8,0,14.6,6.5,14.6,14.6
			C117.6,304.2,111.1,310.7,103.1,310.7z"/>
	</g>
</g>
<g>
	<g>
		<linearGradient id="SVGID_4_" gradientUnits="userSpaceOnUse" x1="169.2076" y1="368.7673" x2="228.3795" y2="266.2786">
			<stop  offset="0" style="stop-color:#8DCED2"/>
			<stop  offset="1" style="stop-color:#4CB8EA"/>
		</linearGradient>
		<path class="st3" d="M220.3,327c5.1,0,9.3-4.2,9.3-9.3c0-5.1-4.2-9.3-9.3-9.3h-33.7v-26.9h33.7v0c5.1,0,9.3-4.2,9.3-9.3
			s-4.2-9.3-9.3-9.3h-43c-5.1,0-9.3,4.2-9.3,9.3v90.4c0,5.1,4.2,9.3,9.3,9.3h43c5.1,0,9.3-4.2,9.3-9.3c0-5.1-4.2-9.3-9.3-9.3h-33.7
			V327L220.3,327L220.3,327z"/>
	</g>
</g>
<g>
	<g>
		<linearGradient id="SVGID_5_" gradientUnits="userSpaceOnUse" x1="387.0897" y1="368.7401" x2="403.3502" y2="340.5761">
			<stop  offset="0" style="stop-color:#8DCED2"/>
			<stop  offset="1" style="stop-color:#4CB8EA"/>
		</linearGradient>
		<path class="st4" d="M395.2,337.3c-5.1,0-9.3,4.2-9.3,9.3v16.1c0,5.1,4.2,9.3,9.3,9.3s9.3-4.2,9.3-9.3v-16.1
			C404.5,341.5,400.3,337.3,395.2,337.3z"/>
	</g>
</g>
<g>
	<g>
		<linearGradient id="SVGID_6_" gradientUnits="userSpaceOnUse" x1="369.1342" y1="317.5098" x2="408.2225" y2="249.8069">
			<stop  offset="0" style="stop-color:#8DCED2"/>
			<stop  offset="1" style="stop-color:#4CB8EA"/>
		</linearGradient>
		<path class="st5" d="M428.7,263.1h-66.9c-5.1,0-9.3,4.2-9.3,9.3c0,5.1,4.2,9.3,9.3,9.3h24.2v40.3c0,5.1,4.2,9.3,9.3,9.3
			s9.3-4.2,9.3-9.3v-40.3h24.2c5.1,0,9.3-4.2,9.3-9.3C437.9,267.2,433.8,263.1,428.7,263.1z"/>
	</g>
</g>
</svg>
