<?xml version="1.0" encoding="utf-8"?>
<!-- Generator: Adobe Illustrator 21.0.0, SVG Export Plug-In . SVG Version: 6.00 Build 0)  -->
<svg version="1.1" id="Layer_1" xmlns="http://www.w3.org/2000/svg" xmlns:xlink="http://www.w3.org/1999/xlink" x="0px" y="0px"
	 viewBox="0 0 512 512" style="enable-background:new 0 0 512 512;" xml:space="preserve">
<style type="text/css">
	.st0{fill:url(#SVGID_1_);}
	.st1{fill:url(#SVGID_2_);}
	.st2{fill:url(#SVGID_3_);}
	.st3{fill:url(#SVGID_4_);}
</style>
<g>
	<g>
		<g>
			
				<linearGradient id="SVGID_1_" gradientUnits="userSpaceOnUse" x1="218.5912" y1="245.8007" x2="279.9046" y2="351.9985" gradientTransform="matrix(1 0 0 -1 0 514)">
				<stop  offset="0" style="stop-color:#8DCED2"/>
				<stop  offset="1" style="stop-color:#4CB8EA"/>
			</linearGradient>
			<path class="st0" d="M208.4,256h81.7c22.5,0,40.9-18.3,40.9-40.9s-18.3-40.9-40.9-40.9h-81.7c-22.5,0-40.9,18.3-40.9,40.9
				S185.9,256,208.4,256z M208.4,192.4h81.7c12.5,0,22.7,10.2,22.7,22.7c0,12.5-10.2,22.7-22.7,22.7h-81.7
				c-12.5,0-22.7-10.2-22.7-22.7S195.9,192.4,208.4,192.4z"/>
			
				<linearGradient id="SVGID_2_" gradientUnits="userSpaceOnUse" x1="124.5703" y1="42.063" x2="373.935" y2="473.9755" gradientTransform="matrix(1 0 0 -1 0 514)">
				<stop  offset="0" style="stop-color:#8DCED2"/>
				<stop  offset="1" style="stop-color:#4CB8EA"/>
			</linearGradient>
			<path class="st1" d="M482.1,183.6c-1.7-6.5-5.9-11.9-11.7-15.3l-16.9-9.8V91.2c0-5-4.1-9.1-9.1-9.1H54.1c-5,0-9.1,4-9.1,9.1
				v329.5c0,5,4.1,9.1,9.1,9.1h390.4c5,0,9.1-4.1,9.1-9.1V248l26.1-45.2C483,197,483.9,190.1,482.1,183.6z M63.1,100.3h372.2v18.1
				H63.1V100.3z M435.4,411.7H63.1V136.6h372.2v15.1c-9-0.3-17.8,4.3-22.6,12.6l-67.2,116.3H140.3c-5,0-9.1,4.1-9.1,9.1V326
				c0,5,4.1,9.1,9.1,9.1h180l0.5,50c0,3.3,1.8,6.2,4.5,7.8c1.4,0.8,3,1.2,4.5,1.2s3.1-0.4,4.4-1.2l50.5-28.5
				c1.1-0.6,2.1-1.5,2.8-2.6c0.2-0.3,0.3-0.5,0.5-0.8l0,0l47.1-81.6L435.4,411.7L435.4,411.7z M341.7,323.7l49.4-85.7l35.4,20.4
				l-49.4,85.7L341.7,323.7z M362.1,356.3l-23.3,13.1l-0.3-26.7l11.8,6.8L362.1,356.3z M335.2,298.7l-10.5,18.1H149.4v-18.1H335.2z
				 M435.6,242.7l-35.4-20.4l9.1-15.7l35.4,20.4L435.6,242.7z M463.9,193.7l-10.1,17.5l-35.4-20.4l10.1-17.5c2-3.3,6.2-4.5,9.6-2.6
				l23.2,13.4C464.7,186,465.8,190.3,463.9,193.7z"/>
			
				<linearGradient id="SVGID_3_" gradientUnits="userSpaceOnUse" x1="166.3463" y1="124.6471" x2="194.5902" y2="173.567" gradientTransform="matrix(1 0 0 -1 0 514)">
				<stop  offset="0" style="stop-color:#8DCED2"/>
				<stop  offset="1" style="stop-color:#4CB8EA"/>
			</linearGradient>
			<path class="st2" d="M218.8,355.8h-76.7c-5,0-9.1,4.1-9.1,9.1s4.1,9.1,9.1,9.1h76.7c5,0,9.1-4.1,9.1-9.1S223.9,355.8,218.8,355.8
				z"/>
			
				<linearGradient id="SVGID_4_" gradientUnits="userSpaceOnUse" x1="250.0459" y1="141.0062" x2="259.3526" y2="157.126" gradientTransform="matrix(1 0 0 -1 0 514)">
				<stop  offset="0" style="stop-color:#8DCED2"/>
				<stop  offset="1" style="stop-color:#4CB8EA"/>
			</linearGradient>
			<path class="st3" d="M255.2,355.8h-0.9c-5,0-9.1,4.1-9.1,9.1s4.1,9.1,9.1,9.1h0.9c5,0,9.1-4.1,9.1-9.1S260.2,355.8,255.2,355.8z"
				/>
		</g>
	</g>
</g>
</svg>
