<?xml version="1.0" encoding="utf-8"?>
<!-- Generator: Adobe Illustrator 21.0.0, SVG Export Plug-In . SVG Version: 6.00 Build 0)  -->
<svg version="1.1" id="Capa_1" xmlns="http://www.w3.org/2000/svg" xmlns:xlink="http://www.w3.org/1999/xlink" x="0px" y="0px"
	 viewBox="0 0 55 55" style="enable-background:new 0 0 55 55;" xml:space="preserve">
<style type="text/css">
	.st0{fill:url(#SVGID_1_);}
</style>
<g>
	
		<linearGradient id="SVGID_1_" gradientUnits="userSpaceOnUse" x1="11.2788" y1="10.4313" x2="35.0269" y2="51.5642" gradientTransform="matrix(1 0 0 -1 0 56)">
		<stop  offset="0" style="stop-color:#8DCED2"/>
		<stop  offset="1" style="stop-color:#4CB8EA"/>
	</linearGradient>
	<path class="st0" d="M51.1,19.9v-6.2h-8.9v6.2h-0.9v5.5c0,0.9,0.7,1.6,1.6,1.6H44c0,1.2,0.7,2.1,1.8,2.5V32
		c0,6.1-3.2,12.3-10.1,15.3c2.8-2.6,4.7-6.3,4.7-10.5c0-7.8-6.4-14.2-14.2-14.2S11.9,29,11.9,36.8c0,2.9,0.9,5.6,2.4,7.8
		c-3.1-2.9-5.1-7.2-5.1-11.8V19.8c1.1-0.4,1.8-1.3,1.8-2.5h1.1c0.9,0,1.6-0.7,1.6-1.6v-5.5h-0.9V3.9H3.9v6.2H3v5.5
		c0,0.9,0.7,1.6,1.6,1.6h1.1c0,1.2,0.7,2.1,1.8,2.5v14l0,0c0.4,9.6,8.5,17.4,18.2,17.4c0.1,0,0.3,0,0.4,0c0.1,0,0.1,0,0.1,0
		c0.1,0,0.2,0,0.3,0c12.5-0.3,21.1-8,21.1-19v-2.5c1.1-0.4,1.8-1.3,1.8-2.5h1.1c0.9,0,1.6-0.7,1.6-1.6v-5.6H51.1z M5.7,8.4h1.8V6.6
		H5.7V5.7H11v0.9H9.3v1.8H11v1.8H5.7V8.4z M4.8,15.5v-3.6h7.1v3.6H11v-1.8H5.7v1.8H4.8z M7.5,15.5h1.8v1.8c0,0.5-0.4,0.9-0.9,0.9
		s-0.9-0.4-0.9-0.9V15.5z M26.4,49.3c-0.2,0-0.3,0-0.4,0c-5.3-0.1-9.6-4.4-9.6-9.8c0-5.4,4.4-9.8,9.8-9.8s9.8,4.4,9.8,9.8
		C36,44.9,31.7,49.1,26.4,49.3z M26.2,24.4c6.9,0,12.5,5.6,12.5,12.5c0,1.9-0.4,3.7-1.2,5.3c0.2-0.9,0.4-1.7,0.4-2.7
		c0-6.4-5.2-11.6-11.6-11.6s-11.6,5.2-11.6,11.6c0,0.9,0.1,1.8,0.4,2.7c-0.8-1.6-1.2-3.4-1.2-5.3C13.7,30,19.3,24.4,26.2,24.4z
		 M44,18.2h1.8v-1.8H44v-0.9h5.3v0.9h-1.8v1.8h1.8v1.8H44V18.2z M46.6,27.9c-0.5,0-0.9-0.4-0.9-0.9v-1.8h1.8v1.8
		C47.5,27.6,47.2,27.9,46.6,27.9z M50.2,25.3h-0.9v-1.8H44v1.8h-0.9v-3.6h7.1V25.3z"/>
</g>
</svg>
