<?xml version="1.0" encoding="utf-8"?>
<!-- Generator: Adobe Illustrator 21.0.0, SVG Export Plug-In . SVG Version: 6.00 Build 0)  -->
<svg version="1.1" id="Layer_1" xmlns="http://www.w3.org/2000/svg" xmlns:xlink="http://www.w3.org/1999/xlink" x="0px" y="0px"
	 viewBox="0 0 600.9 595.3" style="enable-background:new 0 0 600.9 595.3;" xml:space="preserve">
<style type="text/css">
	.st0{fill:none;stroke:url(#SVGID_1_);stroke-width:2;stroke-miterlimit:10;}
	.st1{fill:none;stroke:url(#SVGID_2_);stroke-width:2;stroke-miterlimit:10;}
	.st2{fill:none;stroke:url(#SVGID_3_);stroke-width:2;stroke-miterlimit:10;}
	.st3{fill:none;stroke:url(#SVGID_4_);stroke-width:2;stroke-miterlimit:10;}
	.st4{fill:none;stroke:url(#SVGID_5_);stroke-width:2;stroke-miterlimit:10;}
	.st5{fill:#435A89;stroke:url(#SVGID_6_);stroke-miterlimit:10;}
	.st6{fill:none;stroke:url(#SVGID_7_);stroke-width:2;stroke-linecap:round;stroke-linejoin:round;stroke-miterlimit:10;}
	.st7{fill:none;stroke:url(#SVGID_8_);stroke-width:2;stroke-linecap:round;stroke-linejoin:round;stroke-miterlimit:10;}
	.st8{fill:none;stroke:url(#SVGID_9_);stroke-width:2;stroke-linecap:round;stroke-linejoin:round;stroke-miterlimit:10;}
	.st9{fill:none;stroke:url(#SVGID_10_);stroke-width:2;stroke-linecap:round;stroke-linejoin:round;stroke-miterlimit:10;}
	.st10{fill:#435A89;stroke:url(#SVGID_11_);stroke-miterlimit:10;}
	.st11{fill:none;stroke:url(#SVGID_12_);stroke-width:2;stroke-linecap:round;stroke-linejoin:round;stroke-miterlimit:10;}
	.st12{fill:none;stroke:url(#SVGID_13_);stroke-width:2;stroke-linecap:round;stroke-linejoin:round;stroke-miterlimit:10;}
	.st13{fill:none;stroke:url(#SVGID_14_);stroke-width:2;stroke-linecap:round;stroke-linejoin:round;stroke-miterlimit:10;}
	.st14{fill:none;stroke:url(#SVGID_15_);stroke-width:2;stroke-miterlimit:10;}
	.st15{fill:none;stroke:url(#SVGID_16_);stroke-width:2;stroke-miterlimit:10;}
	.st16{fill:none;stroke:url(#SVGID_17_);stroke-width:2;stroke-miterlimit:10;}
	.st17{fill:none;stroke:url(#SVGID_18_);stroke-width:2;stroke-miterlimit:10;}
	.st18{fill:none;stroke:url(#SVGID_19_);stroke-width:2;stroke-miterlimit:10;}
	.st19{fill:none;stroke:url(#SVGID_20_);stroke-width:2;stroke-miterlimit:10;}
	.st20{fill:none;stroke:url(#SVGID_21_);stroke-width:2;stroke-miterlimit:10;}
	.st21{fill:none;stroke:url(#SVGID_22_);stroke-width:2;stroke-miterlimit:10;}
	.st22{fill:none;stroke:url(#SVGID_23_);stroke-width:2;stroke-miterlimit:10;}
	.st23{fill:#435A89;stroke:url(#SVGID_24_);stroke-miterlimit:10;}
	.st24{fill:none;stroke:url(#SVGID_25_);stroke-width:2;stroke-linecap:round;stroke-linejoin:round;stroke-miterlimit:10;}
	.st25{fill:none;stroke:url(#SVGID_26_);stroke-width:2;stroke-linecap:round;stroke-linejoin:round;stroke-miterlimit:10;}
	.st26{fill:none;stroke:url(#SVGID_27_);stroke-width:2;stroke-linecap:round;stroke-linejoin:round;stroke-miterlimit:10;}
</style>
<g>
	<g>
		<linearGradient id="SVGID_1_" gradientUnits="userSpaceOnUse" x1="433.751" y1="420.7668" x2="712.769" y2="-62.5066">
			<stop  offset="0" style="stop-color:#8DCED2"/>
			<stop  offset="1" style="stop-color:#4CB8EA"/>
		</linearGradient>
		<path class="st0" d="M818.3-1L402.6,238.5l-0.8,0.5c-7.7,4.9-11.8,11.2-11.8,18.5c0,15.1,20.4,27.4,45.5,27.4
			c12.5,0,23.7-2.9,31.9-7.8l1-0.6l10-6.3l0.6-0.3c8.3-5.2,19.7-8.3,32.6-8.3c25.2,0,45.7,12.3,45.7,27.5c0,7.3-4.6,13.7-12.2,18.7
			l-0.5,0.3l-150,89.5"/>
		<linearGradient id="SVGID_2_" gradientUnits="userSpaceOnUse" x1="339.1554" y1="434.1162" x2="347.3724" y2="419.8839">
			<stop  offset="0" style="stop-color:#8DCED2"/>
			<stop  offset="1" style="stop-color:#4CB8EA"/>
		</linearGradient>
		<path class="st1" d="M321.9,422.2c-0.3-0.6-0.5-1.4-0.5-2.4v-8.9c0-3.5,1.2-4.2,4.6-2.2l34.6,20c4.4,2.5,4.6,3.3,4.6,7.2v7.4
			c0,3.9-2.3,3.5-4.6,2l-9.6-5.5"/>
		<linearGradient id="SVGID_3_" gradientUnits="userSpaceOnUse" x1="350.9755" y1="439.142" x2="380.2503" y2="388.4365">
			<stop  offset="0" style="stop-color:#8DCED2"/>
			<stop  offset="1" style="stop-color:#4CB8EA"/>
		</linearGradient>
		<path class="st2" d="M322.1,408.1l44-25.5l0.2-0.1c0.7-0.3,1.8,0.1,3.4,1l34.6,20c4.4,2.5,4.6,3.3,4.6,7.2v7.4
			c0,1.4-0.3,2.3-0.8,2.7l-0.1,0.1l-43.8,25.3"/>
		<linearGradient id="SVGID_4_" gradientUnits="userSpaceOnUse" x1="316.3231" y1="445.5568" x2="321.3392" y2="436.8687">
			<stop  offset="0" style="stop-color:#8DCED2"/>
			<stop  offset="1" style="stop-color:#4CB8EA"/>
		</linearGradient>
		<path class="st3" d="M330.9,450.2c0,2.2-1.3,1.9-2.5,1.1l-19.3-11.1c-1.4-0.7-2.3-1.3-2.3-3v-4.9c0-1.9,0.7-2.3,2.5-1.2l19.1,11
			c2.4,1.4,2.5,1.8,2.5,4L330.9,450.2L330.9,450.2z"/>
		<linearGradient id="SVGID_5_" gradientUnits="userSpaceOnUse" x1="323.0389" y1="448.1255" x2="339.5572" y2="419.515">
			<stop  offset="0" style="stop-color:#8DCED2"/>
			<stop  offset="1" style="stop-color:#4CB8EA"/>
		</linearGradient>
		<path class="st4" d="M307.2,430.8l24.3-14.1l0,0c0.4-0.2,1,0,2,0.5l19.1,11c2.4,1.4,2.5,1.8,2.5,4v4.1c0,1.1-0.2,1.3-0.9,1.7
			l-23.8,13.8"/>
		<g>
			<linearGradient id="SVGID_6_" gradientUnits="userSpaceOnUse" x1="358.743" y1="416.8337" x2="371.6642" y2="394.4537">
				<stop  offset="0" style="stop-color:#8DCED2"/>
				<stop  offset="1" style="stop-color:#4CB8EA"/>
			</linearGradient>
			<path class="st5" d="M377.3,400.6l-10.5,6l3.5,2l-17.3,2l10.4-6l-3.5-2L377.3,400.6 M377.3,398.6c-0.1,0-0.2,0-0.2,0l-17.4,2
				c-0.9,0.1-1.6,0.7-1.7,1.6s0.2,1.7,1,2.1l0.5,0.3l-7.4,4.3c-0.8,0.5-1.2,1.5-0.9,2.4c0.3,0.8,1,1.4,1.9,1.4c0.1,0,0.2,0,0.2,0
				l17.3-2c0.9-0.1,1.6-0.7,1.7-1.6s-0.2-1.7-1-2.1l-0.5-0.3l7.5-4.3c0.8-0.5,1.2-1.5,0.9-2.4C379,399.2,378.2,398.6,377.3,398.6
				L377.3,398.6z M377.3,402.6L377.3,402.6L377.3,402.6L377.3,402.6z"/>
		</g>
		<linearGradient id="SVGID_7_" gradientUnits="userSpaceOnUse" x1="316.4354" y1="436.1339" x2="323.8647" y2="423.2661">
			<stop  offset="0" style="stop-color:#8DCED2"/>
			<stop  offset="1" style="stop-color:#4CB8EA"/>
		</linearGradient>
		<line class="st6" x1="313.7" y1="433.4" x2="326.6" y2="426"/>
		<linearGradient id="SVGID_8_" gradientUnits="userSpaceOnUse" x1="320.7979" y1="438.8123" x2="328.2021" y2="425.9877">
			<stop  offset="0" style="stop-color:#8DCED2"/>
			<stop  offset="1" style="stop-color:#4CB8EA"/>
		</linearGradient>
		<line class="st7" x1="318.1" y1="436.1" x2="330.9" y2="428.7"/>
		<linearGradient id="SVGID_9_" gradientUnits="userSpaceOnUse" x1="326.0979" y1="441.6123" x2="333.5021" y2="428.7877">
			<stop  offset="0" style="stop-color:#8DCED2"/>
			<stop  offset="1" style="stop-color:#4CB8EA"/>
		</linearGradient>
		<line class="st8" x1="323.4" y1="438.9" x2="336.2" y2="431.5"/>
	</g>
	<g>
		<linearGradient id="SVGID_10_" gradientUnits="userSpaceOnUse" x1="-16.8612" y1="733.9195" x2="178.6689" y2="395.2513">
			<stop  offset="0" style="stop-color:#8DCED2"/>
			<stop  offset="1" style="stop-color:#4CB8EA"/>
		</linearGradient>
		<path class="st9" d="M-89.2,691l286.1-164.8l0.6-0.4c5.7-3.6,8.6-8.2,8.6-13.6c0-11.1-15-20.1-33.4-20.1c-9.2,0-17.4,2.1-23.4,5.7
			l-0.7,0.4l-36,20.8l-0.4,0.3c-6.1,3.8-14.5,6.1-24,6.1c-18.5,0-33.5-9-33.5-20.2c0-5.3,3.4-10.1,9-13.7l0.4-0.2l139.5-80.5"/>
		<g>
			<linearGradient id="SVGID_11_" gradientUnits="userSpaceOnUse" x1="216.0895" y1="402.6678" x2="227.2546" y2="383.3292">
				<stop  offset="0" style="stop-color:#8DCED2"/>
				<stop  offset="1" style="stop-color:#4CB8EA"/>
			</linearGradient>
			<path class="st10" d="M231.7,388.8l-8.7,5l2.9,1.7l-14.4,1.7l8.6-5l-2.9-1.7L231.7,388.8 M231.7,386.8c-0.1,0-0.2,0-0.2,0
				l-14.4,1.7c-0.9,0.1-1.6,0.7-1.7,1.6c-0.2,0.8,0.2,1.6,0.8,2.1l-5.6,3.2c-0.8,0.5-1.2,1.5-0.9,2.4c0.3,0.8,1,1.4,1.9,1.4
				c0.1,0,0.2,0,0.2,0l14.4-1.7c0.9-0.1,1.6-0.7,1.7-1.6c0.2-0.8-0.2-1.6-0.8-2.1l5.7-3.3c0.8-0.5,1.2-1.5,0.9-2.4
				C233.4,387.4,232.6,386.8,231.7,386.8L231.7,386.8z M231.7,390.8L231.7,390.8L231.7,390.8L231.7,390.8z"/>
		</g>
		<linearGradient id="SVGID_12_" gradientUnits="userSpaceOnUse" x1="245.4543" y1="379.4985" x2="251.7457" y2="368.6015">
			<stop  offset="0" style="stop-color:#8DCED2"/>
			<stop  offset="1" style="stop-color:#4CB8EA"/>
		</linearGradient>
		<line class="st11" x1="243.3" y1="377.1" x2="253.9" y2="371"/>
		<linearGradient id="SVGID_13_" gradientUnits="userSpaceOnUse" x1="249.0543" y1="381.6985" x2="255.3457" y2="370.8015">
			<stop  offset="0" style="stop-color:#8DCED2"/>
			<stop  offset="1" style="stop-color:#4CB8EA"/>
		</linearGradient>
		<line class="st12" x1="246.9" y1="379.3" x2="257.5" y2="373.2"/>
		<linearGradient id="SVGID_14_" gradientUnits="userSpaceOnUse" x1="253.4326" y1="384.086" x2="259.7673" y2="373.114">
			<stop  offset="0" style="stop-color:#8DCED2"/>
			<stop  offset="1" style="stop-color:#4CB8EA"/>
		</linearGradient>
		<line class="st13" x1="251.3" y1="381.7" x2="261.9" y2="375.5"/>
		<g>
			<linearGradient id="SVGID_15_" gradientUnits="userSpaceOnUse" x1="199.6551" y1="417.1819" x2="206.7867" y2="404.8296">
				<stop  offset="0" style="stop-color:#8DCED2"/>
				<stop  offset="1" style="stop-color:#4CB8EA"/>
			</linearGradient>
			<path class="st14" d="M221.7,424.6c0,3.3-2,2.9-3.9,1.7l-29.4-16.8c-2.1-1.1-3.5-2-3.5-4.6v-7.5c0-2.9,1-3.5,3.9-1.8l29,16.8
				c3.7,2.1,3.9,2.8,3.9,6V424.6z"/>
			<linearGradient id="SVGID_16_" gradientUnits="userSpaceOnUse" x1="214.72" y1="412.5045" x2="234.4177" y2="378.3872">
				<stop  offset="0" style="stop-color:#8DCED2"/>
				<stop  offset="1" style="stop-color:#4CB8EA"/>
			</linearGradient>
			<path class="st15" d="M257,406.1c1.3-0.8,1.4-0.6,1.4-2.7v-6.2c0-3.3-0.1-4-3.9-6l-29-16.8c-1.3-0.8-2.2-1.1-2.9-0.9l-0.2,0.1
				l-37,21.4"/>
			<linearGradient id="SVGID_17_" gradientUnits="userSpaceOnUse" x1="229.8389" y1="432.7371" x2="248.7611" y2="399.9629">
				<stop  offset="0" style="stop-color:#8DCED2"/>
				<stop  offset="1" style="stop-color:#4CB8EA"/>
			</linearGradient>
			<line class="st16" x1="220.9" y1="427" x2="257.7" y2="405.7"/>
			<linearGradient id="SVGID_18_" gradientUnits="userSpaceOnUse" x1="247.5759" y1="387.9657" x2="257.1323" y2="371.4135">
				<stop  offset="0" style="stop-color:#8DCED2"/>
				<stop  offset="1" style="stop-color:#4CB8EA"/>
			</linearGradient>
			<path class="st17" d="M257.3,393l11.5-6.6l0.1-0.1c0.2-0.2,0.3-0.6,0.3-1.2v-3.4c0-1.8-0.1-2.2-2.1-3.3l-16-9.3
				c-0.6-0.4-1.1-0.6-1.5-0.5l-0.2,0.1l-16.9,9.8"/>
		</g>
	</g>
	<g>
		<linearGradient id="SVGID_19_" gradientUnits="userSpaceOnUse" x1="139.7542" y1="102.0275" x2="188.9073" y2="16.8917">
			<stop  offset="0" style="stop-color:#8DCED2"/>
			<stop  offset="1" style="stop-color:#4CB8EA"/>
		</linearGradient>
		<path class="st18" d="M70-49.3L251.7,54.3l0.6,0.4c5.7,3.6,8.6,8.1,8.6,13.4c0,11-15,19.9-33.4,19.9c-9.2,0-17.4-2.1-23.4-5.6
			l-0.7-0.4l-36-20.6l-0.4-0.3c-6.1-3.8-14.5-6.1-24-6.1c-18.5,0-33.5,8.9-33.5,20c0,5.3,3.4,10,9,13.6l0.4,0.2l139.6,79.7"/>
		<linearGradient id="SVGID_20_" gradientUnits="userSpaceOnUse" x1="288.9807" y1="212.9623" x2="312.2662" y2="172.6306">
			<stop  offset="0" style="stop-color:#8DCED2"/>
			<stop  offset="1" style="stop-color:#4CB8EA"/>
		</linearGradient>
		<path class="st19" d="M318.3,188.8c0.2-0.5,0.4-1.2,0.4-1.9v-7.3c0-2.9-1-3.4-3.8-1.8l-28.6,16.4c-3.7,2-3.8,2.7-3.8,5.9v6.1
			c0,3.2,1.9,2.9,3.8,1.6l7.9-4.5"/>
		<linearGradient id="SVGID_21_" gradientUnits="userSpaceOnUse" x1="267.7947" y1="200.8613" x2="291.1167" y2="160.4665">
			<stop  offset="0" style="stop-color:#8DCED2"/>
			<stop  offset="1" style="stop-color:#4CB8EA"/>
		</linearGradient>
		<path class="st20" d="M318.1,177.2l-36.5-20.9l-0.2-0.1c-0.6-0.2-1.5,0.1-2.8,0.8L250,173.4c-3.7,2-3.8,2.7-3.8,5.9v6.1
			c0,1.2,0.3,1.9,0.7,2.2l0.1,0.1l36.3,20.7"/>
		<linearGradient id="SVGID_22_" gradientUnits="userSpaceOnUse" x1="314.1574" y1="215.9294" x2="327.4729" y2="192.8665">
			<stop  offset="0" style="stop-color:#8DCED2"/>
			<stop  offset="1" style="stop-color:#4CB8EA"/>
		</linearGradient>
		<path class="st21" d="M310.8,211.8c0,1.8,1.1,1.6,2.1,0.9l16-9.1c1.2-0.6,1.9-1.1,1.9-2.5v-4c0-1.6-0.6-1.9-2.1-1l-15.8,9
			c-2,1.1-2.1,1.5-2.1,3.2V211.8z"/>
		<linearGradient id="SVGID_23_" gradientUnits="userSpaceOnUse" x1="302.4375" y1="209.0118" x2="315.674" y2="186.0855">
			<stop  offset="0" style="stop-color:#8DCED2"/>
			<stop  offset="1" style="stop-color:#4CB8EA"/>
		</linearGradient>
		<path class="st22" d="M330.5,195.8l-20.1-11.5l0,0c-0.3-0.2-0.9,0-1.6,0.4l-15.8,9c-2,1.1-2.1,1.5-2.1,3.2v3.3
			c0,0.9,0.1,1,0.7,1.4l19.7,11.3"/>
		<g>
			<linearGradient id="SVGID_24_" gradientUnits="userSpaceOnUse" x1="278.9466" y1="181.0948" x2="285.7534" y2="169.3052">
				<stop  offset="0" style="stop-color:#8DCED2"/>
				<stop  offset="1" style="stop-color:#4CB8EA"/>
			</linearGradient>
			<path class="st23" d="M272.3,171.1l14.4,1.7l-2.9,1.6l8.6,4.9l-14.4-1.6l2.9-1.6L272.3,171.1 M272.3,169.1
				c-0.9,0-1.6,0.5-1.9,1.4s0.1,1.9,0.9,2.4l5.6,3.2c-0.6,0.5-1,1.3-0.8,2c0.2,0.8,0.9,1.5,1.7,1.6l14.4,1.6c0.1,0,0.2,0,0.2,0
				c0.9,0,1.6-0.5,1.9-1.4s-0.1-1.9-0.9-2.4l-5.6-3.2c0.6-0.5,1-1.3,0.8-2c-0.2-0.8-0.9-1.5-1.7-1.6l-14.4-1.7
				C272.5,169.1,272.4,169.1,272.3,169.1L272.3,169.1z"/>
		</g>
		<linearGradient id="SVGID_25_" gradientUnits="userSpaceOnUse" x1="319.2332" y1="195.8451" x2="320.2668" y2="194.0549">
			<stop  offset="0" style="stop-color:#8DCED2"/>
			<stop  offset="1" style="stop-color:#4CB8EA"/>
		</linearGradient>
		<line class="st24" x1="325.1" y1="198" x2="314.4" y2="191.9"/>
		<linearGradient id="SVGID_26_" gradientUnits="userSpaceOnUse" x1="315.5957" y1="198.0235" x2="316.6043" y2="196.2765">
			<stop  offset="0" style="stop-color:#8DCED2"/>
			<stop  offset="1" style="stop-color:#4CB8EA"/>
		</linearGradient>
		<line class="st25" x1="321.4" y1="200.2" x2="310.8" y2="194.1"/>
		<linearGradient id="SVGID_27_" gradientUnits="userSpaceOnUse" x1="311.1957" y1="200.3235" x2="312.2043" y2="198.5765">
			<stop  offset="0" style="stop-color:#8DCED2"/>
			<stop  offset="1" style="stop-color:#4CB8EA"/>
		</linearGradient>
		<line class="st26" x1="317" y1="202.5" x2="306.4" y2="196.4"/>
	</g>
</g>
</svg>
