<?xml version="1.0" encoding="utf-8"?>
<!-- Generator: Adobe Illustrator 22.0.1, SVG Export Plug-In . SVG Version: 6.00 Build 0)  -->
<svg version="1.1" id="Layer_1" xmlns="http://www.w3.org/2000/svg" xmlns:xlink="http://www.w3.org/1999/xlink" x="0px" y="0px"
	 viewBox="0 0 925.9 539.9" style="enable-background:new 0 0 925.9 539.9;" xml:space="preserve">
<style type="text/css">
	.st0{fill:none;stroke:url(#SVGID_1_);stroke-width:2;stroke-miterlimit:10;}
	.st1{fill:none;stroke:url(#SVGID_2_);stroke-width:2;stroke-miterlimit:10;}
	.st2{fill:none;stroke:url(#SVGID_3_);stroke-width:2;stroke-miterlimit:10;}
	.st3{fill:none;stroke:url(#SVGID_4_);stroke-width:2;stroke-miterlimit:10;}
	.st4{fill:none;stroke:url(#SVGID_5_);stroke-width:2;stroke-miterlimit:10;}
	.st5{fill:#4CB8EA;}
	.st6{fill:none;stroke:url(#SVGID_6_);stroke-width:2;stroke-linecap:round;stroke-linejoin:round;stroke-miterlimit:10;}
	.st7{fill:none;stroke:url(#SVGID_7_);stroke-width:2;stroke-linecap:round;stroke-linejoin:round;stroke-miterlimit:10;}
	.st8{fill:none;stroke:url(#SVGID_8_);stroke-width:2;stroke-linecap:round;stroke-linejoin:round;stroke-miterlimit:10;}
	.st9{fill:none;stroke:url(#SVGID_9_);stroke-width:2;stroke-linecap:round;stroke-linejoin:round;stroke-miterlimit:10;}
	.st10{fill:none;stroke:url(#SVGID_10_);stroke-width:2;stroke-linecap:round;stroke-linejoin:round;stroke-miterlimit:10;}
	.st11{fill:none;stroke:url(#SVGID_11_);stroke-width:2;stroke-linecap:round;stroke-linejoin:round;stroke-miterlimit:10;}
	.st12{fill:none;stroke:url(#SVGID_12_);stroke-width:2;stroke-linecap:round;stroke-linejoin:round;stroke-miterlimit:10;}
	.st13{fill:none;stroke:url(#SVGID_13_);stroke-width:2;stroke-miterlimit:10;}
	.st14{fill:none;stroke:url(#SVGID_14_);stroke-width:2;stroke-miterlimit:10;}
	.st15{fill:none;stroke:url(#SVGID_15_);stroke-width:2;stroke-miterlimit:10;}
	.st16{fill:none;stroke:url(#SVGID_16_);stroke-width:2;stroke-miterlimit:10;}
	.st17{fill:none;stroke:url(#SVGID_17_);stroke-width:2;stroke-miterlimit:10;}
	.st18{fill:none;stroke:url(#SVGID_18_);stroke-width:2;stroke-miterlimit:10;}
	.st19{fill:none;stroke:url(#SVGID_19_);stroke-width:2;stroke-miterlimit:10;}
	.st20{fill:none;stroke:url(#SVGID_20_);stroke-width:2;stroke-miterlimit:10;}
	.st21{fill:none;stroke:url(#SVGID_21_);stroke-width:2;stroke-miterlimit:10;}
	.st22{fill:none;stroke:url(#SVGID_22_);stroke-width:2;stroke-linecap:round;stroke-linejoin:round;stroke-miterlimit:10;}
	.st23{fill:none;stroke:url(#SVGID_23_);stroke-width:2;stroke-linecap:round;stroke-linejoin:round;stroke-miterlimit:10;}
	.st24{fill:none;stroke:url(#SVGID_24_);stroke-width:2;stroke-linecap:round;stroke-linejoin:round;stroke-miterlimit:10;}
</style>
<g>
	
		<linearGradient id="SVGID_1_" gradientUnits="userSpaceOnUse" x1="752.0705" y1="375.5804" x2="1054.1278" y2="-147.5984" gradientTransform="matrix(1 0 0 1 0 -2)">
		<stop  offset="0" style="stop-color:#8DCED2"/>
		<stop  offset="1" style="stop-color:#4CB8EA"/>
	</linearGradient>
	<path class="st0" d="M1168.4-83l-450,259.3l-0.9,0.5c-8.3,5.3-12.8,12.1-12.8,20c0,16.3,22.1,29.7,49.3,29.7
		c13.5,0,25.7-3.1,34.5-8.4l1.1-0.6l10.8-6.8l0.6-0.3c9-5.6,21.3-9,35.3-9c27.3,0,49.5,13.3,49.5,29.8c0,7.9-5,14.8-13.2,20.2
		l-0.5,0.3l-162.4,96.9"/>
	
		<linearGradient id="SVGID_2_" gradientUnits="userSpaceOnUse" x1="649.7722" y1="389.9829" x2="658.5943" y2="374.7025" gradientTransform="matrix(1 0 0 1 0 -2)">
		<stop  offset="0" style="stop-color:#8DCED2"/>
		<stop  offset="1" style="stop-color:#4CB8EA"/>
	</linearGradient>
	<path class="st1" d="M631,375.1c-0.3-0.6-0.5-1.5-0.5-2.6v-9.6c0-3.8,1.3-4.5,5-2.4l37.5,21.7c4.8,2.7,5,3.6,5,7.8v8
		c0,4.2-2.5,3.8-5,2.2l-10.4-6"/>
	
		<linearGradient id="SVGID_3_" gradientUnits="userSpaceOnUse" x1="662.4845" y1="395.4665" x2="694.1108" y2="340.6881" gradientTransform="matrix(1 0 0 1 0 -2)">
		<stop  offset="0" style="stop-color:#8DCED2"/>
		<stop  offset="1" style="stop-color:#4CB8EA"/>
	</linearGradient>
	<path class="st2" d="M631.2,359.9l47.6-27.6l0.2-0.1c0.8-0.3,1.9,0.1,3.7,1.1l37.5,21.7c4.8,2.7,5,3.6,5,7.8v8
		c0,1.5-0.3,2.5-0.9,2.9l-0.1,0.1l-47.4,27.4"/>
	
		<linearGradient id="SVGID_4_" gradientUnits="userSpaceOnUse" x1="624.991" y1="402.3402" x2="630.3369" y2="393.0811" gradientTransform="matrix(1 0 0 1 0 -2)">
		<stop  offset="0" style="stop-color:#8DCED2"/>
		<stop  offset="1" style="stop-color:#4CB8EA"/>
	</linearGradient>
	<path class="st3" d="M640.7,405.5c0,2.4-1.4,2.1-2.7,1.2l-20.9-12c-1.5-0.8-2.5-1.4-2.5-3.2v-5.3c0-2.1,0.8-2.5,2.7-1.3l20.7,11.9
		c2.6,1.5,2.7,1.9,2.7,4.3L640.7,405.5L640.7,405.5z"/>
	
		<linearGradient id="SVGID_5_" gradientUnits="userSpaceOnUse" x1="632.176" y1="405.1112" x2="649.9954" y2="374.247" gradientTransform="matrix(1 0 0 1 0 -2)">
		<stop  offset="0" style="stop-color:#8DCED2"/>
		<stop  offset="1" style="stop-color:#4CB8EA"/>
	</linearGradient>
	<path class="st4" d="M615,384.5l26.3-15.3l0,0c0.4-0.2,1.1,0,2.2,0.5l20.7,11.9c2.6,1.5,2.7,1.9,2.7,4.3v4.4c0,1.2-0.2,1.4-1,1.8
		L640.1,407"/>
	<g>
		<path class="st5" d="M690.9,351.8l-11.4,6.5l3.8,2.2l-18.7,2.2l11.3-6.5l-3.8-2.2L690.9,351.8 M690.9,349.6c-0.1,0-0.2,0-0.2,0
			l-18.8,2.2c-1,0.1-1.7,0.8-1.8,1.7c-0.1,1,0.2,1.8,1.1,2.3l0.5,0.3l-8,4.7c-0.9,0.5-1.3,1.6-1,2.6c0.3,0.9,1.1,1.5,2.1,1.5
			c0.1,0,0.2,0,0.2,0l18.7-2.2c1-0.1,1.7-0.8,1.8-1.7c0.1-1-0.2-1.8-1.1-2.3l-0.5-0.3l8.1-4.7c0.9-0.5,1.3-1.6,1-2.6
			C692.8,350.2,691.9,349.6,690.9,349.6L690.9,349.6z M690.9,353.9L690.9,353.9L690.9,353.9L690.9,353.9z"/>
	</g>
	
		<linearGradient id="SVGID_6_" gradientUnits="userSpaceOnUse" x1="625.0804" y1="392.1303" x2="633.0396" y2="378.3448" gradientTransform="matrix(1 0 0 1 0 -2)">
		<stop  offset="0" style="stop-color:#8DCED2"/>
		<stop  offset="1" style="stop-color:#4CB8EA"/>
	</linearGradient>
	<line class="st6" x1="622.1" y1="387.3" x2="636" y2="379.3"/>
	
		<linearGradient id="SVGID_7_" gradientUnits="userSpaceOnUse" x1="629.7917" y1="395.0108" x2="637.7308" y2="381.2599" gradientTransform="matrix(1 0 0 1 0 -2)">
		<stop  offset="0" style="stop-color:#8DCED2"/>
		<stop  offset="1" style="stop-color:#4CB8EA"/>
	</linearGradient>
	<line class="st7" x1="626.8" y1="390.2" x2="640.7" y2="382.2"/>
	
		<linearGradient id="SVGID_8_" gradientUnits="userSpaceOnUse" x1="635.5269" y1="398.0366" x2="643.4589" y2="384.2977" gradientTransform="matrix(1 0 0 1 0 -2)">
		<stop  offset="0" style="stop-color:#8DCED2"/>
		<stop  offset="1" style="stop-color:#4CB8EA"/>
	</linearGradient>
	<line class="st8" x1="632.6" y1="393.2" x2="646.4" y2="385.2"/>
</g>
<g>
	
		<linearGradient id="SVGID_9_" gradientUnits="userSpaceOnUse" x1="283.0348" y1="733.3361" x2="494.5425" y2="366.9939" gradientTransform="matrix(1 0 0 1 0 -2)">
		<stop  offset="0" style="stop-color:#8DCED2"/>
		<stop  offset="1" style="stop-color:#4CB8EA"/>
	</linearGradient>
	<path class="st9" d="M204.7,685l309.7-178.4l0.6-0.4c6.2-3.9,9.3-8.9,9.3-14.7c0-12-16.2-21.8-36.2-21.8c-10,0-18.8,2.3-25.3,6.2
		l-0.8,0.4l-39,22.5l-0.4,0.3c-6.6,4.1-15.7,6.6-26,6.6c-20,0-36.3-9.7-36.3-21.9c0-5.7,3.7-10.9,9.7-14.8l0.4-0.2l151-87.1"/>
	<g>
		<path class="st5" d="M552.2,357.8l-9.4,5.4l3.1,1.8l-15.6,1.8l9.3-5.4l-3.1-1.8L552.2,357.8 M552.2,355.7c-0.1,0-0.2,0-0.2,0
			l-15.6,1.8c-1,0.1-1.7,0.8-1.8,1.7c-0.2,0.9,0.2,1.7,0.9,2.3l-6.1,3.5c-0.9,0.5-1.3,1.6-1,2.6c0.3,0.9,1.1,1.5,2.1,1.5
			c0.1,0,0.2,0,0.2,0l15.6-1.8c1-0.1,1.7-0.8,1.8-1.7c0.2-0.9-0.2-1.7-0.9-2.3l6.2-3.6c0.9-0.5,1.3-1.6,1-2.6
			C554,356.3,553.1,355.7,552.2,355.7L552.2,355.7z M552.2,360L552.2,360L552.2,360L552.2,360z"/>
	</g>
	
		<linearGradient id="SVGID_10_" gradientUnits="userSpaceOnUse" x1="567.0973" y1="349.6619" x2="573.8302" y2="338.0002" gradientTransform="matrix(1 0 0 1 0 -2)">
		<stop  offset="0" style="stop-color:#8DCED2"/>
		<stop  offset="1" style="stop-color:#4CB8EA"/>
	</linearGradient>
	<line class="st10" x1="564.7" y1="345.2" x2="576.2" y2="338.6"/>
	
		<linearGradient id="SVGID_11_" gradientUnits="userSpaceOnUse" x1="570.9824" y1="352.0377" x2="577.7142" y2="340.3779" gradientTransform="matrix(1 0 0 1 0 -2)">
		<stop  offset="0" style="stop-color:#8DCED2"/>
		<stop  offset="1" style="stop-color:#4CB8EA"/>
	</linearGradient>
	<line class="st11" x1="568.6" y1="347.6" x2="580.1" y2="340.9"/>
	
		<linearGradient id="SVGID_12_" gradientUnits="userSpaceOnUse" x1="575.7155" y1="354.617" x2="582.4921" y2="342.8795" gradientTransform="matrix(1 0 0 1 0 -2)">
		<stop  offset="0" style="stop-color:#8DCED2"/>
		<stop  offset="1" style="stop-color:#4CB8EA"/>
	</linearGradient>
	<line class="st12" x1="573.4" y1="350.2" x2="584.8" y2="343.4"/>
	<g>
		
			<linearGradient id="SVGID_13_" gradientUnits="userSpaceOnUse" x1="517.4932" y1="390.4391" x2="525.1296" y2="377.2123" gradientTransform="matrix(1 0 0 1 0 -2)">
			<stop  offset="0" style="stop-color:#8DCED2"/>
			<stop  offset="1" style="stop-color:#4CB8EA"/>
		</linearGradient>
		<path class="st13" d="M541.3,396.6c0,3.6-2.2,3.1-4.2,1.8l-31.8-18.2c-2.3-1.2-3.8-2.2-3.8-5v-8.1c0-3.1,1.1-3.8,4.2-1.9
			l31.4,18.2c4,2.3,4.2,3,4.2,6.5V396.6L541.3,396.6z"/>
		
			<linearGradient id="SVGID_14_" gradientUnits="userSpaceOnUse" x1="533.7746" y1="385.4121" x2="555.0379" y2="348.5831" gradientTransform="matrix(1 0 0 1 0 -2)">
			<stop  offset="0" style="stop-color:#8DCED2"/>
			<stop  offset="1" style="stop-color:#4CB8EA"/>
		</linearGradient>
		<path class="st14" d="M579.5,376.6c1.4-0.9,1.5-0.6,1.5-2.9V367c0-3.6-0.1-4.3-4.2-6.5l-31.4-18.2c-1.4-0.9-2.4-1.2-3.1-1
			l-0.2,0.1L502,364.6"/>
		
			<linearGradient id="SVGID_15_" gradientUnits="userSpaceOnUse" x1="550.1746" y1="407.3156" x2="570.6254" y2="371.8941" gradientTransform="matrix(1 0 0 1 0 -2)">
			<stop  offset="0" style="stop-color:#8DCED2"/>
			<stop  offset="1" style="stop-color:#4CB8EA"/>
		</linearGradient>
		<line class="st15" x1="540.5" y1="399.2" x2="580.3" y2="376.1"/>
		
			<linearGradient id="SVGID_16_" gradientUnits="userSpaceOnUse" x1="569.3573" y1="358.8489" x2="579.6404" y2="341.0381" gradientTransform="matrix(1 0 0 1 0 -2)">
			<stop  offset="0" style="stop-color:#8DCED2"/>
			<stop  offset="1" style="stop-color:#4CB8EA"/>
		</linearGradient>
		<path class="st16" d="M579.9,362.4l12.4-7.1l0.1-0.1c0.2-0.2,0.3-0.6,0.3-1.3v-3.7c0-1.9-0.1-2.4-2.3-3.6l-17.3-10.1
			c-0.6-0.4-1.2-0.6-1.6-0.5l-0.2,0.1L553,346.7"/>
	</g>
</g>
<g>
	
		<linearGradient id="SVGID_17_" gradientUnits="userSpaceOnUse" x1="399.4649" y1="100.4279" x2="452.6054" y2="8.3856" gradientTransform="matrix(1 0 0 1 0 -2)">
		<stop  offset="0" style="stop-color:#8DCED2"/>
		<stop  offset="1" style="stop-color:#4CB8EA"/>
	</linearGradient>
	<path class="st17" d="M324-65.3L520.7,46.9l0.6,0.4c6.2,3.9,9.3,8.8,9.3,14.5c0,11.9-16.2,21.5-36.2,21.5c-10,0-18.8-2.3-25.3-6.1
		l-0.8-0.4l-39-22.3l-0.3-0.3c-6.6-4.1-15.7-6.6-26-6.6c-20,0-36.3,9.6-36.3,21.7c0,5.7,3.7,10.8,9.7,14.7l0.4,0.2l151.1,86.3"/>
	
		<linearGradient id="SVGID_18_" gradientUnits="userSpaceOnUse" x1="561.1088" y1="220.5161" x2="586.2357" y2="176.9948" gradientTransform="matrix(1 0 0 1 0 -2)">
		<stop  offset="0" style="stop-color:#8DCED2"/>
		<stop  offset="1" style="stop-color:#4CB8EA"/>
	</linearGradient>
	<path class="st18" d="M592.8,192.5c0.2-0.5,0.4-1.3,0.4-2.1v-7.9c0-3.1-1.1-3.7-4.1-1.9l-31,17.8c-4,2.2-4.1,2.9-4.1,6.4v6.6
		c0,3.5,2.1,3.1,4.1,1.7l8.6-4.9"/>
	
		<linearGradient id="SVGID_19_" gradientUnits="userSpaceOnUse" x1="538.2465" y1="207.4572" x2="563.4131" y2="163.8675" gradientTransform="matrix(1 0 0 1 0 -2)">
		<stop  offset="0" style="stop-color:#8DCED2"/>
		<stop  offset="1" style="stop-color:#4CB8EA"/>
	</linearGradient>
	<path class="st19" d="M592.6,179.9l-39.5-22.6l-0.2-0.1c-0.6-0.2-1.6,0.1-3,0.9l-31,17.8c-4,2.2-4.1,2.9-4.1,6.4v6.6
		c0,1.3,0.3,2.1,0.8,2.4l0.1,0.1l39.3,22.4"/>
	
		<linearGradient id="SVGID_20_" gradientUnits="userSpaceOnUse" x1="588.3896" y1="223.7304" x2="602.7208" y2="198.9085" gradientTransform="matrix(1 0 0 1 0 -2)">
		<stop  offset="0" style="stop-color:#8DCED2"/>
		<stop  offset="1" style="stop-color:#4CB8EA"/>
	</linearGradient>
	<path class="st20" d="M584.7,217.4c0,1.9,1.2,1.7,2.3,1l17.3-9.9c1.3-0.6,2.1-1.2,2.1-2.7v-4.3c0-1.7-0.6-2.1-2.3-1.1l-17.1,9.7
		c-2.2,1.2-2.3,1.6-2.3,3.5V217.4z"/>
	
		<linearGradient id="SVGID_21_" gradientUnits="userSpaceOnUse" x1="575.6749" y1="216.208" x2="589.9279" y2="191.521" gradientTransform="matrix(1 0 0 1 0 -2)">
		<stop  offset="0" style="stop-color:#8DCED2"/>
		<stop  offset="1" style="stop-color:#4CB8EA"/>
	</linearGradient>
	<path class="st21" d="M606,200l-21.8-12.4l0,0c-0.3-0.2-1,0-1.7,0.4l-17.1,9.7c-2.2,1.2-2.3,1.6-2.3,3.5v3.6c0,1,0.1,1.1,0.8,1.5
		l21.3,12.2"/>
	<g>
		<path class="st5" d="M543,173.3l15.6,1.8l-3.1,1.7l9.3,5.3l-15.6-1.7l3.1-1.7L543,173.3 M543,171.1c-1,0-1.7,0.5-2.1,1.5
			c-0.3,1,0.1,2.1,1,2.6l6.1,3.5c-0.6,0.5-1.1,1.4-0.9,2.2c0.2,0.9,1,1.6,1.8,1.7l15.6,1.7c0.1,0,0.2,0,0.2,0c1,0,1.7-0.5,2.1-1.5
			c0.4-1-0.1-2.1-1-2.6l-6.1-3.5c0.6-0.5,1.1-1.4,0.9-2.2c-0.2-0.9-1-1.6-1.8-1.7l-15.6-1.8C543.2,171.1,543.1,171.1,543,171.1
			L543,171.1z"/>
	</g>
	
		<linearGradient id="SVGID_22_" gradientUnits="userSpaceOnUse" x1="593.8682" y1="201.9759" x2="594.9067" y2="200.1773" gradientTransform="matrix(1 0 0 1 0 -2)">
		<stop  offset="0" style="stop-color:#8DCED2"/>
		<stop  offset="1" style="stop-color:#4CB8EA"/>
	</linearGradient>
	<line class="st22" x1="600.2" y1="202.4" x2="588.6" y2="195.8"/>
	
		<linearGradient id="SVGID_23_" gradientUnits="userSpaceOnUse" x1="589.9366" y1="204.344" x2="590.9485" y2="202.5914" gradientTransform="matrix(1 0 0 1 0 -2)">
		<stop  offset="0" style="stop-color:#8DCED2"/>
		<stop  offset="1" style="stop-color:#4CB8EA"/>
	</linearGradient>
	<line class="st23" x1="596.2" y1="204.8" x2="584.7" y2="198.2"/>
	
		<linearGradient id="SVGID_24_" gradientUnits="userSpaceOnUse" x1="585.1457" y1="206.8283" x2="586.1576" y2="205.0757" gradientTransform="matrix(1 0 0 1 0 -2)">
		<stop  offset="0" style="stop-color:#8DCED2"/>
		<stop  offset="1" style="stop-color:#4CB8EA"/>
	</linearGradient>
	<line class="st24" x1="591.4" y1="207.3" x2="579.9" y2="200.7"/>
</g>
</svg>
