<?xml version="1.0" encoding="utf-8"?>
<!-- Generator: Adobe Illustrator 21.0.0, SVG Export Plug-In . SVG Version: 6.00 Build 0)  -->
<svg version="1.1" id="Layer_1" xmlns="http://www.w3.org/2000/svg" xmlns:xlink="http://www.w3.org/1999/xlink" x="0px" y="0px"
	 viewBox="0 0 600 600" style="enable-background:new 0 0 600 600;" xml:space="preserve">
<style type="text/css">
	.st0{fill:none;stroke:#4CB8EA;stroke-width:2;stroke-miterlimit:10;}
	.st1{fill:#8DCED2;stroke:#4CB8EA;stroke-miterlimit:10;}
	.st2{fill:none;stroke:#4CB8EA;stroke-width:2;stroke-linecap:round;stroke-linejoin:round;stroke-miterlimit:10;}
</style>
<g>
	<path class="st0" d="M832.3-50L416.6,189.5l-0.8,0.5c-7.7,4.9-11.8,11.2-11.8,18.5c0,15.1,20.4,27.4,45.5,27.4
		c12.5,0,23.7-2.9,31.9-7.8l1-0.6l10-6.3l0.6-0.3c8.3-5.2,19.7-8.3,32.6-8.3c25.2,0,45.7,12.3,45.7,27.5c0,7.3-4.6,13.7-12.2,18.7
		l-0.5,0.3l-150,89.5"/>
	<path class="st0" d="M335.9,373.2c-0.3-0.6-0.5-1.4-0.5-2.4v-8.9c0-3.5,1.2-4.2,4.6-2.2l34.6,20c4.4,2.5,4.6,3.3,4.6,7.2v7.4
		c0,3.9-2.3,3.5-4.6,2l-9.6-5.5"/>
	<path class="st0" d="M336.1,359.1l44-25.5l0.2-0.1c0.7-0.3,1.8,0.1,3.4,1l34.6,20c4.4,2.5,4.6,3.3,4.6,7.2v7.4
		c0,1.4-0.3,2.3-0.8,2.7l-0.1,0.1l-43.8,25.3"/>
	<path class="st0" d="M344.9,401.2c0,2.2-1.3,1.9-2.5,1.1l-19.3-11.1c-1.4-0.7-2.3-1.3-2.3-3v-4.9c0-1.9,0.7-2.3,2.5-1.2l19.1,11
		c2.4,1.4,2.5,1.8,2.5,4L344.9,401.2L344.9,401.2z"/>
	<path class="st0" d="M321.2,381.8l24.3-14.1l0,0c0.4-0.2,1,0,2,0.5l19.1,11c2.4,1.4,2.5,1.8,2.5,4v4.1c0,1.1-0.2,1.3-0.9,1.7
		l-23.8,13.8"/>
	<g>
		<path class="st1" d="M391.3,351.6l-10.5,6l3.5,2l-17.3,2l10.4-6l-3.5-2L391.3,351.6 M391.3,349.6c-0.1,0-0.2,0-0.2,0l-17.4,2
			c-0.9,0.1-1.6,0.7-1.7,1.6s0.2,1.7,1,2.1l0.5,0.3l-7.4,4.3c-0.8,0.5-1.2,1.5-0.9,2.4c0.3,0.8,1,1.4,1.9,1.4c0.1,0,0.2,0,0.2,0
			l17.3-2c0.9-0.1,1.6-0.7,1.7-1.6s-0.2-1.7-1-2.1l-0.5-0.3l7.5-4.3c0.8-0.5,1.2-1.5,0.9-2.4C393,350.2,392.2,349.6,391.3,349.6
			L391.3,349.6z M391.3,353.6L391.3,353.6L391.3,353.6L391.3,353.6z"/>
	</g>
	<line class="st2" x1="327.7" y1="384.4" x2="340.6" y2="377"/>
	<line class="st2" x1="332.1" y1="387.1" x2="344.9" y2="379.7"/>
	<line class="st2" x1="337.4" y1="389.9" x2="350.2" y2="382.5"/>
</g>
</svg>
