<?xml version="1.0" encoding="utf-8"?>
<!-- Generator: Adobe Illustrator 22.0.1, SVG Export Plug-In . SVG Version: 6.00 Build 0)  -->
<svg version="1.1" id="Layer_1" xmlns="http://www.w3.org/2000/svg" xmlns:xlink="http://www.w3.org/1999/xlink" x="0px" y="0px"
	 viewBox="0 0 600.9 595.3" style="enable-background:new 0 0 600.9 595.3;" xml:space="preserve">
<style type="text/css">
	.st0{fill:none;stroke:#435A89;stroke-width:2;stroke-miterlimit:10;}
	.st1{fill:#435A89;}
	.st2{fill:none;stroke:#435A89;stroke-width:2;stroke-linecap:round;stroke-linejoin:round;stroke-miterlimit:10;}
</style>
<g>
	<path class="st0" d="M768.3,14L352.6,253.5l-0.8,0.5c-7.7,4.9-11.8,11.2-11.8,18.5c0,15.1,20.4,27.4,45.5,27.4
		c12.5,0,23.7-2.9,31.9-7.8l1-0.6l10-6.3l0.6-0.3c8.3-5.2,19.7-8.3,32.6-8.3c25.2,0,45.7,12.3,45.7,27.5c0,7.3-4.6,13.7-12.2,18.7
		l-0.5,0.3l-150,89.5"/>
	<path class="st0" d="M271.9,437.2c-0.3-0.6-0.5-1.4-0.5-2.4v-8.9c0-3.5,1.2-4.2,4.6-2.2l34.6,20c4.4,2.5,4.6,3.3,4.6,7.2v7.4
		c0,3.9-2.3,3.5-4.6,2l-9.6-5.5"/>
	<path class="st0" d="M272.1,423.1l44-25.5l0.2-0.1c0.7-0.3,1.8,0.1,3.4,1l34.6,20c4.4,2.5,4.6,3.3,4.6,7.2v7.4
		c0,1.4-0.3,2.3-0.8,2.7l-0.1,0.1l-43.8,25.3"/>
	<path class="st0" d="M280.9,465.2c0,2.2-1.3,1.9-2.5,1.1l-19.3-11.1c-1.4-0.7-2.3-1.3-2.3-3v-4.9c0-1.9,0.7-2.3,2.5-1.2l19.1,11
		c2.4,1.4,2.5,1.8,2.5,4L280.9,465.2L280.9,465.2z"/>
	<path class="st0" d="M257.2,445.8l24.3-14.1l0,0c0.4-0.2,1,0,2,0.5l19.1,11c2.4,1.4,2.5,1.8,2.5,4v4.1c0,1.1-0.2,1.3-0.9,1.7
		l-23.8,13.8"/>
	<g>
		<path class="st1" d="M327.3,415.6l-10.5,6l3.5,2l-17.3,2l10.4-6l-3.5-2L327.3,415.6 M327.3,413.6c-0.1,0-0.2,0-0.2,0l-17.4,2
			c-0.9,0.1-1.6,0.7-1.7,1.6s0.2,1.7,1,2.1l0.5,0.3l-7.4,4.3c-0.8,0.5-1.2,1.5-0.9,2.4c0.3,0.8,1,1.4,1.9,1.4c0.1,0,0.2,0,0.2,0
			l17.3-2c0.9-0.1,1.6-0.7,1.7-1.6s-0.2-1.7-1-2.1l-0.5-0.3l7.5-4.3c0.8-0.5,1.2-1.5,0.9-2.4C329,414.2,328.2,413.6,327.3,413.6
			L327.3,413.6z M327.3,417.6L327.3,417.6L327.3,417.6L327.3,417.6z"/>
	</g>
	<line class="st2" x1="263.7" y1="448.4" x2="276.6" y2="441"/>
	<line class="st2" x1="268.1" y1="451.1" x2="280.9" y2="443.7"/>
	<line class="st2" x1="273.4" y1="453.9" x2="286.2" y2="446.5"/>
</g>
<g>
	<path class="st2" d="M-59.2,680l286.1-164.8l0.6-0.4c5.7-3.6,8.6-8.2,8.6-13.6c0-11.1-15-20.1-33.4-20.1c-9.2,0-17.4,2.1-23.4,5.7
		l-0.7,0.4l-36,20.8l-0.4,0.3c-6.1,3.8-14.5,6.1-24,6.1c-18.5,0-33.5-9-33.5-20.2c0-5.3,3.4-10.1,9-13.7l0.4-0.2l139.5-80.5"/>
	<g>
		<path class="st1" d="M261.7,377.8l-8.7,5l2.9,1.7l-14.4,1.7l8.6-5l-2.9-1.7L261.7,377.8 M261.7,375.8c-0.1,0-0.2,0-0.2,0
			l-14.4,1.7c-0.9,0.1-1.6,0.7-1.7,1.6c-0.2,0.8,0.2,1.6,0.8,2.1l-5.6,3.2c-0.8,0.5-1.2,1.5-0.9,2.4c0.3,0.8,1,1.4,1.9,1.4
			c0.1,0,0.2,0,0.2,0l14.4-1.7c0.9-0.1,1.6-0.7,1.7-1.6c0.2-0.8-0.2-1.6-0.8-2.1l5.7-3.3c0.8-0.5,1.2-1.5,0.9-2.4
			C263.4,376.4,262.6,375.8,261.7,375.8L261.7,375.8z M261.7,379.8L261.7,379.8L261.7,379.8L261.7,379.8z"/>
	</g>
	<line class="st2" x1="273.3" y1="366.1" x2="283.9" y2="360"/>
	<line class="st2" x1="276.9" y1="368.3" x2="287.5" y2="362.2"/>
	<line class="st2" x1="281.3" y1="370.7" x2="291.9" y2="364.5"/>
	<g>
		<path class="st0" d="M251.7,413.6c0,3.3-2,2.9-3.9,1.7l-29.4-16.8c-2.1-1.1-3.5-2-3.5-4.6v-7.5c0-2.9,1-3.5,3.9-1.8l29,16.8
			c3.7,2.1,3.9,2.8,3.9,6V413.6z"/>
		<path class="st0" d="M287,395.1c1.3-0.8,1.4-0.6,1.4-2.7v-6.2c0-3.3-0.1-4-3.9-6l-29-16.8c-1.3-0.8-2.2-1.1-2.9-0.9l-0.2,0.1
			l-37,21.4"/>
		<line class="st0" x1="250.9" y1="416" x2="287.7" y2="394.7"/>
		<path class="st0" d="M287.3,382l11.5-6.6l0.1-0.1c0.2-0.2,0.3-0.6,0.3-1.2v-3.4c0-1.8-0.1-2.2-2.1-3.3l-16-9.3
			c-0.6-0.4-1.1-0.6-1.5-0.5l-0.2,0.1l-16.9,9.8"/>
	</g>
</g>
<g>
	<path class="st0" d="M30-29.3L211.7,74.3l0.6,0.4c5.7,3.6,8.6,8.1,8.6,13.4c0,11-15,19.9-33.4,19.9c-9.2,0-17.4-2.1-23.4-5.6
		l-0.7-0.4l-36-20.6l-0.4-0.3c-6.1-3.8-14.5-6.1-24-6.1c-18.5,0-33.5,8.9-33.5,20c0,5.3,3.4,10,9,13.6l0.4,0.2l139.6,79.7"/>
	<path class="st0" d="M278.3,208.8c0.2-0.5,0.4-1.2,0.4-1.9v-7.3c0-2.9-1-3.4-3.8-1.8l-28.6,16.4c-3.7,2-3.8,2.7-3.8,5.9v6.1
		c0,3.2,1.9,2.9,3.8,1.6l7.9-4.5"/>
	<path class="st0" d="M278.1,197.2l-36.5-20.9l-0.2-0.1c-0.6-0.2-1.5,0.1-2.8,0.8L210,193.4c-3.7,2-3.8,2.7-3.8,5.9v6.1
		c0,1.2,0.3,1.9,0.7,2.2l0.1,0.1l36.3,20.7"/>
	<path class="st0" d="M270.8,231.8c0,1.8,1.1,1.6,2.1,0.9l16-9.1c1.2-0.6,1.9-1.1,1.9-2.5v-4c0-1.6-0.6-1.9-2.1-1l-15.8,9
		c-2,1.1-2.1,1.5-2.1,3.2V231.8z"/>
	<path class="st0" d="M290.5,215.8l-20.1-11.5l0,0c-0.3-0.2-0.9,0-1.6,0.4l-15.8,9c-2,1.1-2.1,1.5-2.1,3.2v3.3c0,0.9,0.1,1,0.7,1.4
		l19.7,11.3"/>
	<g>
		<path class="st1" d="M232.3,191.1l14.4,1.7l-2.9,1.6l8.6,4.9l-14.4-1.6l2.9-1.6L232.3,191.1 M232.3,189.1c-0.9,0-1.6,0.5-1.9,1.4
			s0.1,1.9,0.9,2.4l5.6,3.2c-0.6,0.5-1,1.3-0.8,2c0.2,0.8,0.9,1.5,1.7,1.6l14.4,1.6c0.1,0,0.2,0,0.2,0c0.9,0,1.6-0.5,1.9-1.4
			s-0.1-1.9-0.9-2.4l-5.6-3.2c0.6-0.5,1-1.3,0.8-2c-0.2-0.8-0.9-1.5-1.7-1.6l-14.4-1.7C232.5,189.1,232.4,189.1,232.3,189.1
			L232.3,189.1z"/>
	</g>
	<line class="st2" x1="285.1" y1="218" x2="274.4" y2="211.9"/>
	<line class="st2" x1="281.4" y1="220.2" x2="270.8" y2="214.1"/>
	<line class="st2" x1="277" y1="222.5" x2="266.4" y2="216.4"/>
</g>
</svg>
