<?xml version="1.0" encoding="utf-8"?>
<!-- Generator: Adobe Illustrator 22.0.1, SVG Export Plug-In . SVG Version: 6.00 Build 0)  -->
<svg version="1.1" id="Layer_1" xmlns="http://www.w3.org/2000/svg" xmlns:xlink="http://www.w3.org/1999/xlink" x="0px" y="0px"
	 viewBox="0 0 44.3 69.4" style="enable-background:new 0 0 44.3 69.4;" xml:space="preserve">
<style type="text/css">
	.st0{fill:url(#SVGID_1_);}
</style>
<g>
	<linearGradient id="SVGID_1_" gradientUnits="userSpaceOnUse" x1="3.763" y1="66.5984" x2="40.5067" y2="2.9564">
		<stop  offset="0" style="stop-color:#A5D6D7"/>
		<stop  offset="0.456" style="stop-color:#8CCED2"/>
		<stop  offset="1" style="stop-color:#4CA6DD"/>
	</linearGradient>
	<path class="st0" d="M9.6,69.4c0,0-0.1,0-0.1,0c-0.5,0-0.9-0.1-1.3-0.3c-1-0.5-1.5-1.6-1.2-2.7l6.3-29.2H2.5c-1,0-1.9-0.6-2.3-1.5
		c-0.4-0.9-0.2-2,0.5-2.7L32.9,0.7c0.8-0.8,2-1,3-0.4c1,0.5,1.5,1.6,1.2,2.7l-6.3,29.2l11,0c1,0,1.9,0.6,2.3,1.5
		c0.4,0.9,0.2,2-0.5,2.7L11.4,68.7C10.9,69.2,10.3,69.4,9.6,69.4z M8.5,32.2h7.7c0.8,0,1.5,0.3,1.9,0.9c0.5,0.6,0.7,1.4,0.5,2.1
		l-5.2,24.3l22.3-22.3l-8,0c-0.8,0-1.5-0.3-1.9-0.9c-0.5-0.6-0.7-1.4-0.5-2.1l5.1-23.9L8.5,32.2z"/>
</g>
</svg>
