<?xml version="1.0" encoding="utf-8"?>
<!-- Generator: Adobe Illustrator 22.0.1, SVG Export Plug-In . SVG Version: 6.00 Build 0)  -->
<svg version="1.1" id="Layer_1" xmlns="http://www.w3.org/2000/svg" xmlns:xlink="http://www.w3.org/1999/xlink" x="0px" y="0px"
	 viewBox="0 0 102.4 102.5" style="enable-background:new 0 0 102.4 102.5;" xml:space="preserve">
<style type="text/css">
	.st0{fill:#4DA7DE;}
</style>
<g>
	<path class="st0" d="M83.2,98.2H66.1c-1.1,0-2-0.8-2.1-1.8c-0.2-1.2-4.3-28.5-4.3-38.7c0.2-5,2-9.9,5.2-13.8c1.8-2.1,3-4.8,3.4-7.6
		c-0.3-2.5-0.9-4.9-1.8-7.2c-1.9-5.9-4.1-12.6-1-16.9c2.3-2.6,5.7-4,9.2-3.6c3.5-0.4,6.9,1,9.2,3.6c3.1,4.3,1,11-1,16.9
		c-0.9,2.3-1.5,4.7-1.8,7.2c0.3,2.8,1.5,5.4,3.4,7.6c3.2,3.9,5,8.7,5.2,13.8c0,10.2-4.1,37.5-4.3,38.7
		C85.2,97.4,84.3,98.2,83.2,98.2z M68,93.9h13.4c0.9-6.4,4-27.9,4-36.3c-0.2-4.2-1.8-8.2-4.4-11.4c-2.4-2.8-3.8-6.3-4.1-10
		c0.3-2.9,0.9-5.8,2-8.5c1.5-4.7,3.5-10.5,1.6-13.1c-1.5-1.5-3.6-2.2-5.7-1.9c-2.1-0.3-4.2,0.4-5.7,1.9c-1.9,2.6,0,8.4,1.6,13.1
		c1.1,2.7,1.8,5.6,2,8.5c-0.3,3.7-1.7,7.1-4.1,10c-2.7,3.2-4.2,7.2-4.4,11.4C64,66.1,67,87.5,68,93.9z"/>
	<path class="st0" d="M96,89.7H84.4c-1.2,0-2.1-0.9-2.2-2.1c0-0.1,0-0.2,0-0.3c1.5-9.8,2.6-19.7,3-29.6c-0.2-4.2-1.8-8.2-4.4-11.4
		c-2.1-2.6-3.4-5.6-4-8.9c0-0.5,0.1-1,0.4-1.4l0.4-0.6c1.8-2.1,3-4.8,3.4-7.6c-0.1-1.3-0.3-2.5-0.7-3.7c-0.1-0.4-0.1-0.8,0-1.1
		c1.9-7.2,0.2-8.8-2-9.5c-0.8-0.3-1.3-0.9-1.4-1.7c-0.7-3,0-6.1,1.8-8.5c2.3-2.3,5.5-3.4,8.8-3.1c3.5-0.4,6.9,1,9.2,3.6
		c3.1,4.3,1,11-1,16.9c-0.9,2.3-1.5,4.7-1.8,7.2c0.3,2.8,1.5,5.4,3.4,7.6c3.2,3.9,5,8.7,5.2,13.8c0,10.2-4.1,37.5-4.3,38.7
		C98,88.9,97.1,89.7,96,89.7z M86.9,85.4h7.3c0.9-6.4,4-27.9,4-36.3c-0.2-4.2-1.8-8.2-4.4-11.4c-2.4-2.8-3.8-6.3-4.1-10
		c0.3-2.9,0.9-5.8,2-8.5c1.5-4.7,3.5-10.5,1.6-13.1c-1.5-1.5-3.6-2.2-5.7-1.9c-2-0.2-4,0.3-5.5,1.6c-0.8,1.1-1.1,2.6-0.9,3.9
		c6,3,4.4,10.4,3.6,13.6c0.4,1.4,0.7,2.9,0.7,4.3c-0.3,3.6-1.7,7.1-4,9.9c0.7,2.2,1.7,4.3,3.2,6.2c3.2,3.9,5,8.8,5.1,13.8
		C89.2,67,88.3,76.2,86.9,85.4z"/>
	<path class="st0" d="M64.9,89.7h-8.4c-1.2,0-2.1-1-2.1-2.1c0-0.4,0.1-0.9,0.4-1.2c8.7-12.4,5.7-29.6-6.6-38.4
		c-0.7-0.5-1-1.3-0.9-2.1c0.8-3.8,2.5-7.4,4.9-10.4c1.8-2.1,3-4.8,3.3-7.6c-0.3-2.5-0.9-4.9-1.8-7.2c-1.9-5.9-4.1-12.6-1-16.9
		c2.3-2.6,5.7-4,9.2-3.6c3.2-0.3,6.4,0.8,8.8,3.1c1.8,2.4,2.5,5.5,1.8,8.5c-0.1,0.8-0.7,1.5-1.4,1.7c-2.2,0.7-3.9,2.4-2,9.5
		c0.1,0.4,0.1,0.8,0,1.1c-0.4,1.2-0.6,2.5-0.7,3.7c0.3,2.8,1.5,5.4,3.4,7.6l0.4,0.6c0.3,0.4,0.4,0.9,0.4,1.4c-0.6,3.2-1.9,6.3-4,8.9
		c-2.7,3.2-4.2,7.2-4.4,11.4c0.5,9.9,1.5,19.8,3,29.6c0.2,1.2-0.7,2.2-1.8,2.4C65.1,89.7,65,89.7,64.9,89.7L64.9,89.7L64.9,89.7z
		 M60.3,85.4h2.2c-0.2-1.2-0.3-2.5-0.5-3.7C61.5,82.9,60.9,84.2,60.3,85.4z M51.8,45.3c3.3,2.6,6.1,5.9,8.2,9.6
		c0.7-4,2.4-7.8,4.9-11c1.4-1.8,2.5-3.9,3.2-6.2c-2.3-2.8-3.8-6.3-4-9.9c0.1-1.5,0.3-2.9,0.7-4.3c-0.9-3.2-2.4-10.6,3.6-13.6
		c0.2-1.4-0.1-2.8-0.9-3.9c-1.5-1.3-3.6-1.9-5.5-1.6c-2.1-0.3-4.2,0.4-5.7,1.9c-1.9,2.6,0,8.4,1.6,13.1c1.1,2.7,1.8,5.6,2,8.5
		c-0.3,3.7-1.7,7.2-4.1,10C54,40.1,52.6,42.6,51.8,45.3L51.8,45.3L51.8,45.3z"/>
	<path class="st0" d="M32,102.5c-17.7,0-32-14.3-32-32c0-17.7,14.3-32,32-32c17.7,0,32,14.3,32,32C64,88.1,49.7,102.5,32,102.5z
		 M32,42.7c-15.3,0-27.7,12.4-27.7,27.7c0,15.3,12.4,27.7,27.7,27.7c15.3,0,27.7-12.4,27.7-27.7C59.7,55.2,47.3,42.8,32,42.7z"/>
	<path class="st0" d="M23.5,64.1c-3.5,0-6.4-2.9-6.4-6.4c0-3.5,2.9-6.4,6.4-6.4c3.5,0,6.4,2.9,6.4,6.4C29.9,61.2,27,64.1,23.5,64.1z
		 M23.5,55.5c-1.2,0-2.1,1-2.1,2.1c0,1.2,1,2.1,2.1,2.1c1.2,0,2.1-1,2.1-2.1C25.6,56.5,24.6,55.5,23.5,55.5z"/>
	<path class="st0" d="M14.9,76.9c-3.5,0-6.4-2.9-6.4-6.4c0-3.5,2.9-6.4,6.4-6.4c3.5,0,6.4,2.9,6.4,6.4C21.3,74,18.5,76.9,14.9,76.9z
		 M14.9,68.3c-1.2,0-2.1,1-2.1,2.1c0,1.2,1,2.1,2.1,2.1c1.2,0,2.1-1,2.1-2.1C17.1,69.3,16.1,68.3,14.9,68.3z"/>
	<path class="st0" d="M32,76.9c-3.5,0-6.4-2.9-6.4-6.4c0-3.5,2.9-6.4,6.4-6.4c3.5,0,6.4,2.9,6.4,6.4C38.4,74,35.5,76.9,32,76.9z
		 M32,68.3c-1.2,0-2.1,1-2.1,2.1c0,1.2,1,2.1,2.1,2.1c1.2,0,2.1-1,2.1-2.1C34.1,69.3,33.2,68.3,32,68.3z"/>
</g>
</svg>
