<?xml version="1.0" encoding="utf-8"?>
<!-- Generator: Adobe Illustrator 22.0.1, SVG Export Plug-In . SVG Version: 6.00 Build 0)  -->
<svg version="1.1" id="Layer_1" xmlns="http://www.w3.org/2000/svg" xmlns:xlink="http://www.w3.org/1999/xlink" x="0px" y="0px"
	 viewBox="0 0 125.8 115.3" style="enable-background:new 0 0 125.8 115.3;" xml:space="preserve">
<style type="text/css">
	.st0{fill:#4DA7DE;}
</style>
<g>
	<g>
		<g>
			<path class="st0" d="M123.7,94.3h-2.3c5.8-5.6,5.9-14.9,0.3-20.7c-0.9-0.9-1.9-1.7-3-2.4c4.4-2.6,7.1-7.4,7.1-12.6
				c0-8.1-6.6-14.7-14.7-14.7H92.2V29.3c0-1.2-0.9-2.1-2.1-2.1c-0.1,0-0.2,0-0.3,0L65,31.1v-2c4.9-1,8.4-5.3,8.4-10.3
				c0-9.1-8.6-17.9-9-18.2c-0.8-0.8-2.1-0.8-3,0c-0.4,0.4-9,9.1-9,18.2c0,5,3.5,9.3,8.4,10.3v2.6l-25.5,3.9c-1,0.2-1.8,1-1.8,2.1
				v23.3c-1.5-1.7-3.3-3.1-5.2-4.2c-0.6-0.4-1.4-0.4-2.1,0c-6.2,3.6-10.4,9.9-11.3,16.9c-1.4-0.3-2.9-0.5-4.4-0.5
				c-0.9,0-1.8,0.1-2.8,0.2C7,73.6,6.3,74.1,6,74.8c-4.3,10-0.9,21.7,8,27.9H0v4.2h5l3.6,7.2c0.4,0.7,1.1,1.2,1.9,1.2h79.6
				c1.2,0,2.1-0.9,2.1-2.1v-6.3h13.4l3.6,7.2c0.4,0.7,1.1,1.2,1.9,1.2h8.4c1.2,0,2.1-0.9,2.1-2.1v-6.3h2.1c1.2,0,2.1-0.9,2.1-2.1
				v-8.4C125.8,95.3,124.8,94.3,123.7,94.3z M121.6,83.8c0,5.8-4.7,10.5-10.5,10.5H73.4c-5.8,0-10.5-4.7-10.5-10.5
				s4.7-10.5,10.5-10.5h27.2c3.5,0,6.3,2.8,6.3,6.3c0,3.5-2.8,6.3-6.3,6.3h-21c-1.2,0-2.1-0.9-2.1-2.1c0-1.2,0.9-2.1,2.1-2.1h14.7
				v-4.2H79.6c-3.5,0-6.3,2.8-6.3,6.3c0,3.5,2.8,6.3,6.3,6.3h21c5.8,0,10.5-4.7,10.5-10.5c0-2.3-0.8-4.5-2.2-6.3h2.2
				C116.9,73.4,121.6,78,121.6,83.8z M104.8,48.2c3.5,0,6.3,2.8,6.3,6.3c0,3.5-2.8,6.3-6.3,6.3h-21c-1.2,0-2.1-0.9-2.1-2.1
				s0.9-2.1,2.1-2.1h14.7v-4.2H83.8c-3.5,0-6.3,2.8-6.3,6.3c0,3.5,2.8,6.3,6.3,6.3h21c5.8,0,10.5-4.7,10.5-10.5c0-2.2-0.7-4.3-1.9-6
				c5.6,1.3,9.2,6.9,7.9,12.5c-1.1,4.8-5.3,8.1-10.2,8.2h-10.5H81.7c-5.8,0-10.5-4.7-10.5-10.5c0-5.8,4.7-10.5,10.5-10.5H104.8
				L104.8,48.2z M56.6,18.9c0-5.4,4-10.9,6.3-13.6c2.3,2.7,6.3,8.3,6.3,13.6c0,2.7-1.7,5-4.2,5.9V21h-4.2v3.8
				C58.3,23.9,56.6,21.5,56.6,18.9z M27.2,61.2c4.7,3.2,7.7,8.2,8.3,13.8c-3.1,1.2-5.9,3.2-8.2,5.6c-2.3-2.4-5.2-4.3-8.3-5.6
				C19.5,69.4,22.6,64.3,27.2,61.2z M37.8,78.6c2-0.7,4.1-1.1,6.3-1.1c0.3,0,0.7,0,1,0c3.5,9.8-1.7,20.6-11.5,24
				c-2,0.7-4.1,1.1-6.3,1.1c-0.3,0-0.7,0-1,0C22.8,92.8,27.9,82.1,37.8,78.6z M8.4,83.8c0-2.1,0.4-4.2,1.1-6.3c0.4,0,0.7,0,1,0
				c5.4,0,10.6,2.3,14.2,6.4c-3.4,5.3-4.5,11.8-3,17.9C13.8,99.4,8.4,92.1,8.4,83.8z M42.7,111.1H11.8l-2.1-4.2h35.1L42.7,111.1z
				 M62.9,111.1H47.4l2.1-4.2h5v-4.2h-14c8.9-6.2,12.3-17.9,8-27.9c-0.3-0.7-0.9-1.2-1.7-1.3c-2.4-0.3-4.8-0.2-7.2,0.3
				c-0.3-2.3-1-4.6-2-6.7h0.1V39.5L88,31.8V44h-6.3c-8.1,0-14.7,6.5-14.7,14.6c0,4,1.6,7.9,4.5,10.6c-8,0.9-13.8,8.2-12.8,16.3
				c0.4,3.3,1.9,6.4,4.3,8.8h-2.3c-1.2,0-2.1,0.9-2.1,2.1v8.4c0,1.2,0.9,2.1,2.1,2.1h2.1V111.1z M72.1,111.1h-5v-4.2h7.1L72.1,111.1
				z M88,111.1H76.7l2.1-4.2H88V111.1z M117.4,111.1h-5l-2.1-4.2h7.1V111.1z M121.6,102.7H62.9v-4.2h58.7V102.7z"/>
		</g>
	</g>
	<g>
		<g>
			<rect x="41.9" y="44" class="st0" width="4.2" height="16.8"/>
		</g>
	</g>
	<g>
		<g>
			<rect x="41.9" y="65" class="st0" width="4.2" height="4.2"/>
		</g>
	</g>
</g>
</svg>
