<?xml version="1.0" encoding="utf-8"?>
<!-- Generator: Adobe Illustrator 22.0.1, SVG Export Plug-In . SVG Version: 6.00 Build 0)  -->
<svg version="1.1" id="Layer_1" xmlns="http://www.w3.org/2000/svg" xmlns:xlink="http://www.w3.org/1999/xlink" x="0px" y="0px"
	 viewBox="0 0 122.6 124.7" style="enable-background:new 0 0 122.6 124.7;" xml:space="preserve">
<style type="text/css">
	.st0{fill:#4DA7DE;}
</style>
<g>
	<g>
		<g>
			<path class="st0" d="M120.6,120.8h-6.4v-6.4c0-1.1-0.9-2-2-2c-1.1,0-2,0.9-2,2v6.4h-8.6v-2.6c3.6-0.9,6.2-4.1,6.2-8
				c0-2.2-0.8-6-1.9-9.2c-1.7-4.9-3.8-7.3-6.3-7.3c-2.5,0-4.5,2.4-6.3,7.3c-1.1,3.2-1.9,7.1-1.9,9.2c0,3.8,2.7,7.1,6.2,8v2.6H85.1
				v-2.6c3.6-0.9,6.2-4.1,6.2-8c0-2.2-0.8-6-1.9-9.2c-1.3-3.6-2.7-5.8-4.3-6.8V47.6h25.2V104c0,1.1,0.9,2,2,2c1.1,0,2-0.9,2-2V45.7
				c0-1.1-0.9-2-2-2H85.1V31.1c0-1.1-0.9-2-2-2h-4.3v-6.4c0-1.1-0.9-2-2-2h-8.5v-6.4c0-1.1-0.9-2-2-2h-3.3V2c0-1.1-0.9-2-2-2
				c-1.1,0-2,0.9-2,2v10.5h-3.3c-1.1,0-2,0.9-2,2v6.4h-8.5c-1.1,0-2,0.9-2,2v6.4h-4.3c-1.1,0-2,0.9-2,2v23H10.3c-1.1,0-2,0.9-2,2
				v8.3c0,1.1,0.9,2,2,2c1.1,0,2-0.9,2-2V58h25.2v36.2c-1.6,1-3.1,3.2-4.3,6.8c-1.1,3.2-1.9,7.1-1.9,9.2c0,3.8,2.7,7.1,6.2,8v2.6
				H24.7v-2.6c3.6-0.9,6.2-4.1,6.2-8c0-2.2-0.8-6-1.9-9.2c-1.7-4.9-3.8-7.3-6.3-7.3s-4.5,2.4-6.3,7.3c-1.1,3.2-1.9,7.1-1.9,9.2
				c0,3.8,2.7,7.1,6.2,8v2.6h-8.6V74.8c0-1.1-0.9-2-2-2c-1.1,0-2,0.9-2,2v45.9H2c-1.1,0-2,0.9-2,2s0.9,2,2,2h118.7c1.1,0,2-0.9,2-2
				C122.6,121.6,121.7,120.8,120.6,120.8z M18.5,110.2c0-1.4,0.6-4.5,1.5-7.4c1.2-3.6,2.3-4.9,2.7-5.2c0.4,0.2,1.5,1.5,2.7,5.2
				c1,2.9,1.5,6.1,1.5,7.4c0,2.4-1.9,4.3-4.3,4.3C20.4,114.5,18.5,112.6,18.5,110.2z M58,16.4h6.5v4.4H58V16.4L58,16.4z M47.6,24.7
				H75v4.4H47.6V24.7z M35.1,110.2c0-1.4,0.6-4.5,1.5-7.4c1.2-3.6,2.3-4.9,2.7-5.2c0.4,0.2,1.5,1.5,2.7,5.2c1,2.9,1.5,6.1,1.5,7.4
				c0,2.4-1.9,4.3-4.3,4.3C37.1,114.5,35.1,112.6,35.1,110.2z M81.2,120.8H70.5v-23c0-1.1-0.9-2-2-2c-1.1,0-2,0.9-2,2v23h-3.4v-23
				c0-1.1-0.9-2-2-2c-1.1,0-2,0.9-2,2v23H56v-23c0-1.1-0.9-2-2-2c-1.1,0-2,0.9-2,2v23H41.4v-2.6c3.6-0.9,6.2-4.1,6.2-8
				c0-2.2-0.8-6-1.9-9.2c-1.3-3.6-2.7-5.8-4.3-6.8V33.1h39.8v61.2c-1.6,1-3.1,3.2-4.3,6.8c-1.1,3.2-1.9,7.1-1.9,9.2
				c0,3.8,2.7,7.1,6.2,8L81.2,120.8L81.2,120.8z M78.9,110.2c0-1.4,0.6-4.5,1.5-7.4c1.2-3.6,2.3-4.9,2.7-5.2
				c0.4,0.2,1.5,1.5,2.7,5.2c1,2.9,1.5,6.1,1.5,7.4c0,2.4-1.9,4.3-4.3,4.3C80.8,114.5,78.9,112.6,78.9,110.2z M95.5,110.2
				c0-1.4,0.6-4.5,1.5-7.4c1.2-3.6,2.3-4.9,2.7-5.2c0.4,0.2,1.5,1.5,2.7,5.2c1,2.9,1.5,6.1,1.5,7.4c0,2.4-1.9,4.3-4.3,4.3
				C97.4,114.5,95.5,112.6,95.5,110.2z"/>
		</g>
	</g>
	<g>
		<g>
			<path class="st0" d="M16.5,60.4c-1.1,0-2,0.9-2,2v12.5c0,1.1,0.9,2,2,2c1.1,0,2-0.9,2-2V62.3C18.5,61.3,17.6,60.4,16.5,60.4z"/>
		</g>
	</g>
	<g>
		<g>
			<path class="st0" d="M24.9,60.4c-1.1,0-2,0.9-2,2v12.5c0,1.1,0.9,2,2,2c1.1,0,2-0.9,2-2V62.3C26.8,61.3,25.9,60.4,24.9,60.4z"/>
		</g>
	</g>
	<g>
		<g>
			<path class="st0" d="M33.2,60.4c-1.1,0-2,0.9-2,2v12.5c0,1.1,0.9,2,2,2c1.1,0,2-0.9,2-2V62.3C35.1,61.3,34.3,60.4,33.2,60.4z"/>
		</g>
	</g>
	<g>
		<g>
			<path class="st0" d="M16.5,81.2c-1.1,0-2,0.9-2,2v6.2c0,1.1,0.9,2,2,2c1.1,0,2-0.9,2-2v-6.2C18.5,82.1,17.6,81.2,16.5,81.2z"/>
		</g>
	</g>
	<g>
		<g>
			<path class="st0" d="M24.9,81.2c-1.1,0-2,0.9-2,2v6.2c0,1.1,0.9,2,2,2c1.1,0,2-0.9,2-2v-6.2C26.8,82.1,25.9,81.2,24.9,81.2z"/>
		</g>
	</g>
	<g>
		<g>
			<path class="st0" d="M33.2,81.2c-1.1,0-2,0.9-2,2v6.2c0,1.1,0.9,2,2,2c1.1,0,2-0.9,2-2v-6.2C35.1,82.1,34.3,81.2,33.2,81.2z"/>
		</g>
	</g>
	<g>
		<g>
			<path class="st0" d="M89.4,81.2c-1.1,0-2,0.9-2,2v6.2c0,1.1,0.9,2,2,2c1.1,0,2-0.9,2-2v-6.2C91.4,82.1,90.5,81.2,89.4,81.2z"/>
		</g>
	</g>
	<g>
		<g>
			<path class="st0" d="M97.7,81.2c-1.1,0-2,0.9-2,2v6.2c0,1.1,0.9,2,2,2c1.1,0,2-0.9,2-2v-6.2C99.7,82.1,98.8,81.2,97.7,81.2z"/>
		</g>
	</g>
	<g>
		<g>
			<path class="st0" d="M106.1,81.2c-1.1,0-2,0.9-2,2v6.2c0,1.1,0.9,2,2,2c1.1,0,2-0.9,2-2v-6.2C108,82.1,107.1,81.2,106.1,81.2z"/>
		</g>
	</g>
	<g>
		<g>
			<path class="st0" d="M89.4,50c-1.1,0-2,0.9-2,2V54c0,1.1,0.9,2,2,2c1.1,0,2-0.9,2-2v-2.1C91.4,50.8,90.5,50,89.4,50z"/>
		</g>
	</g>
	<g>
		<g>
			<path class="st0" d="M97.7,50c-1.1,0-2,0.9-2,2V54c0,1.1,0.9,2,2,2c1.1,0,2-0.9,2-2v-2.1C99.7,50.8,98.8,50,97.7,50z"/>
		</g>
	</g>
	<g>
		<g>
			<path class="st0" d="M106.1,50c-1.1,0-2,0.9-2,2V54c0,1.1,0.9,2,2,2c1.1,0,2-0.9,2-2v-2.1C108,50.8,107.1,50,106.1,50z"/>
		</g>
	</g>
	<g>
		<g>
			<path class="st0" d="M89.4,60.4c-1.1,0-2,0.9-2,2v2.1c0,1.1,0.9,2,2,2c1.1,0,2-0.9,2-2v-2.1C91.4,61.3,90.5,60.4,89.4,60.4z"/>
		</g>
	</g>
	<g>
		<g>
			<path class="st0" d="M97.7,60.4c-1.1,0-2,0.9-2,2v2.1c0,1.1,0.9,2,2,2c1.1,0,2-0.9,2-2v-2.1C99.7,61.3,98.8,60.4,97.7,60.4z"/>
		</g>
	</g>
	<g>
		<g>
			<path class="st0" d="M106.1,60.4c-1.1,0-2,0.9-2,2v2.1c0,1.1,0.9,2,2,2c1.1,0,2-0.9,2-2v-2.1C108,61.3,107.1,60.4,106.1,60.4z"/>
		</g>
	</g>
	<g>
		<g>
			<path class="st0" d="M89.4,70.8c-1.1,0-2,0.9-2,2v2.1c0,1.1,0.9,2,2,2c1.1,0,2-0.9,2-2v-2.1C91.4,71.7,90.5,70.8,89.4,70.8z"/>
		</g>
	</g>
	<g>
		<g>
			<path class="st0" d="M97.7,70.8c-1.1,0-2,0.9-2,2v2.1c0,1.1,0.9,2,2,2c1.1,0,2-0.9,2-2v-2.1C99.7,71.7,98.8,70.8,97.7,70.8z"/>
		</g>
	</g>
	<g>
		<g>
			<path class="st0" d="M106.1,70.8c-1.1,0-2,0.9-2,2v2.1c0,1.1,0.9,2,2,2c1.1,0,2-0.9,2-2v-2.1C108,71.7,107.1,70.8,106.1,70.8z"/>
		</g>
	</g>
	<g>
		<g>
			<path class="st0" d="M61.3,85.4c-1.1,0-2,0.9-2,2v2.1c0,1.1,0.9,2,2,2c1.1,0,2-0.9,2-2v-2.1C63.2,86.2,62.4,85.4,61.3,85.4z"/>
		</g>
	</g>
	<g>
		<g>
			<path class="st0" d="M54,85.4c-1.1,0-2,0.9-2,2v2.1c0,1.1,0.9,2,2,2c1.1,0,2-0.9,2-2v-2.1C56,86.2,55.1,85.4,54,85.4z"/>
		</g>
	</g>
	<g>
		<g>
			<path class="st0" d="M68.6,85.4c-1.1,0-2,0.9-2,2v2.1c0,1.1,0.9,2,2,2c1.1,0,2-0.9,2-2v-2.1C70.5,86.2,69.7,85.4,68.6,85.4z"/>
		</g>
	</g>
	<g>
		<g>
			<path class="st0" d="M45.7,85.4c-1.1,0-2,0.9-2,2v2.1c0,1.1,0.9,2,2,2c1.1,0,2-0.9,2-2v-2.1C47.6,86.2,46.8,85.4,45.7,85.4z"/>
		</g>
	</g>
	<g>
		<g>
			<path class="st0" d="M76.9,85.4c-1.1,0-2,0.9-2,2v2.1c0,1.1,0.9,2,2,2c1.1,0,2-0.9,2-2v-2.1C78.9,86.2,78,85.4,76.9,85.4z"/>
		</g>
	</g>
	<g>
		<g>
			<path class="st0" d="M61.3,36.1c-1.1,0-2,0.9-2,2v6.5c0,1.1,0.9,2,2,2c1.1,0,2-0.9,2-2v-6.5C63.2,37,62.4,36.1,61.3,36.1z"/>
		</g>
	</g>
	<g>
		<g>
			<path class="st0" d="M54,36.1c-1.1,0-2,0.9-2,2v6.5c0,1.1,0.9,2,2,2c1.1,0,2-0.9,2-2v-6.5C56,37,55.1,36.1,54,36.1z"/>
		</g>
	</g>
	<g>
		<g>
			<path class="st0" d="M68.6,36.1c-1.1,0-2,0.9-2,2v6.5c0,1.1,0.9,2,2,2c1.1,0,2-0.9,2-2v-6.5C70.5,37,69.7,36.1,68.6,36.1z"/>
		</g>
	</g>
	<g>
		<g>
			<path class="st0" d="M45.7,36.1c-1.1,0-2,0.9-2,2v6.5c0,1.1,0.9,2,2,2c1.1,0,2-0.9,2-2v-6.5C47.6,37,46.8,36.1,45.7,36.1z"/>
		</g>
	</g>
	<g>
		<g>
			<path class="st0" d="M76.9,36.1c-1.1,0-2,0.9-2,2v6.5c0,1.1,0.9,2,2,2c1.1,0,2-0.9,2-2v-6.5C78.9,37,78,36.1,76.9,36.1z"/>
		</g>
	</g>
	<g>
		<g>
			<path class="st0" d="M61.3,50c-1.1,0-2,0.9-2,2V54c0,1.1,0.9,2,2,2c1.1,0,2-0.9,2-2v-2.1C63.2,50.8,62.4,50,61.3,50z"/>
		</g>
	</g>
	<g>
		<g>
			<path class="st0" d="M54,50c-1.1,0-2,0.9-2,2V54c0,1.1,0.9,2,2,2c1.1,0,2-0.9,2-2v-2.1C56,50.8,55.1,50,54,50z"/>
		</g>
	</g>
	<g>
		<g>
			<path class="st0" d="M68.6,50c-1.1,0-2,0.9-2,2V54c0,1.1,0.9,2,2,2c1.1,0,2-0.9,2-2v-2.1C70.5,50.8,69.7,50,68.6,50z"/>
		</g>
	</g>
	<g>
		<g>
			<path class="st0" d="M45.7,50c-1.1,0-2,0.9-2,2V54c0,1.1,0.9,2,2,2c1.1,0,2-0.9,2-2v-2.1C47.6,50.8,46.8,50,45.7,50z"/>
		</g>
	</g>
	<g>
		<g>
			<path class="st0" d="M76.9,50c-1.1,0-2,0.9-2,2V54c0,1.1,0.9,2,2,2c1.1,0,2-0.9,2-2v-2.1C78.9,50.8,78,50,76.9,50z"/>
		</g>
	</g>
	<g>
		<g>
			<path class="st0" d="M61.3,60.4c-1.1,0-2,0.9-2,2V79c0,1.1,0.9,2,2,2s2-0.9,2-2V62.3C63.2,61.3,62.4,60.4,61.3,60.4z"/>
		</g>
	</g>
	<g>
		<g>
			<path class="st0" d="M54,60.4c-1.1,0-2,0.9-2,2V79c0,1.1,0.9,2,2,2c1.1,0,2-0.9,2-2V62.3C56,61.3,55.1,60.4,54,60.4z"/>
		</g>
	</g>
	<g>
		<g>
			<path class="st0" d="M68.6,60.4c-1.1,0-2,0.9-2,2V79c0,1.1,0.9,2,2,2c1.1,0,2-0.9,2-2V62.3C70.5,61.3,69.7,60.4,68.6,60.4z"/>
		</g>
	</g>
	<g>
		<g>
			<path class="st0" d="M45.7,60.4c-1.1,0-2,0.9-2,2V79c0,1.1,0.9,2,2,2c1.1,0,2-0.9,2-2V62.3C47.6,61.3,46.8,60.4,45.7,60.4z"/>
		</g>
	</g>
	<g>
		<g>
			<path class="st0" d="M76.9,60.4c-1.1,0-2,0.9-2,2V79c0,1.1,0.9,2,2,2c1.1,0,2-0.9,2-2V62.3C78.9,61.3,78,60.4,76.9,60.4z"/>
		</g>
	</g>
</g>
</svg>
