<?xml version="1.0" encoding="utf-8"?>
<!-- Generator: Adobe Illustrator 22.0.1, SVG Export Plug-In . SVG Version: 6.00 Build 0)  -->
<svg version="1.1" id="Layer_1" xmlns="http://www.w3.org/2000/svg" xmlns:xlink="http://www.w3.org/1999/xlink" x="0px" y="0px"
	 viewBox="0 0 108 108.1" style="enable-background:new 0 0 108 108.1;" xml:space="preserve">
<style type="text/css">
	.st0{fill:#4DA7DE;}
</style>
<g>
	<g>
		<g>
			<path class="st0" d="M93.3,53.4c-1.2,0-2.2,0.9-2.2,2c0,0.3,0,0.6,0,0.9c-0.1,1.2,0.8,2.2,2,2.2c0,0,0.1,0,0.1,0
				c1.1,0,2-0.9,2.1-2c0-0.3,0-0.7,0-1C95.4,54.4,94.4,53.4,93.3,53.4z"/>
			<path class="st0" d="M104.8,35.5c0.3-0.6,0.3-1.4,0-2c-0.3-0.5-0.7-0.8-1.1-0.9c-2.7-6.2-6.5-11.8-11.4-16.7C82,5.6,68.5,0,54,0
				C39.6,0,26,5.6,15.8,15.8C5.6,26,0,39.6,0,54c0,7.7,1.6,15.1,4.6,21.9C3.6,77.1,3,78.6,3,80.2c0,1.7,0.7,3.3,1.9,4.5
				c1.2,1.2,2.9,1.9,4.5,1.9c0.5,0,0.9-0.1,1.4-0.2c1.5,2,3.2,4,5.1,5.8c2.6,2.6,5.5,4.9,8.5,6.9c-0.7,2.2-0.2,4.8,1.5,6.5
				c1.2,1.2,2.9,1.9,4.5,1.9c1.6,0,3.3-0.6,4.5-1.9l0.8-0.8c5.8,2.1,12,3.2,18.4,3.2c14.4,0,28-5.6,38.2-15.8
				C102.4,82,108,68.5,108,54C108,47.6,106.9,41.4,104.8,35.5z M4.2,54C4.2,26.6,26.6,4.2,54,4.2c3.2,0,6.4,0.3,9.4,0.9L56,12.5
				c-0.8,0.1-1.6,0.2-2,0.2c-22.8,0-41.3,18.5-41.3,41.3c0,4.2,0.6,8.2,1.8,12l-6.6,6.6C5.5,66.9,4.2,60.6,4.2,54z M46.6,28.5
				l0.1,0.9c0.2,2.7-0.8,5.3-2.7,7.2L18,62.6c-0.7-2.8-1-5.6-1-8.6c0-19.6,15.3-35.7,34.6-37l-1,1C47.8,20.8,46.3,24.6,46.6,28.5z
				 M7.9,81.7c-0.4-0.4-0.6-0.9-0.6-1.5c0-0.6,0.2-1.1,0.6-1.5l39-39c2.8-2.8,4.2-6.6,4-10.5l-0.1-0.9c-0.2-2.7,0.8-5.3,2.7-7.2
				L68.2,6.4c0.1-0.1,0.1-0.1,0.2-0.2l0.4,0.3c1.3,0.4,2.6,0.9,3.9,1.4l-15,15c-0.8,0.8-0.8,2.2,0,3c0.4,0.4,1,0.6,1.5,0.6
				c0.5,0,1.1-0.2,1.5-0.6l15.8-15.8c0.1-0.1,0.2-0.3,0.3-0.4c1.3,0.7,2.6,1.4,3.9,2.2l-1.2,1.2l0,0L63.6,28.9c-0.8,0.8-0.8,2.2,0,3
				c0.4,0.4,1,0.6,1.5,0.6c0.5,0,1.1-0.2,1.5-0.6l17.5-17.5c6.5,4.9,11.7,11.4,15.2,18.9l-6.1,1.6c-10.3,2.7-19.8,8.2-27.3,15.7
				l-8.7,8.7c-1.7,1.7-2.6,4-2.4,6.4c0.1,1.2-0.3,2.3-1.2,3.1L36.1,86.4c-5-2.8-9.3-6.7-12.6-11.4l29.4-29.4
				c1.9-1.9,4.5-2.9,7.2-2.7L61,43c3.9,0.2,7.7-1.2,10.5-4l16.9-16.9c0.8-0.8,0.8-2.2,0-3c-0.8-0.8-2.2-0.8-3,0L68.5,36
				c-1.9,1.9-4.5,2.9-7.2,2.7l-0.9-0.1c-3.9-0.2-7.7,1.2-10.5,4l-39,39C10,82.5,8.7,82.5,7.9,81.7z M14.4,84.1l6.1-6.1
				c3.3,4.6,7.6,8.5,12.5,11.5l-6.1,6.1C22,92.6,17.8,88.7,14.4,84.1z M31.8,102.7c-0.8,0.8-2.2,0.8-3,0c-0.8-0.8-0.8-2.2,0-3
				l27.9-27.9c1.7-1.7,2.6-4,2.4-6.4c-0.1-1.2,0.3-2.3,1.2-3.1l8.7-8.7c7-7,15.8-12.1,25.4-14.6l1.6-0.4L31.8,102.7z M54,103.8
				c-5.2,0-10.3-0.8-15-2.3l6.9-6.9c2.6,0.5,5.3,0.8,8.1,0.8c8,0,15.8-2.3,22.5-6.7c6.5-4.2,11.7-10.2,15-17.2c0.5-1.1,0-2.3-1-2.8
				c-1.1-0.5-2.3,0-2.8,1c-6.1,13-19.3,21.4-33.6,21.4c-1.5,0-2.9-0.1-4.4-0.3L101.5,39c1.5,4.7,2.3,9.8,2.3,15
				C103.8,81.5,81.5,103.8,54,103.8z"/>
		</g>
	</g>
</g>
</svg>
