<?xml version="1.0" encoding="utf-8"?>
<!-- Generator: Adobe Illustrator 22.0.1, SVG Export Plug-In . SVG Version: 6.00 Build 0)  -->
<svg version="1.1" id="Capa_1" xmlns="http://www.w3.org/2000/svg" xmlns:xlink="http://www.w3.org/1999/xlink" x="0px" y="0px"
	 viewBox="0 0 480 480" style="enable-background:new 0 0 480 480;" xml:space="preserve">
<style type="text/css">
	.st0{fill:#111339;}
</style>
<g>
	<g>
		<path class="st0" d="M456,88H331.8c-20.9-30-55.2-48-91.8-48V24c0-13.3-10.7-24-24-24H24C10.7,0,0,10.7,0,24v96
			c0,13.3,10.7,24,24,24h17.6l24.3,29.1c2.8,3.4,7.9,3.9,11.3,1c0.4-0.3,0.7-0.7,1-1l24.2-29.1h26c-0.2,2.7-0.4,5.3-0.4,8v16
			c-0.3,4.1,2.7,7.6,6.7,8c0.8,0.1,1.5,0,2.2-0.2c2.4,20,9.5,39.2,20.7,56c-13.7-1-25.2-10.6-28.7-23.8h7v-16h-16c-4.4,0-8,3.6-8,8
			c0,26.5,21.5,48,48,48h10.4c3.6,3.9,7.4,7.6,11.5,11c0.7,0.6,1.4,1.1,2.1,1.6v29.7l-66.5,22.2c-3,1-5.1,3.6-5.4,6.8l-16,152
			c-0.5,4.4,2.7,8.3,7.1,8.8c0.3,0,0.6,0,0.9,0h272c4.4,0,8-3.6,8-8c0-0.3,0-0.5,0-0.8l-16-152c-0.3-3.1-2.4-5.8-5.4-6.8L296,290.2
			v-29.7c0.7-0.5,1.4-1,2.1-1.6c18.6-15.5,32.3-35.9,39.7-59h7.8l24.3,29.1c2.8,3.4,7.9,3.9,11.3,1c0.4-0.3,0.7-0.7,1-1l24.2-29.1
			H456c13.3,0,24-10.7,24-24v-64C480,98.7,469.3,88,456,88z M130.7,128h-32c-2.4,0-4.6,1-6.2,2.9L72,155.5l-20.5-24.6
			c-1.5-1.8-3.8-2.9-6.2-2.9H24c-4.4,0-8-3.6-8-8V24c0-4.4,3.6-8,8-8h192c4.4,0,8,3.6,8,8v17.3C177.9,48,140.7,82.5,130.7,128z
			 M184,464h-71.1l14.5-138l56.6-18.9V464z M200,464V357.8l28.4-9.4l-20.1,73.6c-0.5,1.9-0.3,3.9,0.6,5.7l18.2,36.4H200z M200,340.9
			v-16l19.1,9.6L200,340.9z M224.5,423.2l15.5-56.8l15.5,56.8l-15.5,31L224.5,423.2z M280,464h-27.1l18.2-36.4
			c0.9-1.8,1.1-3.8,0.6-5.7l-20.1-73.6l28.4,9.5V464z M280,340.9l-19.1-6.4l19.1-9.6V340.9z M280,296v11.1l-40,20l-40-20v-36.4
			c25.2,12.5,54.8,12.5,80,0V296z M352.6,326l14.5,138H296V307.1L352.6,326z M287.8,246.7c-27.1,22.6-66.2,23.1-94,1.3H232v-16
			h-54.3c-15.3-18.5-24.2-41.5-25.4-65.4c32-20.9,67.3-36,104.5-44.8c4.8,26.7,28,46.2,55.1,46.2h15.6
			C325.8,198.6,311.4,227.1,287.8,246.7z M312,152c-22.1,0-40-17.9-40-40c0-4.4-3.6-8-8-8c-0.6,0-1.2,0.1-1.7,0.2l-4.8,1.1
			c-40.4,8.9-78.8,25-113.5,47.6V152c0-53,43-96,96-96s96,43,96,96H312z M464,176c0,4.4-3.6,8-8,8h-53.3c-2.4,0-4.6,1-6.2,2.9
			L376,211.5l-20.5-24.6c-1.5-1.8-3.8-2.9-6.2-2.9h-7.6c1-5.3,1.6-10.6,1.9-16h0.4c4.4,0,8-3.6,8-8v-8c0-16.6-3.8-33-11-48h115
			c4.4,0,8,3.6,8,8V176z"/>
	</g>
</g>
</svg>
