<?xml version="1.0" encoding="utf-8"?>
<!-- Generator: Adobe Illustrator 21.0.0, SVG Export Plug-In . SVG Version: 6.00 Build 0)  -->
<svg version="1.1" id="Layer_1" xmlns="http://www.w3.org/2000/svg" xmlns:xlink="http://www.w3.org/1999/xlink" x="0px" y="0px"
	 viewBox="0 0 457.7 457.7" style="enable-background:new 0 0 457.7 457.7;" xml:space="preserve">
<style type="text/css">
	.st0{fill:url(#SVGID_1_);}
</style>
<linearGradient id="SVGID_1_" gradientUnits="userSpaceOnUse" x1="142.8495" y1="364.6162" x2="344.8157" y2="14.8006">
	<stop  offset="0" style="stop-color:#8DCED2"/>
	<stop  offset="1" style="stop-color:#4CB8EA"/>
</linearGradient>
<path class="st0" d="M417.8,173.4V73.7c0-16-13-29-29-29H52.5c-16,0-29,13-29,29v203.3c0,16,13,29,29,29h95.3l-10.9,11.7h-16.3
	c-3.7,0-6.7,3-6.7,6.7c0,3.7,3,6.7,6.7,6.7h93.6V396c0,9.4,7.6,17,17,17h72.3c9.4,0,17-7.6,17-17v-13.7h90.5c12.7,0,23-10.3,23-23.1
	V195.5C434.1,185.1,427.2,176.3,417.8,173.4L417.8,173.4z M420.7,195.5v1.8H265.9v-1.8c0-5.3,4.3-9.6,9.6-9.6h135.5
	C416.4,185.9,420.7,190.2,420.7,195.5z M303.5,252.3h-37.6v-41.5h154.7V344H320.5v-74.7C320.5,260,312.9,252.3,303.5,252.3
	L303.5,252.3z M307.1,278.2h-79.4v-8.8c0-2,1.6-3.5,3.5-3.5h72.3c2,0,3.5,1.6,3.5,3.5L307.1,278.2L307.1,278.2z M404.3,80.4v92.1
	H275.5c-12.7,0-23.1,10.3-23.1,23.1v56.8h-21.3c-9.4,0-17,7.6-17,17H37V80.4L404.3,80.4L404.3,80.4z M227.7,291.6h79.4v82.1h-79.4
	V291.6z M52.5,58.1h336.3c6.1,0,11.5,3.6,14,8.8H38.6C41.1,61.7,46.4,58.1,52.5,58.1L52.5,58.1z M38.2,282.8h176v9.7H52.5
	C46,292.5,40.5,288.4,38.2,282.8z M155.3,317.7l10.9-11.7h48v11.7H155.3z M303.5,399.5h-72.3c-2,0-3.5-1.6-3.5-3.5v-8.8h79.4v8.8
	C307.1,398,305.5,399.5,303.5,399.5z M411.1,368.9h-90.5v-11.4h100.1v1.8C420.7,364.6,416.4,368.9,411.1,368.9z"/>
</svg>
