<?xml version="1.0" encoding="utf-8"?>
<!-- Generator: Adobe Illustrator 22.0.1, SVG Export Plug-In . SVG Version: 6.00 Build 0)  -->
<svg version="1.1" id="Layer_1" xmlns="http://www.w3.org/2000/svg" xmlns:xlink="http://www.w3.org/1999/xlink" x="0px" y="0px"
	 viewBox="0 0 113.5 113.5" style="enable-background:new 0 0 113.5 113.5;" xml:space="preserve">
<style type="text/css">
	.st0{fill:#4DA7DE;}
</style>
<g>
	<path class="st0" d="M111.2,88H97.3V64.7c9.3-1,13.9-8.6,13.9-23C111.2,27.1,105.6,0,95,0C84.3,0,78.8,27.1,78.8,41.7
		c0,14.4,4.6,22,13.9,23V88H78.8V55.6c0-1-0.7-1.9-1.6-2.2L3,30.2c-0.7-0.2-1.5-0.1-2.1,0.3C0.3,31,0,31.7,0,32.4v57.9v20.8
		c0,1.3,1,2.3,2.3,2.3h9.3h11.6h41.7h27.8h4.6h13.9c1.3,0,2.3-1,2.3-2.3V90.3C113.5,89.1,112.5,88,111.2,88z M83.4,41.7
		c0-17.9,6.8-37.1,11.6-37.1c4.8,0,11.6,19.2,11.6,37.1c0,16.4-6.2,18.5-11.6,18.5S83.4,58.1,83.4,41.7z M74.1,88h-9.3h-4.6V52.9
		l13.9,4.3V88z M23.2,88V41.4l13.9,4.3V88H23.2z M41.7,47.2l13.9,4.3V88H41.7V47.2z M4.6,35.6l13.9,4.3V88H4.6V35.6z M4.6,92.6h57.9
		v16.2H25.5V97.3c0-1.3-1-2.3-2.3-2.3H11.6c-1.3,0-2.3,1-2.3,2.3v11.6H4.6V92.6z M13.9,108.9v-9.3h6.9v9.3H13.9z M67.2,108.9V92.6
		h9.3h16.2v16.2H67.2z M108.9,108.9H97.3V92.6h11.6V108.9z"/>
</g>
</svg>
