<?xml version="1.0" encoding="utf-8"?>
<!-- Generator: Adobe Illustrator 22.0.1, SVG Export Plug-In . SVG Version: 6.00 Build 0)  -->
<svg version="1.1" id="Layer_1" xmlns="http://www.w3.org/2000/svg" xmlns:xlink="http://www.w3.org/1999/xlink" x="0px" y="0px"
	 viewBox="0 0 124.7 110.1" style="enable-background:new 0 0 124.7 110.1;" xml:space="preserve">
<style type="text/css">
	.st0{fill:#4DA7DE;}
</style>
<g>
	<g>
		<g>
			<path class="st0" d="M122.6,72.7c1.1,0,2.1-0.9,2.1-2.1V54c0-1.1-0.9-2.1-2.1-2.1H96.4l13.1-13.1c0.8-0.8,0.8-2.1,0-2.9
				L98.2,24.6c-0.8-0.8-2.1-0.8-2.9,0c-3.2,3.2-8.5,3.2-11.8,0c-3.2-3.2-3.2-8.5,0-11.8c0.8-0.8,0.8-2.1,0-2.9l-9.3-9.3
				c-0.8-0.8-2.1-0.8-2.9,0L19.9,51.9H2.1C0.9,51.9,0,52.9,0,54v16.6c0,1.1,0.9,2.1,2.1,2.1c4.6,0,8.3,3.7,8.3,8.3
				c0,4.6-3.7,8.3-8.3,8.3c-1.1,0-2.1,0.9-2.1,2.1V108c0,1.1,0.9,2.1,2.1,2.1h120.5c1.1,0,2.1-0.9,2.1-2.1V91.4
				c0-1.1-0.9-2.1-2.1-2.1c-4.6,0-8.3-3.7-8.3-8.3C114.3,76.4,118,72.7,122.6,72.7z M72.7,5l6.5,6.5c-4,5.6-2.7,13.4,2.9,17.4
				c4.3,3.1,10.2,3.1,14.5,0l8.5,8.5L90.6,51.9H84l4.8-4.8c0.8-0.8,0.8-2.1,0-2.9L65.9,21.4c-0.8-0.8-2.1-0.8-2.9,0L32.4,51.9h-6.6
				L72.7,5z M78.1,51.9H38.3l26.2-26.1l19.9,19.9L78.1,51.9z M110.3,83.1c0.9,5.2,5,9.3,10.2,10.2V106h-16.6v-8.3h-4.2v8.3H24.9
				v-2.1h-4.2v2.1H4.2V93.3c6.8-1.1,11.4-7.6,10.2-14.4c-0.9-5.2-5-9.3-10.2-10.2V56.1h16.6v6.2h4.2v-6.2h95.6v12.6
				C113.7,69.9,109.1,76.3,110.3,83.1z"/>
		</g>
	</g>
	<g>
		<g>
			<rect x="99.7" y="60.3" class="st0" width="4.2" height="8.3"/>
		</g>
	</g>
	<g>
		<g>
			<rect x="99.7" y="72.7" class="st0" width="4.2" height="8.3"/>
		</g>
	</g>
	<g>
		<g>
			<rect x="99.7" y="85.2" class="st0" width="4.2" height="8.3"/>
		</g>
	</g>
	<g>
		<g>
			<rect x="20.8" y="66.5" class="st0" width="4.2" height="8.3"/>
		</g>
	</g>
	<g>
		<g>
			<rect x="20.8" y="79" class="st0" width="4.2" height="8.3"/>
		</g>
	</g>
	<g>
		<g>
			<rect x="20.8" y="91.4" class="st0" width="4.2" height="8.3"/>
		</g>
	</g>
	<g>
		<g>
			<path class="st0" d="M91.4,66.5c-2.3,0-4.2-1.9-4.2-4.2c0-1.1-0.9-2.1-2.1-2.1H39.5c-1.1,0-2.1,0.9-2.1,2.1
				c0,2.3-1.9,4.2-4.2,4.2c-1.1,0-2.1,0.9-2.1,2.1v24.9c0,1.1,0.9,2.1,2.1,2.1c2.3,0,4.2,1.9,4.2,4.2c0,1.1,0.9,2.1,2.1,2.1h45.7
				c1.1,0,2.1-0.9,2.1-2.1c0-2.3,1.9-4.2,4.2-4.2c1.1,0,2.1-0.9,2.1-2.1V68.6C93.5,67.4,92.6,66.5,91.4,66.5z M89.3,91.7
				c-2.9,0.8-5.2,3-6,6H41.3c-0.8-2.9-3-5.2-6-6V70.4c2.9-0.8,5.2-3,6-6h42.1c0.8,2.9,3,5.2,6,6V91.7z"/>
		</g>
	</g>
</g>
</svg>
