<?xml version="1.0" encoding="utf-8"?>
<!-- Generator: Adobe Illustrator 22.0.1, SVG Export Plug-In . SVG Version: 6.00 Build 0)  -->
<svg version="1.1" id="Layer_1" xmlns="http://www.w3.org/2000/svg" xmlns:xlink="http://www.w3.org/1999/xlink" x="0px" y="0px"
	 viewBox="0 0 107.2 107.2" style="enable-background:new 0 0 107.2 107.2;" xml:space="preserve">
<style type="text/css">
	.st0{fill:url(#SVGID_1_);}
	.st1{fill:url(#SVGID_2_);}
	.st2{fill:url(#SVGID_3_);}
	.st3{fill:url(#SVGID_4_);}
	.st4{fill:url(#SVGID_5_);}
	.st5{fill:url(#SVGID_6_);}
	.st6{fill:url(#SVGID_7_);}
	.st7{fill:url(#SVGID_8_);}
</style>
<g>
	<g>
		<g>
			<linearGradient id="SVGID_1_" gradientUnits="userSpaceOnUse" x1="44.2767" y1="16.3146" x2="62.9177" y2="16.3146">
				<stop  offset="0" style="stop-color:#8DCED2"/>
				<stop  offset="1" style="stop-color:#4CB8EA"/>
			</linearGradient>
			<path class="st0" d="M53.6,7c-5.1,0-9.3,4.2-9.3,9.3c0,5.1,4.2,9.3,9.3,9.3c5.1,0,9.3-4.2,9.3-9.3C62.9,11.2,58.7,7,53.6,7z
				 M53.6,22.5c-3.4,0-6.2-2.8-6.2-6.2c0-3.4,2.8-6.2,6.2-6.2s6.2,2.8,6.2,6.2C59.8,19.7,57,22.5,53.6,22.5z"/>
		</g>
	</g>
	<g>
		<g>
			<linearGradient id="SVGID_2_" gradientUnits="userSpaceOnUse" x1="39.6167" y1="38.0635" x2="67.5786" y2="38.0635">
				<stop  offset="0" style="stop-color:#8DCED2"/>
				<stop  offset="1" style="stop-color:#4CB8EA"/>
			</linearGradient>
			<path class="st1" d="M59.8,27.2h-0.4l-0.3,0.2c-3.5,1.7-7.6,1.7-11,0l-0.3-0.2h-0.4c-4.3,0-7.8,3.5-7.8,7.8v9.3
				c0,2.6,2.1,4.7,4.7,4.7h18.6c2.6,0,4.7-2.1,4.7-4.7V35C67.6,30.7,64.1,27.2,59.8,27.2z M64.5,44.3c0,0.9-0.7,1.6-1.6,1.6H44.3
				c-0.9,0-1.6-0.7-1.6-1.6V35c0-2.4,1.9-4.5,4.3-4.6c4.2,1.9,8.9,1.9,13.1,0c2.4,0.2,4.3,2.2,4.3,4.6V44.3z"/>
		</g>
	</g>
	<g>
		<g>
			<linearGradient id="SVGID_3_" gradientUnits="userSpaceOnUse" x1="76.8987" y1="67.5785" x2="95.5406" y2="67.5785">
				<stop  offset="0" style="stop-color:#8DCED2"/>
				<stop  offset="1" style="stop-color:#4CB8EA"/>
			</linearGradient>
			<path class="st2" d="M86.2,58.3c-5.1,0-9.3,4.2-9.3,9.3c0,5.1,4.2,9.3,9.3,9.3c5.1,0,9.3-4.2,9.3-9.3
				C95.5,62.4,91.4,58.3,86.2,58.3z M86.2,73.8c-3.4,0-6.2-2.8-6.2-6.2c0-3.4,2.8-6.2,6.2-6.2c3.4,0,6.2,2.8,6.2,6.2
				C92.4,71,89.7,73.8,86.2,73.8z"/>
		</g>
	</g>
	<g>
		<g>
			<linearGradient id="SVGID_4_" gradientUnits="userSpaceOnUse" x1="72.2387" y1="89.3257" x2="100.2006" y2="89.3257">
				<stop  offset="0" style="stop-color:#8DCED2"/>
				<stop  offset="1" style="stop-color:#4CB8EA"/>
			</linearGradient>
			<path class="st3" d="M92.4,78.5h-0.4l-0.3,0.2c-3.5,1.7-7.6,1.7-11,0l-0.3-0.2H80c-4.3,0-7.8,3.5-7.8,7.8v9.3
				c0,2.6,2.1,4.7,4.7,4.7h18.6c2.6,0,4.7-2.1,4.7-4.7v-9.3C100.2,81.9,96.7,78.5,92.4,78.5z M97.1,95.5c0,0.9-0.7,1.6-1.6,1.6H76.9
				c-0.9,0-1.6-0.7-1.6-1.6v-9.3c0-2.4,1.9-4.5,4.3-4.6c4.2,1.9,8.9,1.9,13.1,0c2.4,0.2,4.3,2.2,4.3,4.6V95.5z"/>
		</g>
	</g>
	<g>
		<g>
			<linearGradient id="SVGID_5_" gradientUnits="userSpaceOnUse" x1="11.6547" y1="67.5785" x2="30.2949" y2="67.5785">
				<stop  offset="0" style="stop-color:#8DCED2"/>
				<stop  offset="1" style="stop-color:#4CB8EA"/>
			</linearGradient>
			<path class="st4" d="M21,58.3c-5.1,0-9.3,4.2-9.3,9.3c0,5.1,4.2,9.3,9.3,9.3c5.1,0,9.3-4.2,9.3-9.3C30.3,62.4,26.1,58.3,21,58.3z
				 M21,73.8c-3.4,0-6.2-2.8-6.2-6.2c0-3.4,2.8-6.2,6.2-6.2c3.4,0,6.2,2.8,6.2,6.2C27.2,71,24.4,73.8,21,73.8z"/>
		</g>
	</g>
	<g>
		<g>
			<linearGradient id="SVGID_6_" gradientUnits="userSpaceOnUse" x1="6.9938" y1="89.3257" x2="34.9566" y2="89.3257">
				<stop  offset="0" style="stop-color:#8DCED2"/>
				<stop  offset="1" style="stop-color:#4CB8EA"/>
			</linearGradient>
			<path class="st5" d="M27.2,78.5h-0.4l-0.3,0.2c-3.5,1.7-7.6,1.7-11,0l-0.3-0.2h-0.4c-4.3,0-7.8,3.5-7.8,7.8v9.3
				c0,2.6,2.1,4.7,4.7,4.7h18.6c2.6,0,4.7-2.1,4.7-4.7v-9.3C35,81.9,31.5,78.5,27.2,78.5z M31.8,95.5c0,0.9-0.7,1.6-1.6,1.6H11.7
				c-0.9,0-1.6-0.7-1.6-1.6v-9.3c0-2.4,1.9-4.5,4.3-4.6c4.2,1.9,8.9,1.9,13.1,0c2.4,0.2,4.3,2.2,4.3,4.6V95.5z"/>
		</g>
	</g>
	<g>
		<g>
			<linearGradient id="SVGID_7_" gradientUnits="userSpaceOnUse" x1="66.0244" y1="37.1529" x2="95.5415" y2="37.1529">
				<stop  offset="0" style="stop-color:#8DCED2"/>
				<stop  offset="1" style="stop-color:#4CB8EA"/>
			</linearGradient>
			<path class="st6" d="M95.1,47.8c-0.6-0.6-1.6-0.6-2.2,0L90.7,50c-1.3-13.6-9.9-25.4-22.5-30.8c-0.8-0.3-1.7,0-2,0.8
				c-0.3,0.8,0,1.7,0.8,2c11.3,4.8,19.1,15.3,20.5,27.5l-1.8-1.8c-0.6-0.6-1.6-0.6-2.2,0c-0.6,0.6-0.6,1.6,0,2.2l4.7,4.7
				c0.6,0.6,1.6,0.6,2.2,0c0,0,0,0,0,0l4.7-4.7C95.7,49.4,95.7,48.4,95.1,47.8z"/>
		</g>
	</g>
	<g>
		<g>
			<linearGradient id="SVGID_8_" gradientUnits="userSpaceOnUse" x1="16.3148" y1="35.7459" x2="41.1706" y2="35.7459">
				<stop  offset="0" style="stop-color:#8DCED2"/>
				<stop  offset="1" style="stop-color:#4CB8EA"/>
			</linearGradient>
			<path class="st7" d="M41.1,20.4c0-0.1,0-0.2,0-0.3c0,0,0,0,0,0c0,0,0,0,0,0c0-0.1-0.1-0.1-0.1-0.2c-0.1-0.1-0.1-0.2-0.2-0.3
				c-0.1-0.1-0.2-0.2-0.3-0.2c-0.1,0-0.1-0.1-0.2-0.1L34,16.5c-0.8-0.3-1.7,0.1-2,0.8c-0.3,0.7,0,1.6,0.7,2l3.2,1.5
				c-12.1,6.5-19.7,19.1-19.7,32.8c0,0.9,0.7,1.6,1.6,1.6c0.9,0,1.6-0.7,1.6-1.6c0-12.1,6.4-23.3,16.8-29.4l-1.1,2.3
				c-0.4,0.8,0,1.7,0.7,2.1c0.2,0.1,0.4,0.2,0.7,0.2c0.6,0,1.1-0.3,1.4-0.9l3.1-6.5c0,0,0,0,0,0c0-0.1,0.1-0.2,0.1-0.3
				c0-0.1,0-0.2,0.1-0.3C41.2,20.6,41.2,20.5,41.1,20.4z"/>
		</g>
	</g>
</g>
</svg>
