<?xml version="1.0" encoding="utf-8"?>
<!-- Generator: Adobe Illustrator 21.0.0, SVG Export Plug-In . SVG Version: 6.00 Build 0)  -->
<svg version="1.1" id="Layer_1" xmlns="http://www.w3.org/2000/svg" xmlns:xlink="http://www.w3.org/1999/xlink" x="0px" y="0px"
	 viewBox="0 0 512 512" style="enable-background:new 0 0 512 512;" xml:space="preserve">
<style type="text/css">
	.st0{fill:url(#SVGID_1_);}
	.st1{fill:url(#SVGID_2_);}
	.st2{fill:url(#SVGID_3_);}
</style>
<g>
	<g>
		<linearGradient id="SVGID_1_" gradientUnits="userSpaceOnUse" x1="180.4991" y1="389.2274" x2="377.0116" y2="48.8578">
			<stop  offset="0" style="stop-color:#8DCED2"/>
			<stop  offset="1" style="stop-color:#4CB8EA"/>
		</linearGradient>
		<path class="st0" d="M489.3,335.7c-11.1-13.3-23.7-25.3-35.9-36.8c-4.3-4.1-8.7-8.2-13-12.4c0,0,0,0,0,0
			c-5.7-5.6-8.5-9.6-8.8-12.5c-0.3-2.9,1.7-7.2,6.2-13.5c6.8-9.5,14-19,21-28.2c6.2-8.2,12.6-16.6,18.8-25.1l1.4-1.9
			c12-16.6,24.4-33.8,31-54.7c1.9-6,3.9-14.9-0.9-22.7c-4.8-7.8-13.6-10.1-19.8-11.2c-3-0.5-5.9-0.6-8.6-0.6l-77.8-0.1
			c-13.5-0.2-22.8,6.2-27.9,19c-4.1,10.2-8.9,22.1-14.4,33.3c-10.7,21.7-24.2,46.7-43.8,67.5l-0.9,0.9c-1.3,1.4-3.5,3.8-4.6,4.3
			c-2.1-1.3-4.6-9-4.5-13c0-0.1,0-0.2,0-0.3l-0.1-89.9c0-0.5,0-0.9-0.1-1.4c-1.7-12.8-5.1-25.7-25.4-29.7c-0.7-0.1-1.3-0.2-2-0.2
			h-80.9c-15.2,0-23.3,7-29.7,14.5c-1.9,2.2-6.8,8.1-4.3,15.2c2.6,7.2,10.2,8.7,12.7,9.2c8.8,1.7,13.4,6.7,14.8,16.2
			c2.8,18.5,3.1,38.3,1.1,62.3c-0.6,6.4-1.6,11.3-3.4,15.4c-0.5,1.1-0.9,1.8-1.2,2.2c-0.5-0.2-1.2-0.5-2.2-1.2
			c-6.2-4.2-10.9-10.8-15.4-17.2c-18-25.5-33.2-53.6-46.4-86c-5.4-13.3-15.6-20.7-28.7-20.9c-24.9-0.4-48-0.4-70.5,0
			c-10.6,0.2-18,3.5-22.1,9.9c-4.1,6.4-3.9,14.6,0.4,24.3C34.6,220,62.9,270.5,95.2,314.3c22.8,30.8,45.7,52.2,72.1,67.4
			c27.8,15.9,59.1,23.7,95.4,23.7c4.1,0,8.3-0.1,12.6-0.3c22.4-1,31.5-9.9,32.5-31.8c0.6-11.5,1.8-20.9,6.3-29
			c1.2-2.3,2.7-3.8,3.8-4.1c1.2-0.3,3.3,0.4,5.6,1.9c4.2,2.8,7.9,6.5,10.9,9.8c3,3.3,6.1,6.8,9.1,10.1c6.3,7.1,12.9,14.4,19.8,21.4
			c15.5,15.8,33.5,23.1,53.3,21.6l71.2,0c0,0,0,0,0,0c0.2,0,0.5,0,0.7,0c8.2-0.5,15.3-5.1,19.5-12.5c5-8.9,4.9-20.2-0.2-30.1
			C502.4,352,495.4,343.1,489.3,335.7z M490.2,382.5c-1,1.7-2.2,2.1-2.8,2.1l-71.2,0c0,0,0,0,0,0c-0.3,0-0.6,0-0.8,0
			c-14,1.2-25.9-3.8-37.5-15.5c-6.5-6.7-12.9-13.8-19.1-20.7c-3-3.4-6.1-6.9-9.3-10.3c-3.9-4.2-8.7-9.1-14.9-13.1
			c-9.2-6-16.9-5.8-21.7-4.6c-4.7,1.2-11.5,4.6-16.7,14c-6.7,12.2-8.2,25.4-8.8,37.9c-0.3,7.6-1.6,9.6-2.2,10.1
			c-0.7,0.7-3.1,1.8-10.9,2.2c-37.8,1.8-69.5-5-96.9-20.7c-23.9-13.7-44.8-33.3-65.8-61.8C80.2,259.6,52.6,210.3,22,142.3
			c-1.1-2.5-1.5-4-1.5-4.8c0.8-0.3,2.3-0.6,5-0.6c22.2-0.4,45.1-0.4,69.8,0c3.4,0.1,7.2,1.1,10.1,8.2c13.8,33.9,29.7,63.3,48.6,90.1
			c5,7.1,11.3,15.9,20.5,22.3c8.4,5.8,15.3,5.5,19.5,4.3c4.3-1.2,10.2-4.7,14.2-14.1c2.6-6.1,4.1-12.9,4.9-21.6
			c2.2-25.7,1.8-47-1.2-67.1c-2.1-14.4-9.6-24.8-21.3-30.1c2.1-1.1,4.4-1.5,7.7-1.5h79.9c4.5,1,5.4,2.2,5.7,2.6c1.3,1.7,2,5.8,2.5,9
			l0.1,89.1c-0.2,8.5,4,27.5,18.1,32.7c0.1,0,0.2,0.1,0.4,0.1c12.9,4.2,21.4-4.9,25.9-9.8l0.8-0.9c21.5-22.8,36-49.5,47.3-72.5
			c5.9-11.9,10.9-24.2,15.1-34.8c2.1-5.3,4-6.2,8.6-6.1c0.1,0,0.1,0,0.2,0l77.9,0.1c1.8,0,3.7,0,5.2,0.3c3.7,0.6,5.2,1.4,5.7,1.7
			c0.1,0.6,0,2.3-1.1,5.8c-5.7,17.8-16.6,32.9-28.1,48.9l-1.4,1.9c-6,8.3-12.4,16.7-18.5,24.8c-7.1,9.3-14.4,19-21.3,28.7
			c-14.8,20.7-13.5,34.4,5,52.4c4.4,4.3,8.8,8.5,13.2,12.6c12.3,11.6,23.9,22.6,34.2,35c5.4,6.5,11.6,14.4,16,23
			C492,376.3,491.4,380.4,490.2,382.5z"/>
	</g>
</g>
<g>
	<g>
		<linearGradient id="SVGID_2_" gradientUnits="userSpaceOnUse" x1="56.5459" y1="180.9708" x2="69.5178" y2="158.5027">
			<stop  offset="0" style="stop-color:#8DCED2"/>
			<stop  offset="1" style="stop-color:#4CB8EA"/>
		</linearGradient>
		<path class="st1" d="M74.4,169.6c-1.5-3-3-5.9-4.5-8.9c-2.5-5-8.6-7.1-13.7-4.6c-5,2.5-7.1,8.6-4.6,13.7c1.5,3,3,6.1,4.5,9.1
			c1.8,3.6,5.4,5.6,9.1,5.6c1.5,0,3.1-0.4,4.6-1.1C74.9,180.8,76.9,174.7,74.4,169.6z"/>
	</g>
</g>
<g>
	<g>
		<linearGradient id="SVGID_3_" gradientUnits="userSpaceOnUse" x1="90.3076" y1="270.2764" x2="121.4367" y2="216.3592">
			<stop  offset="0" style="stop-color:#8DCED2"/>
			<stop  offset="1" style="stop-color:#4CB8EA"/>
		</linearGradient>
		<path class="st2" d="M138.4,275.4c-16.7-22.7-32.4-47.3-47.8-75.2c-2.7-4.9-8.9-6.7-13.9-4c-4.9,2.7-6.7,8.9-4,13.9
			c15.9,28.8,32,54.1,49.3,77.5c2,2.7,5.1,4.1,8.2,4.1c2.1,0,4.2-0.6,6-2C140.7,286.4,141.7,280,138.4,275.4z"/>
	</g>
</g>
</svg>
