<?xml version="1.0" encoding="utf-8"?>
<!-- Generator: Adobe Illustrator 21.0.0, SVG Export Plug-In . SVG Version: 6.00 Build 0)  -->
<svg version="1.1" id="Capa_1" xmlns="http://www.w3.org/2000/svg" xmlns:xlink="http://www.w3.org/1999/xlink" x="0px" y="0px"
	 viewBox="0 0 55 55" style="enable-background:new 0 0 55 55;" xml:space="preserve">
<style type="text/css">
	.st0{fill:url(#SVGID_1_);}
</style>
<g>
	<linearGradient id="SVGID_1_" gradientUnits="userSpaceOnUse" x1="9.2588" y1="47.8071" x2="35.949" y2="1.5783">
		<stop  offset="0" style="stop-color:#8DCED2"/>
		<stop  offset="1" style="stop-color:#4CB8EA"/>
	</linearGradient>
	<path class="st0" d="M54,19v-7H44v7h-1v6.2c0,1,0.8,1.8,1.8,1.8H46c0,1.3,0.8,2.4,2,2.8v2.8c0,6.9-3.6,13.8-11.3,17.2
		C39.9,46.9,42,42.7,42,38c0-8.8-7.2-16-16-16s-16,7.2-16,16c0,3.3,1,6.3,2.7,8.8C9.2,43.5,7,38.7,7,33.5V18.8c1.2-0.4,2-1.5,2-2.8
		h1.2c1,0,1.8-0.8,1.8-1.8V8h-1V1H1v7H0v6.2c0,1,0.8,1.8,1.8,1.8H3c0,1.3,0.8,2.4,2,2.8v15.7h0C5.5,45.3,14.5,54,25.5,54
		c0.1,0,0.3,0,0.4,0c0.1,0,0.1,0,0.1,0c0.1,0,0.2,0,0.3,0c14-0.3,23.7-9,23.7-21.3v-2.8c1.2-0.4,2-1.5,2-2.8h1.2
		c1,0,1.8-0.8,1.8-1.8V19H54z M3,6h2V4H3V3h6v1H7v2h2v2H3V6z M2,14v-4h8v4H9v-2H3v2H2z M5,14h2v2c0,0.6-0.4,1-1,1s-1-0.4-1-1V14z
		 M26.3,52c-0.2,0-0.3,0-0.5,0c-6-0.1-10.8-5-10.8-11c0-6.1,4.9-11,11-11s11,4.9,11,11C37,47,32.2,51.8,26.3,52z M26,24
		c7.7,0,14,6.3,14,14c0,2.1-0.5,4.2-1.4,6c0.2-1,0.4-1.9,0.4-3c0-7.2-5.8-13-13-13s-13,5.8-13,13c0,1,0.1,2,0.4,3
		c-0.9-1.8-1.4-3.8-1.4-6C12,30.3,18.3,24,26,24z M46,17h2v-2h-2v-1h6v1h-2v2h2v2h-6V17z M49,28c-0.6,0-1-0.4-1-1v-2h2v2
		C50,27.6,49.6,28,49,28z M53,25h-1v-2h-6v2h-1v-4h8V25z"/>
</g>
</svg>
