<?xml version="1.0" encoding="utf-8"?>
<!-- Generator: Adobe Illustrator 22.0.1, SVG Export Plug-In . SVG Version: 6.00 Build 0)  -->
<svg version="1.1" id="Layer_1" xmlns="http://www.w3.org/2000/svg" xmlns:xlink="http://www.w3.org/1999/xlink" x="0px" y="0px"
	 viewBox="0 0 600 600" style="enable-background:new 0 0 600 600;" xml:space="preserve">
<style type="text/css">
	.st0{fill:none;stroke:url(#SVGID_1_);stroke-width:3;stroke-linecap:round;stroke-linejoin:round;stroke-miterlimit:10;}
	.st1{fill:#4CB8EA;}
	.st2{fill:none;stroke:url(#SVGID_2_);stroke-width:3;stroke-linecap:round;stroke-linejoin:round;stroke-miterlimit:10;}
	.st3{fill:none;stroke:url(#SVGID_3_);stroke-width:3;stroke-linecap:round;stroke-linejoin:round;stroke-miterlimit:10;}
	.st4{fill:none;stroke:url(#SVGID_4_);stroke-width:3;stroke-linecap:round;stroke-linejoin:round;stroke-miterlimit:10;}
	.st5{fill:none;stroke:url(#SVGID_5_);stroke-width:3;stroke-miterlimit:10;}
	.st6{fill:none;stroke:url(#SVGID_6_);stroke-width:3;stroke-miterlimit:10;}
	.st7{fill:none;stroke:url(#SVGID_7_);stroke-width:3;stroke-miterlimit:10;}
	.st8{fill:none;stroke:url(#SVGID_8_);stroke-width:3;stroke-miterlimit:10;}
</style>
<g>
	
		<linearGradient id="SVGID_1_" gradientUnits="userSpaceOnUse" x1="112.4848" y1="-79.5837" x2="324.4926" y2="287.6246" gradientTransform="matrix(1 0 0 -1 0 598)">
		<stop  offset="0" style="stop-color:#8DCED2"/>
		<stop  offset="1" style="stop-color:#4CB8EA"/>
	</linearGradient>
	<path class="st0" d="M34.4,630.8l309.7-178.4l0.6-0.4c6.2-3.9,9.3-8.9,9.3-14.7c0-12-16.2-21.8-36.2-21.8c-10,0-18.8,2.3-25.3,6.2
		l-0.8,0.4l-39,22.5l-0.4,0.3c-6.6,4.1-15.7,6.6-26,6.6c-20,0-36.3-9.7-36.3-21.9c0-5.7,3.7-10.9,9.7-14.8l0.4-0.2l151-87.1"/>
	<g>
		<path class="st1" d="M381.9,303.6l-9.4,5.4l3.1,1.8l-15.6,1.8l9.3-5.4l-3.1-1.8L381.9,303.6 M381.9,301.5c-0.1,0-0.2,0-0.2,0
			l-15.6,1.8c-1,0.1-1.7,0.8-1.8,1.7c-0.2,0.9,0.2,1.7,0.9,2.3l-6.1,3.5c-0.9,0.5-1.3,1.6-1,2.6c0.3,0.9,1.1,1.5,2.1,1.5
			c0.1,0,0.2,0,0.2,0l15.6-1.8c1-0.1,1.7-0.8,1.8-1.7c0.2-0.9-0.2-1.7-0.9-2.3l6.2-3.6c0.9-0.5,1.3-1.6,1-2.6
			C383.7,302.1,382.8,301.5,381.9,301.5L381.9,301.5z M381.9,305.8L381.9,305.8L381.9,305.8L381.9,305.8z"/>
	</g>
	
		<linearGradient id="SVGID_2_" gradientUnits="userSpaceOnUse" x1="396.5483" y1="304.0923" x2="403.7813" y2="316.6201" gradientTransform="matrix(1 0 0 -1 0 598)">
		<stop  offset="0" style="stop-color:#8DCED2"/>
		<stop  offset="1" style="stop-color:#4CB8EA"/>
	</linearGradient>
	<line class="st2" x1="394.4" y1="291" x2="405.9" y2="284.4"/>
	
		<linearGradient id="SVGID_3_" gradientUnits="userSpaceOnUse" x1="400.4339" y1="301.7174" x2="407.6624" y2="314.2375" gradientTransform="matrix(1 0 0 -1 0 598)">
		<stop  offset="0" style="stop-color:#8DCED2"/>
		<stop  offset="1" style="stop-color:#4CB8EA"/>
	</linearGradient>
	<line class="st3" x1="398.3" y1="293.4" x2="409.8" y2="286.7"/>
	
		<linearGradient id="SVGID_4_" gradientUnits="userSpaceOnUse" x1="405.1664" y1="299.1371" x2="412.4418" y2="311.7383" gradientTransform="matrix(1 0 0 -1 0 598)">
		<stop  offset="0" style="stop-color:#8DCED2"/>
		<stop  offset="1" style="stop-color:#4CB8EA"/>
	</linearGradient>
	<line class="st4" x1="403.1" y1="296" x2="414.5" y2="289.2"/>
	<g>
		
			<linearGradient id="SVGID_5_" gradientUnits="userSpaceOnUse" x1="346.9415" y1="263.3105" x2="355.0796" y2="277.4061" gradientTransform="matrix(1 0 0 -1 0 598)">
			<stop  offset="0" style="stop-color:#8DCED2"/>
			<stop  offset="1" style="stop-color:#4CB8EA"/>
		</linearGradient>
		<path class="st5" d="M371,342.4c0,3.6-2.2,3.1-4.2,1.8L335,326c-2.3-1.2-3.8-2.2-3.8-5v-8.1c0-3.1,1.1-3.8,4.2-1.9l31.4,18.2
			c4,2.3,4.2,3,4.2,6.5L371,342.4L371,342.4z"/>
		
			<linearGradient id="SVGID_6_" gradientUnits="userSpaceOnUse" x1="363.3792" y1="268.5414" x2="385.0173" y2="306.0195" gradientTransform="matrix(1 0 0 -1 0 598)">
			<stop  offset="0" style="stop-color:#8DCED2"/>
			<stop  offset="1" style="stop-color:#4CB8EA"/>
		</linearGradient>
		<path class="st6" d="M409.2,322.4c1.4-0.9,1.5-0.6,1.5-2.9v-6.7c0-3.6-0.1-4.3-4.2-6.5l-31.4-18.2c-1.4-0.9-2.4-1.2-3.1-1
			l-0.2,0.1l-40.1,23.2"/>
		
			<linearGradient id="SVGID_7_" gradientUnits="userSpaceOnUse" x1="379.7502" y1="246.6542" x2="400.4499" y2="282.507" gradientTransform="matrix(1 0 0 -1 0 598)">
			<stop  offset="0" style="stop-color:#8DCED2"/>
			<stop  offset="1" style="stop-color:#4CB8EA"/>
		</linearGradient>
		<line class="st7" x1="370.2" y1="345" x2="410" y2="321.9"/>
		
			<linearGradient id="SVGID_8_" gradientUnits="userSpaceOnUse" x1="398.9604" y1="295.1021" x2="409.6197" y2="313.5645" gradientTransform="matrix(1 0 0 -1 0 598)">
			<stop  offset="0" style="stop-color:#8DCED2"/>
			<stop  offset="1" style="stop-color:#4CB8EA"/>
		</linearGradient>
		<path class="st8" d="M409.6,308.2l12.4-7.1l0.1-0.1c0.2-0.2,0.3-0.6,0.3-1.3V296c0-1.9-0.1-2.4-2.3-3.6l-17.3-10.1
			c-0.6-0.4-1.2-0.6-1.6-0.5l-0.2,0.1l-18.3,10.6"/>
	</g>
</g>
</svg>
