<?xml version="1.0" encoding="utf-8"?>
<!-- Generator: Adobe Illustrator 22.0.1, SVG Export Plug-In . SVG Version: 6.00 Build 0)  -->
<svg version="1.1" id="Layer_1" xmlns="http://www.w3.org/2000/svg" xmlns:xlink="http://www.w3.org/1999/xlink" x="0px" y="0px"
	 viewBox="0 0 600.9 595.3" style="enable-background:new 0 0 600.9 595.3;" xml:space="preserve">
<style type="text/css">
	.st0{fill:none;stroke:url(#SVGID_1_);stroke-width:3;stroke-miterlimit:10;}
	.st1{fill:none;stroke:url(#SVGID_2_);stroke-width:3;stroke-miterlimit:10;}
	.st2{fill:none;stroke:url(#SVGID_3_);stroke-width:3;stroke-miterlimit:10;}
	.st3{fill:none;stroke:url(#SVGID_4_);stroke-width:3;stroke-miterlimit:10;}
	.st4{fill:none;stroke:url(#SVGID_5_);stroke-width:3;stroke-miterlimit:10;}
	.st5{fill:#4CB8EA;}
	.st6{fill:none;stroke:url(#SVGID_6_);stroke-width:3;stroke-linecap:round;stroke-linejoin:round;stroke-miterlimit:10;}
	.st7{fill:none;stroke:url(#SVGID_7_);stroke-width:3;stroke-linecap:round;stroke-linejoin:round;stroke-miterlimit:10;}
	.st8{fill:none;stroke:url(#SVGID_8_);stroke-width:3;stroke-linecap:round;stroke-linejoin:round;stroke-miterlimit:10;}
	.st9{fill:none;stroke:url(#SVGID_9_);stroke-width:3;stroke-linecap:round;stroke-linejoin:round;stroke-miterlimit:10;}
	.st10{fill:none;stroke:url(#SVGID_10_);stroke-width:3;stroke-linecap:round;stroke-linejoin:round;stroke-miterlimit:10;}
	.st11{fill:none;stroke:url(#SVGID_11_);stroke-width:3;stroke-linecap:round;stroke-linejoin:round;stroke-miterlimit:10;}
	.st12{fill:none;stroke:url(#SVGID_12_);stroke-width:3;stroke-linecap:round;stroke-linejoin:round;stroke-miterlimit:10;}
	.st13{fill:none;stroke:url(#SVGID_13_);stroke-width:3;stroke-miterlimit:10;}
	.st14{fill:none;stroke:url(#SVGID_14_);stroke-width:3;stroke-miterlimit:10;}
	.st15{fill:none;stroke:url(#SVGID_15_);stroke-width:3;stroke-miterlimit:10;}
	.st16{fill:none;stroke:url(#SVGID_16_);stroke-width:3;stroke-miterlimit:10;}
	.st17{fill:none;stroke:url(#SVGID_17_);stroke-width:3;stroke-miterlimit:10;}
	.st18{fill:none;stroke:url(#SVGID_18_);stroke-width:3;stroke-miterlimit:10;}
	.st19{fill:none;stroke:url(#SVGID_19_);stroke-width:3;stroke-miterlimit:10;}
	.st20{fill:none;stroke:url(#SVGID_20_);stroke-width:3;stroke-miterlimit:10;}
	.st21{fill:none;stroke:url(#SVGID_21_);stroke-width:3;stroke-miterlimit:10;}
	.st22{fill:none;stroke:url(#SVGID_22_);stroke-width:3;stroke-linecap:round;stroke-linejoin:round;stroke-miterlimit:10;}
	.st23{fill:none;stroke:url(#SVGID_23_);stroke-width:3;stroke-linecap:round;stroke-linejoin:round;stroke-miterlimit:10;}
	.st24{fill:none;stroke:url(#SVGID_24_);stroke-width:3;stroke-linecap:round;stroke-linejoin:round;stroke-miterlimit:10;}
</style>
<g>
	
		<linearGradient id="SVGID_1_" gradientUnits="userSpaceOnUse" x1="439.9156" y1="168.2433" x2="742.1868" y2="691.7925" gradientTransform="matrix(1 0 0 -1 0 598)">
		<stop  offset="0" style="stop-color:#8DCED2"/>
		<stop  offset="1" style="stop-color:#4CB8EA"/>
	</linearGradient>
	<path class="st0" d="M856.4-27l-450,259.3l-0.9,0.5c-8.3,5.3-12.8,12.1-12.8,20c0,16.3,22.1,29.7,49.3,29.7
		c13.5,0,25.7-3.1,34.5-8.4l1.1-0.6l10.8-6.8l0.6-0.3c9-5.6,21.3-9,35.3-9c27.3,0,49.5,13.3,49.5,29.8c0,7.9-5,14.8-13.2,20.2
		l-0.5,0.3l-162.4,96.9"/>
	
		<linearGradient id="SVGID_2_" gradientUnits="userSpaceOnUse" x1="337.4236" y1="153.5919" x2="346.7367" y2="169.7228" gradientTransform="matrix(1 0 0 -1 0 598)">
		<stop  offset="0" style="stop-color:#8DCED2"/>
		<stop  offset="1" style="stop-color:#4CB8EA"/>
	</linearGradient>
	<path class="st1" d="M319,431.1c-0.3-0.6-0.5-1.5-0.5-2.6v-9.6c0-3.8,1.3-4.5,5-2.4l37.5,21.7c4.8,2.7,5,3.6,5,7.8v8
		c0,4.2-2.5,3.8-5,2.2l-10.4-6"/>
	
		<linearGradient id="SVGID_3_" gradientUnits="userSpaceOnUse" x1="350.3485" y1="148.318" x2="382.3545" y2="203.7539" gradientTransform="matrix(1 0 0 -1 0 598)">
		<stop  offset="0" style="stop-color:#8DCED2"/>
		<stop  offset="1" style="stop-color:#4CB8EA"/>
	</linearGradient>
	<path class="st2" d="M319.2,415.9l47.6-27.6l0.2-0.1c0.8-0.3,1.9,0.1,3.7,1.1l37.5,21.7c4.8,2.7,5,3.6,5,7.8v8
		c0,1.5-0.3,2.5-0.9,2.9l-0.1,0.1l-47.4,27.4"/>
	
		<linearGradient id="SVGID_4_" gradientUnits="userSpaceOnUse" x1="312.7053" y1="141.2063" x2="318.5532" y2="151.3351" gradientTransform="matrix(1 0 0 -1 0 598)">
		<stop  offset="0" style="stop-color:#8DCED2"/>
		<stop  offset="1" style="stop-color:#4CB8EA"/>
	</linearGradient>
	<path class="st3" d="M328.7,461.5c0,2.4-1.4,2.1-2.7,1.2l-20.9-12c-1.5-0.8-2.5-1.4-2.5-3.2v-5.3c0-2.1,0.8-2.5,2.7-1.3l20.7,11.9
		c2.6,1.5,2.7,1.9,2.7,4.3L328.7,461.5L328.7,461.5z"/>
	
		<linearGradient id="SVGID_5_" gradientUnits="userSpaceOnUse" x1="320.1046" y1="138.5929" x2="338.3" y2="170.1083" gradientTransform="matrix(1 0 0 -1 0 598)">
		<stop  offset="0" style="stop-color:#8DCED2"/>
		<stop  offset="1" style="stop-color:#4CB8EA"/>
	</linearGradient>
	<path class="st4" d="M303,440.5l26.3-15.3l0,0c0.4-0.2,1.1,0,2.2,0.5l20.7,11.9c2.6,1.5,2.7,1.9,2.7,4.3v4.4c0,1.2-0.2,1.4-1,1.8
		l-25.8,14.9"/>
	<g>
		<path class="st5" d="M378.9,407.8l-11.4,6.5l3.8,2.2l-18.7,2.2l11.3-6.5l-3.8-2.2L378.9,407.8 M378.9,405.6c-0.1,0-0.2,0-0.2,0
			l-18.8,2.2c-1,0.1-1.7,0.8-1.8,1.7c-0.1,1,0.2,1.8,1.1,2.3l0.5,0.3l-8,4.7c-0.9,0.5-1.3,1.6-1,2.6c0.3,0.9,1.1,1.5,2.1,1.5
			c0.1,0,0.2,0,0.2,0l18.7-2.2c1-0.1,1.7-0.8,1.8-1.7c0.1-1-0.2-1.8-1.1-2.3l-0.5-0.3l8.1-4.7c0.9-0.5,1.3-1.6,1-2.6
			C380.8,406.2,379.9,405.6,378.9,405.6L378.9,405.6z M378.9,409.9L378.9,409.9L378.9,409.9L378.9,409.9z"/>
	</g>
	
		<linearGradient id="SVGID_6_" gradientUnits="userSpaceOnUse" x1="312.8269" y1="151.4076" x2="321.2873" y2="166.0613" gradientTransform="matrix(1 0 0 -1 0 598)">
		<stop  offset="0" style="stop-color:#8DCED2"/>
		<stop  offset="1" style="stop-color:#4CB8EA"/>
	</linearGradient>
	<line class="st6" x1="310.1" y1="443.3" x2="324" y2="435.3"/>
	
		<linearGradient id="SVGID_7_" gradientUnits="userSpaceOnUse" x1="317.5498" y1="148.508" x2="325.983" y2="163.1149" gradientTransform="matrix(1 0 0 -1 0 598)">
		<stop  offset="0" style="stop-color:#8DCED2"/>
		<stop  offset="1" style="stop-color:#4CB8EA"/>
	</linearGradient>
	<line class="st7" x1="314.8" y1="446.2" x2="328.7" y2="438.2"/>
	
		<linearGradient id="SVGID_8_" gradientUnits="userSpaceOnUse" x1="323.2876" y1="145.4767" x2="331.7208" y2="160.0836" gradientTransform="matrix(1 0 0 -1 0 598)">
		<stop  offset="0" style="stop-color:#8DCED2"/>
		<stop  offset="1" style="stop-color:#4CB8EA"/>
	</linearGradient>
	<line class="st8" x1="320.6" y1="449.2" x2="334.4" y2="441.2"/>
</g>
<g>
	
		<linearGradient id="SVGID_9_" gradientUnits="userSpaceOnUse" x1="-29.1491" y1="-189.8261" x2="182.9493" y2="177.5392" gradientTransform="matrix(1 0 0 -1 0 598)">
		<stop  offset="0" style="stop-color:#8DCED2"/>
		<stop  offset="1" style="stop-color:#4CB8EA"/>
	</linearGradient>
	<path class="st9" d="M-107.3,741l309.7-178.4l0.6-0.4c6.2-3.9,9.3-8.9,9.3-14.7c0-12-16.2-21.8-36.2-21.8c-10,0-18.8,2.3-25.3,6.2
		l-0.8,0.4l-39,22.5l-0.4,0.3c-6.6,4.1-15.7,6.6-26,6.6c-20,0-36.3-9.7-36.3-21.9c0-5.7,3.7-10.9,9.7-14.8l0.4-0.2l151-87.1"/>
	<g>
		<path class="st5" d="M240.2,413.8l-9.4,5.4l3.1,1.8l-15.6,1.8l9.3-5.4l-3.1-1.8L240.2,413.8 M240.2,411.7c-0.1,0-0.2,0-0.2,0
			l-15.6,1.8c-1,0.1-1.7,0.8-1.8,1.7c-0.2,0.9,0.2,1.7,0.9,2.3l-6.1,3.5c-0.9,0.5-1.3,1.6-1,2.6c0.3,0.9,1.1,1.5,2.1,1.5
			c0.1,0,0.2,0,0.2,0l15.6-1.8c1-0.1,1.7-0.8,1.8-1.7c0.2-0.9-0.2-1.7-0.9-2.3l6.2-3.6c0.9-0.5,1.3-1.6,1-2.6
			C242,412.3,241.1,411.7,240.2,411.7L240.2,411.7z M240.2,416L240.2,416L240.2,416L240.2,416z"/>
	</g>
	
		<linearGradient id="SVGID_10_" gradientUnits="userSpaceOnUse" x1="254.8337" y1="193.8701" x2="262.0622" y2="206.3902" gradientTransform="matrix(1 0 0 -1 0 598)">
		<stop  offset="0" style="stop-color:#8DCED2"/>
		<stop  offset="1" style="stop-color:#4CB8EA"/>
	</linearGradient>
	<line class="st10" x1="252.7" y1="401.2" x2="264.2" y2="394.6"/>
	
		<linearGradient id="SVGID_11_" gradientUnits="userSpaceOnUse" x1="258.7311" y1="191.4884" x2="265.9596" y2="204.0085" gradientTransform="matrix(1 0 0 -1 0 598)">
		<stop  offset="0" style="stop-color:#8DCED2"/>
		<stop  offset="1" style="stop-color:#4CB8EA"/>
	</linearGradient>
	<line class="st11" x1="256.6" y1="403.6" x2="268.1" y2="396.9"/>
	
		<linearGradient id="SVGID_12_" gradientUnits="userSpaceOnUse" x1="263.4711" y1="188.9037" x2="270.7465" y2="201.505" gradientTransform="matrix(1 0 0 -1 0 598)">
		<stop  offset="0" style="stop-color:#8DCED2"/>
		<stop  offset="1" style="stop-color:#4CB8EA"/>
	</linearGradient>
	<line class="st12" x1="261.4" y1="406.2" x2="272.8" y2="399.4"/>
	<g>
		
			<linearGradient id="SVGID_13_" gradientUnits="userSpaceOnUse" x1="205.2515" y1="153.0741" x2="213.3896" y2="167.1697" gradientTransform="matrix(1 0 0 -1 0 598)">
			<stop  offset="0" style="stop-color:#8DCED2"/>
			<stop  offset="1" style="stop-color:#4CB8EA"/>
		</linearGradient>
		<path class="st13" d="M229.3,452.6c0,3.6-2.2,3.1-4.2,1.8l-31.8-18.2c-2.3-1.2-3.8-2.2-3.8-5v-8.1c0-3.1,1.1-3.8,4.2-1.9
			l31.4,18.2c4,2.3,4.2,3,4.2,6.5V452.6z"/>
		
			<linearGradient id="SVGID_14_" gradientUnits="userSpaceOnUse" x1="221.6894" y1="158.3048" x2="243.3271" y2="195.7822" gradientTransform="matrix(1 0 0 -1 0 598)">
			<stop  offset="0" style="stop-color:#8DCED2"/>
			<stop  offset="1" style="stop-color:#4CB8EA"/>
		</linearGradient>
		<path class="st14" d="M267.5,432.6c1.4-0.9,1.5-0.6,1.5-2.9v-6.7c0-3.6-0.1-4.3-4.2-6.5l-31.4-18.2c-1.4-0.9-2.4-1.2-3.1-1
			l-0.2,0.1L190,420.6"/>
		
			<linearGradient id="SVGID_15_" gradientUnits="userSpaceOnUse" x1="238.033" y1="136.4151" x2="258.7266" y2="172.2573" gradientTransform="matrix(1 0 0 -1 0 598)">
			<stop  offset="0" style="stop-color:#8DCED2"/>
			<stop  offset="1" style="stop-color:#4CB8EA"/>
		</linearGradient>
		<line class="st15" x1="228.5" y1="455.2" x2="268.3" y2="432.1"/>
		
			<linearGradient id="SVGID_16_" gradientUnits="userSpaceOnUse" x1="257.2585" y1="184.8696" x2="267.9178" y2="203.332" gradientTransform="matrix(1 0 0 -1 0 598)">
			<stop  offset="0" style="stop-color:#8DCED2"/>
			<stop  offset="1" style="stop-color:#4CB8EA"/>
		</linearGradient>
		<path class="st16" d="M267.9,418.4l12.4-7.1l0.1-0.1c0.2-0.2,0.3-0.6,0.3-1.3v-3.7c0-1.9-0.1-2.4-2.3-3.6l-17.3-10.1
			c-0.6-0.4-1.2-0.6-1.6-0.5l-0.2,0.1L241,402.7"/>
	</g>
</g>
<g>
	
		<linearGradient id="SVGID_17_" gradientUnits="userSpaceOnUse" x1="27.2966" y1="513.1109" x2="80.9274" y2="606.0024" gradientTransform="matrix(1 0 0 -1 0 598)">
		<stop  offset="0" style="stop-color:#8DCED2"/>
		<stop  offset="1" style="stop-color:#4CB8EA"/>
	</linearGradient>
	<path class="st17" d="M-48-79.3L148.7,32.9l0.6,0.4c6.2,3.9,9.3,8.8,9.3,14.5c0,11.9-16.2,21.5-36.2,21.5c-10,0-18.8-2.3-25.3-6.1
		l-0.8-0.4l-39-22.3L57,40.2c-6.6-4.1-15.7-6.6-26-6.6c-20,0-36.3,9.6-36.3,21.7c0,5.7,3.7,10.8,9.7,14.7l0.4,0.2l151.1,86.3"/>
	
		<linearGradient id="SVGID_18_" gradientUnits="userSpaceOnUse" x1="188.8478" y1="393.0143" x2="214.474" y2="437.4004" gradientTransform="matrix(1 0 0 -1 0 598)">
		<stop  offset="0" style="stop-color:#8DCED2"/>
		<stop  offset="1" style="stop-color:#4CB8EA"/>
	</linearGradient>
	<path class="st18" d="M220.8,178.5c0.2-0.5,0.4-1.3,0.4-2.1v-7.9c0-3.1-1.1-3.7-4.1-1.9l-31,17.8c-4,2.2-4.1,2.9-4.1,6.4v6.6
		c0,3.5,2.1,3.1,4.1,1.7l8.6-4.9"/>
	
		<linearGradient id="SVGID_19_" gradientUnits="userSpaceOnUse" x1="165.7334" y1="406.2175" x2="191.3994" y2="450.6722" gradientTransform="matrix(1 0 0 -1 0 598)">
		<stop  offset="0" style="stop-color:#8DCED2"/>
		<stop  offset="1" style="stop-color:#4CB8EA"/>
	</linearGradient>
	<path class="st19" d="M220.6,165.9l-39.5-22.6l-0.2-0.1c-0.6-0.2-1.6,0.1-3,0.9l-31,17.8c-4,2.2-4.1,2.9-4.1,6.4v6.6
		c0,1.3,0.3,2.1,0.8,2.4l0.1,0.1l39.3,22.4"/>
	
		<linearGradient id="SVGID_20_" gradientUnits="userSpaceOnUse" x1="216.1059" y1="389.8011" x2="230.9387" y2="415.492" gradientTransform="matrix(1 0 0 -1 0 598)">
		<stop  offset="0" style="stop-color:#8DCED2"/>
		<stop  offset="1" style="stop-color:#4CB8EA"/>
	</linearGradient>
	<path class="st20" d="M212.7,203.4c0,1.9,1.2,1.7,2.3,1l17.3-9.9c1.3-0.6,2.1-1.2,2.1-2.7v-4.3c0-1.7-0.6-2.1-2.3-1.1l-17.1,9.7
		c-2.2,1.2-2.3,1.6-2.3,3.5V203.4z"/>
	
		<linearGradient id="SVGID_21_" gradientUnits="userSpaceOnUse" x1="203.2379" y1="397.394" x2="217.9851" y2="422.937" gradientTransform="matrix(1 0 0 -1 0 598)">
		<stop  offset="0" style="stop-color:#8DCED2"/>
		<stop  offset="1" style="stop-color:#4CB8EA"/>
	</linearGradient>
	<path class="st21" d="M234,186l-21.8-12.4l0,0c-0.3-0.2-1,0-1.7,0.4l-17.1,9.7c-2.2,1.2-2.3,1.6-2.3,3.5v3.6c0,1,0.1,1.1,0.8,1.5
		l21.3,12.2"/>
	<g>
		<path class="st5" d="M171,159.3l15.6,1.8l-3.1,1.7l9.3,5.3l-15.6-1.7l3.1-1.7L171,159.3 M171,157.1c-1,0-1.7,0.5-2.1,1.5
			c-0.3,1,0.1,2.1,1,2.6l6.1,3.5c-0.6,0.5-1.1,1.4-0.9,2.2c0.2,0.9,1,1.6,1.8,1.7l15.6,1.7c0.1,0,0.2,0,0.2,0c1,0,1.7-0.5,2.1-1.5
			s-0.1-2.1-1-2.6l-6.1-3.5c0.6-0.5,1.1-1.4,0.9-2.2c-0.2-0.9-1-1.6-1.8-1.7l-15.6-1.8C171.2,157.1,171.1,157.1,171,157.1L171,157.1
			z"/>
	</g>
	
		<linearGradient id="SVGID_22_" gradientUnits="userSpaceOnUse" x1="221.6008" y1="411.5442" x2="223.1375" y2="414.2056" gradientTransform="matrix(1 0 0 -1 0 598)">
		<stop  offset="0" style="stop-color:#8DCED2"/>
		<stop  offset="1" style="stop-color:#4CB8EA"/>
	</linearGradient>
	<line class="st22" x1="228.2" y1="188.4" x2="216.6" y2="181.8"/>
	
		<linearGradient id="SVGID_23_" gradientUnits="userSpaceOnUse" x1="217.663" y1="409.1861" x2="219.1723" y2="411.8002" gradientTransform="matrix(1 0 0 -1 0 598)">
		<stop  offset="0" style="stop-color:#8DCED2"/>
		<stop  offset="1" style="stop-color:#4CB8EA"/>
	</linearGradient>
	<line class="st23" x1="224.2" y1="190.8" x2="212.7" y2="184.2"/>
	
		<linearGradient id="SVGID_24_" gradientUnits="userSpaceOnUse" x1="212.8996" y1="406.6961" x2="214.4089" y2="409.3102" gradientTransform="matrix(1 0 0 -1 0 598)">
		<stop  offset="0" style="stop-color:#8DCED2"/>
		<stop  offset="1" style="stop-color:#4CB8EA"/>
	</linearGradient>
	<line class="st24" x1="219.4" y1="193.3" x2="207.9" y2="186.7"/>
</g>
</svg>
