<?xml version="1.0" encoding="utf-8"?>
<!-- Generator: Adobe Illustrator 22.0.1, SVG Export Plug-In . SVG Version: 6.00 Build 0)  -->
<svg version="1.1" id="Layer_1" xmlns="http://www.w3.org/2000/svg" xmlns:xlink="http://www.w3.org/1999/xlink" x="0px" y="0px"
	 viewBox="0 0 600.9 595.3" style="enable-background:new 0 0 600.9 595.3;" xml:space="preserve">
<style type="text/css">
	.st0{fill:none;stroke:url(#SVGID_1_);stroke-width:3;stroke-linecap:round;stroke-linejoin:round;stroke-miterlimit:10;}
	.st1{fill:#4CB8EA;}
	.st2{fill:none;stroke:url(#SVGID_2_);stroke-width:3;stroke-linecap:round;stroke-linejoin:round;stroke-miterlimit:10;}
	.st3{fill:none;stroke:url(#SVGID_3_);stroke-width:3;stroke-linecap:round;stroke-linejoin:round;stroke-miterlimit:10;}
	.st4{fill:none;stroke:url(#SVGID_4_);stroke-width:3;stroke-linecap:round;stroke-linejoin:round;stroke-miterlimit:10;}
	.st5{fill:none;stroke:url(#SVGID_5_);stroke-width:3;stroke-miterlimit:10;}
	.st6{fill:none;stroke:url(#SVGID_6_);stroke-width:3;stroke-miterlimit:10;}
	.st7{fill:none;stroke:url(#SVGID_7_);stroke-width:3;stroke-miterlimit:10;}
	.st8{fill:none;stroke:url(#SVGID_8_);stroke-width:3;stroke-miterlimit:10;}
</style>
<g>
	
		<linearGradient id="SVGID_1_" gradientUnits="userSpaceOnUse" x1="10.7848" y1="-49.6584" x2="222.7926" y2="317.5499" gradientTransform="matrix(1 0 0 -1 0 596)">
		<stop  offset="0" style="stop-color:#8DCED2"/>
		<stop  offset="1" style="stop-color:#4CB8EA"/>
	</linearGradient>
	<path class="st0" d="M-67.3,598.8l309.7-178.4l0.6-0.4c6.2-3.9,9.3-8.9,9.3-14.7c0-12-16.2-21.8-36.2-21.8c-10,0-18.8,2.3-25.3,6.2
		l-0.8,0.4l-39,22.5l-0.4,0.3c-6.6,4.1-15.7,6.6-26,6.6c-20,0-36.3-9.7-36.3-21.9c0-5.7,3.7-10.9,9.7-14.8l0.4-0.2l151-87.1"/>
	<g>
		<path class="st1" d="M280.2,271.6l-9.4,5.4l3.1,1.8l-15.6,1.8l9.3-5.4l-3.1-1.8L280.2,271.6 M280.2,269.5c-0.1,0-0.2,0-0.2,0
			l-15.6,1.8c-1,0.1-1.7,0.8-1.8,1.7c-0.2,0.9,0.2,1.7,0.9,2.3l-6.1,3.5c-0.9,0.5-1.3,1.6-1,2.6c0.3,0.9,1.1,1.5,2.1,1.5
			c0.1,0,0.2,0,0.2,0l15.6-1.8c1-0.1,1.7-0.8,1.8-1.7c0.2-0.9-0.2-1.7-0.9-2.3l6.2-3.6c0.9-0.5,1.3-1.6,1-2.6
			C282,270.1,281.1,269.5,280.2,269.5L280.2,269.5z M280.2,273.8L280.2,273.8L280.2,273.8L280.2,273.8z"/>
	</g>
	
		<linearGradient id="SVGID_2_" gradientUnits="userSpaceOnUse" x1="294.8483" y1="334.0176" x2="302.0812" y2="346.5453" gradientTransform="matrix(1 0 0 -1 0 596)">
		<stop  offset="0" style="stop-color:#8DCED2"/>
		<stop  offset="1" style="stop-color:#4CB8EA"/>
	</linearGradient>
	<line class="st2" x1="292.7" y1="259" x2="304.2" y2="252.4"/>
	
		<linearGradient id="SVGID_3_" gradientUnits="userSpaceOnUse" x1="298.7339" y1="331.6427" x2="305.9624" y2="344.1628" gradientTransform="matrix(1 0 0 -1 0 596)">
		<stop  offset="0" style="stop-color:#8DCED2"/>
		<stop  offset="1" style="stop-color:#4CB8EA"/>
	</linearGradient>
	<line class="st3" x1="296.6" y1="261.4" x2="308.1" y2="254.7"/>
	
		<linearGradient id="SVGID_4_" gradientUnits="userSpaceOnUse" x1="303.4664" y1="329.0623" x2="310.7418" y2="341.6636" gradientTransform="matrix(1 0 0 -1 0 596)">
		<stop  offset="0" style="stop-color:#8DCED2"/>
		<stop  offset="1" style="stop-color:#4CB8EA"/>
	</linearGradient>
	<line class="st4" x1="301.4" y1="264" x2="312.8" y2="257.2"/>
	<g>
		
			<linearGradient id="SVGID_5_" gradientUnits="userSpaceOnUse" x1="245.2415" y1="293.2358" x2="253.3796" y2="307.3313" gradientTransform="matrix(1 0 0 -1 0 596)">
			<stop  offset="0" style="stop-color:#8DCED2"/>
			<stop  offset="1" style="stop-color:#4CB8EA"/>
		</linearGradient>
		<path class="st5" d="M269.3,310.4c0,3.6-2.2,3.1-4.2,1.8L233.3,294c-2.3-1.2-3.8-2.2-3.8-5v-8.1c0-3.1,1.1-3.8,4.2-1.9l31.4,18.2
			c4,2.3,4.2,3,4.2,6.5V310.4L269.3,310.4z"/>
		
			<linearGradient id="SVGID_6_" gradientUnits="userSpaceOnUse" x1="261.6792" y1="298.4666" x2="283.3173" y2="335.9448" gradientTransform="matrix(1 0 0 -1 0 596)">
			<stop  offset="0" style="stop-color:#8DCED2"/>
			<stop  offset="1" style="stop-color:#4CB8EA"/>
		</linearGradient>
		<path class="st6" d="M307.5,290.4c1.4-0.9,1.5-0.6,1.5-2.9v-6.7c0-3.6-0.1-4.3-4.2-6.5l-31.4-18.2c-1.4-0.9-2.4-1.2-3.1-1
			l-0.2,0.1L230,278.4"/>
		
			<linearGradient id="SVGID_7_" gradientUnits="userSpaceOnUse" x1="278.0501" y1="276.5795" x2="298.7498" y2="312.4323" gradientTransform="matrix(1 0 0 -1 0 596)">
			<stop  offset="0" style="stop-color:#8DCED2"/>
			<stop  offset="1" style="stop-color:#4CB8EA"/>
		</linearGradient>
		<line class="st7" x1="268.5" y1="313" x2="308.3" y2="289.9"/>
		
			<linearGradient id="SVGID_8_" gradientUnits="userSpaceOnUse" x1="297.2604" y1="325.0273" x2="307.9197" y2="343.4897" gradientTransform="matrix(1 0 0 -1 0 596)">
			<stop  offset="0" style="stop-color:#8DCED2"/>
			<stop  offset="1" style="stop-color:#4CB8EA"/>
		</linearGradient>
		<path class="st8" d="M307.9,276.2l12.4-7.1l0.1-0.1c0.2-0.2,0.3-0.6,0.3-1.3V264c0-1.9-0.1-2.4-2.3-3.6l-17.3-10.1
			c-0.6-0.4-1.2-0.6-1.6-0.5l-0.2,0.1L281,260.5"/>
	</g>
</g>
</svg>
