<?xml version="1.0" encoding="utf-8"?>
<!-- Generator: Adobe Illustrator 22.0.1, SVG Export Plug-In . SVG Version: 6.00 Build 0)  -->
<svg version="1.1" id="Layer_1" xmlns="http://www.w3.org/2000/svg" xmlns:xlink="http://www.w3.org/1999/xlink" x="0px" y="0px"
	 viewBox="0 0 600 600" style="enable-background:new 0 0 600 600;" xml:space="preserve">
<style type="text/css">
	.st0{fill:none;stroke:url(#SVGID_1_);stroke-width:3;stroke-linecap:round;stroke-linejoin:round;stroke-miterlimit:10;}
	.st1{fill:#4CB8EA;}
	.st2{fill:none;stroke:url(#SVGID_2_);stroke-width:3;stroke-linecap:round;stroke-linejoin:round;stroke-miterlimit:10;}
	.st3{fill:none;stroke:url(#SVGID_3_);stroke-width:3;stroke-linecap:round;stroke-linejoin:round;stroke-miterlimit:10;}
	.st4{fill:none;stroke:url(#SVGID_4_);stroke-width:3;stroke-linecap:round;stroke-linejoin:round;stroke-miterlimit:10;}
	.st5{fill:none;stroke:url(#SVGID_5_);stroke-width:3;stroke-miterlimit:10;}
	.st6{fill:none;stroke:url(#SVGID_6_);stroke-width:3;stroke-miterlimit:10;}
	.st7{fill:none;stroke:url(#SVGID_7_);stroke-width:3;stroke-miterlimit:10;}
	.st8{fill:none;stroke:url(#SVGID_8_);stroke-width:3;stroke-miterlimit:10;}
</style>
<g>
	
		<linearGradient id="SVGID_1_" gradientUnits="userSpaceOnUse" x1="262.4848" y1="679.6143" x2="474.4926" y2="312.4061" gradientTransform="matrix(1 0 0 1 0 -2)">
		<stop  offset="0" style="stop-color:#8DCED2"/>
		<stop  offset="1" style="stop-color:#4CB8EA"/>
	</linearGradient>
	<path class="st0" d="M184.4,630.8l309.7-178.4l0.6-0.4c6.2-3.9,9.3-8.9,9.3-14.7c0-12-16.2-21.8-36.2-21.8c-10,0-18.8,2.3-25.3,6.2
		l-0.8,0.4l-39,22.5l-0.4,0.3c-6.6,4.1-15.7,6.6-26,6.6c-20,0-36.3-9.7-36.3-21.9c0-5.7,3.7-10.9,9.7-14.8l0.4-0.2l151-87.1"/>
	<g>
		<path class="st1" d="M531.9,303.6l-9.4,5.4l3.1,1.8l-15.6,1.8l9.3-5.4l-3.1-1.8L531.9,303.6 M531.9,301.5c-0.1,0-0.2,0-0.2,0
			l-15.6,1.8c-1,0.1-1.7,0.8-1.8,1.7c-0.2,0.9,0.2,1.7,0.9,2.3l-6.1,3.5c-0.9,0.5-1.3,1.6-1,2.6c0.3,0.9,1.1,1.5,2.1,1.5
			c0.1,0,0.2,0,0.2,0l15.6-1.8c1-0.1,1.7-0.8,1.8-1.7c0.2-0.9-0.2-1.7-0.9-2.3l6.2-3.6c0.9-0.5,1.3-1.6,1-2.6
			C533.7,302.1,532.8,301.5,531.9,301.5L531.9,301.5z M531.9,305.8L531.9,305.8L531.9,305.8L531.9,305.8z"/>
	</g>
	
		<linearGradient id="SVGID_2_" gradientUnits="userSpaceOnUse" x1="546.5615" y1="295.9153" x2="553.7945" y2="283.3876" gradientTransform="matrix(1 0 0 1 0 -2)">
		<stop  offset="0" style="stop-color:#8DCED2"/>
		<stop  offset="1" style="stop-color:#4CB8EA"/>
	</linearGradient>
	<line class="st2" x1="544.4" y1="291" x2="555.9" y2="284.4"/>
	
		<linearGradient id="SVGID_3_" gradientUnits="userSpaceOnUse" x1="550.4471" y1="298.2903" x2="557.6757" y2="285.7702" gradientTransform="matrix(1 0 0 1 0 -2)">
		<stop  offset="0" style="stop-color:#8DCED2"/>
		<stop  offset="1" style="stop-color:#4CB8EA"/>
	</linearGradient>
	<line class="st3" x1="548.3" y1="293.4" x2="559.8" y2="286.7"/>
	
		<linearGradient id="SVGID_4_" gradientUnits="userSpaceOnUse" x1="555.1797" y1="300.8706" x2="562.4551" y2="288.2693" gradientTransform="matrix(1 0 0 1 0 -2)">
		<stop  offset="0" style="stop-color:#8DCED2"/>
		<stop  offset="1" style="stop-color:#4CB8EA"/>
	</linearGradient>
	<line class="st4" x1="553.1" y1="296" x2="564.5" y2="289.2"/>
	<g>
		
			<linearGradient id="SVGID_5_" gradientUnits="userSpaceOnUse" x1="496.9548" y1="336.6972" x2="505.0929" y2="322.6016" gradientTransform="matrix(1 0 0 1 0 -2)">
			<stop  offset="0" style="stop-color:#8DCED2"/>
			<stop  offset="1" style="stop-color:#4CB8EA"/>
		</linearGradient>
		<path class="st5" d="M521,342.4c0,3.6-2.2,3.1-4.2,1.8L485,326c-2.3-1.2-3.8-2.2-3.8-5v-8.1c0-3.1,1.1-3.8,4.2-1.9l31.4,18.2
			c4,2.3,4.2,3,4.2,6.5V342.4L521,342.4z"/>
		
			<linearGradient id="SVGID_6_" gradientUnits="userSpaceOnUse" x1="513.3925" y1="331.4662" x2="535.0306" y2="293.988" gradientTransform="matrix(1 0 0 1 0 -2)">
			<stop  offset="0" style="stop-color:#8DCED2"/>
			<stop  offset="1" style="stop-color:#4CB8EA"/>
		</linearGradient>
		<path class="st6" d="M559.2,322.4c1.4-0.9,1.5-0.6,1.5-2.9v-6.7c0-3.6-0.1-4.3-4.2-6.5l-31.4-18.2c-1.4-0.9-2.4-1.2-3.1-1
			l-0.2,0.1l-40.1,23.2"/>
		
			<linearGradient id="SVGID_7_" gradientUnits="userSpaceOnUse" x1="529.7502" y1="353.3764" x2="550.4498" y2="317.5236" gradientTransform="matrix(1 0 0 1 0 -2)">
			<stop  offset="0" style="stop-color:#8DCED2"/>
			<stop  offset="1" style="stop-color:#4CB8EA"/>
		</linearGradient>
		<line class="st7" x1="520.2" y1="345" x2="560" y2="321.9"/>
		
			<linearGradient id="SVGID_8_" gradientUnits="userSpaceOnUse" x1="548.9737" y1="304.9056" x2="559.633" y2="286.4432" gradientTransform="matrix(1 0 0 1 0 -2)">
			<stop  offset="0" style="stop-color:#8DCED2"/>
			<stop  offset="1" style="stop-color:#4CB8EA"/>
		</linearGradient>
		<path class="st8" d="M559.6,308.2l12.4-7.1l0.1-0.1c0.2-0.2,0.3-0.6,0.3-1.3V296c0-1.9-0.1-2.4-2.3-3.6l-17.3-10.1
			c-0.6-0.4-1.2-0.6-1.6-0.5l-0.2,0.1l-18.3,10.6"/>
	</g>
</g>
</svg>
